<ttFont>
          <CharString index="0">
            280 rmoveto
            73 2 98 7 53 vhcurveto
            0 -4 9 -11 3 vhcurveto
            -32 -8 -9 -1 -28 -6 -43 -8 -14 0 -31 -5 31 callgsubr
            -50 callgsubr
            2 -4 1 -5 10 callsubr
            -2 13 -2 vhcurveto
            50 -10 0 -41 -79 vvcurveto
            -121 vlineto
            -29 -2 -44 -1 -22 vhcurveto
            -27 -36 -47 -35 -68 hhcurveto
            -88 0 122 42 68 0 166 8 55 hvcurveto
            19 callsubr
            3 vhcurveto
            0 -38 -9 -33 -6 vhcurveto
            -37 -6 -14 -2 -26 -5 rrcurveto
            3 callgsubr
            -3 3 -6 10 callsubr
            -2 13 -2 vhcurveto
            41 -8 0 -18 -85 vvcurveto
            -191 vlineto
            -104 38 -73 89 vhcurveto
            73 25 60 27 62 39 2 -36 22 -44 30 -11 7 4 29 24 75 13 -41 callsubr
            -49 callsubr
            5 -4 7 vhcurveto
            -12 -14 -1 -10 hhcurveto
            -40 -5 52 38 hvcurveto
            0 -1 112 31 vvcurveto
            return
          </CharString>
          <CharString index="1">
            rmoveto
            -107 callgsubr
            return
          </CharString>
          <CharString index="2">
            hstem
            47 82 vstem
            300 52 rmoveto
            -128 -43 124 104 hvcurveto
            170 16 176 41 0 vvcurveto
            1 4 1 24 callgsubr
            11 -6 7 33 callsubr
            1 -4 3 -2 9 rrcurveto
            103 -30 -98 26 -55 hhcurveto
            -97 -22 -116 -75 -172 vvcurveto
            -147 86 -113 118 57 36 12 7 9 vhcurveto
            108 76 rlineto
            -2 16 -14 5 0 vvcurveto
            -28 -40 -45 -16 -60 hhcurveto
            -103 407 rmoveto
            10 16 20 0 10 hhcurveto
            85 40 -101 -5 -3 -1 -1 -4 -2 hvcurveto
            -27 -9 -29 -7 -44 -8 rrcurveto
            -6 -38 -68 -6 -24 hhcurveto
            4 47 15 60 45 31 rrcurveto
            return
          </CharString>
          <CharString index="3">
            rmoveto
            hintmask 10010110
            21 63 3 44 hhcurveto
            2 -88 callgsubr
            -9 -2 -7 0 -32 -12 0 -3 -23 vhcurveto
            -9 -1 -8 -80 -144 vvcurveto
            -163 vlineto
            -113 6 -156 10 -1 vhcurveto
            -3 26 23 0 39 hhcurveto
            0 2 -7 -9 vvcurveto
            -4 0 -5 -2 -6 vhcurveto
            hintmask 01010110
            -50 -53 3 -24 hhcurveto
            hintmask 00110110
            -32 -81 -1 -7 -59 hvcurveto
            -4 4 -1 8 5 vvcurveto
            4 1 -48 callgsubr
            89 18 3 24 5 40 rrcurveto
            4 26 8 123 104 vvcurveto
            112 vlineto
            144 -8 80 -9 1 vhcurveto
            3 -23 -12 0 -32 hhcurveto
            0 -2 -59 callsubr
            5 2 6 vhcurveto
            hintmask 10001110
            44 64 -3 22 hhcurveto
            return
          </CharString>
          <CharString index="4">
            -76 -16 callgsubr
            -5 -78 -102 callgsubr
            return
          </CharString>
          <CharString index="5">
            0 -5 10 -11 vhcurveto
            -34 -20 -16 -14 -39 -13 -36 -12 -17 -8 callgsubr
            22 callsubr
            -6 -1 vvcurveto
            -1 0 -7 3 33 callgsubr
            23 -3 13 -1 vhcurveto
            return
          </CharString>
          <CharString index="6">
            22 -65 callgsubr
            17 -6 30 callsubr
            -23 -83 callsubr
            -19 9 -24 18 -62 callsubr
            return
          </CharString>
          <CharString index="7">
            16 41 -3 33 hhcurveto
            3 -64 callgsubr
            -3 7 0 -21 -20 -83 callgsubr
            -4 111 46 vvcurveto
            return
          </CharString>
          <CharString index="8">
            hstemhm
            hintmask 00111000
            551 119 rmoveto
            6 -18 8 -16 -18 vvcurveto
            -23 -17 -15 -53 -12 vhcurveto
            0 -2 -4 -4 vvcurveto
            -66 callgsubr
            50 56 1 27 15 70 -3 32 hhcurveto
            3 -64 callgsubr
            -3 7 0 -4 -23 callsubr
            -28 vhcurveto
            -16 22 -38 94 -10 22 -230 588 rcurveline
            -16 hlineto
            -247 -560 -61 -138 -14 -23 -70 -19 rlinecurve
            0 -2 -4 -4 vvcurveto
            hintmask 00111000
            -66 callgsubr
            41 48 1 21 19 48 24 callsubr
            hintmask 00111000
            2 32 callsubr
            5 vvcurveto
            hintmask 11011000
            8 -2 7 0 -34 -13 0 1 -23 vhcurveto
            40 27 79 23 57 vhcurveto
            25 64 rlineto
            45 38 3 60 hhcurveto
            52 41 -1 -2 36 hvcurveto
            -129 344 rmoveto
            116 -306 rlineto
            -2 -31 -40 -1 -45 hhcurveto
            -52 -40 3 1 -36 hvcurveto
            return
          </CharString>
          <CharString index="9">
            -102 callsubr
            49 -47 callsubr
            -256 15 callsubr
            return
          </CharString>
          <CharString index="10">
            rmoveto
            hintmask 01011110
            -101 callgsubr
            hintmask 10101110
            -93 callgsubr
            hintmask 01101110
            -36 callsubr
            hintmask 10101110
            -86 callsubr
            return
          </CharString>
          <CharString index="11">
            23 8 30 25 14 17 -7 30 callsubr
            -23 -83 callsubr
            -19 10 -52 callsubr
            return
          </CharString>
          <CharString index="12">
            -3 callsubr
            5 callsubr
            return
          </CharString>
          <CharString index="13">
            rmoveto
            -101 callsubr
            216 hmoveto
            -76 callsubr
          </CharString>
          <CharString index="14">
            21 48 -3 44 hhcurveto
            2 5 1 4 5 -20 callgsubr
            -23 vhcurveto
            -9 64 -3 100 60 vvcurveto
            -1 233 0 59 76 vvcurveto
            35 -32 42 -44 54 -66 118 -146 174 -224 82 -108 rrcurveto
            return
          </CharString>
          <CharString index="15">
            30 73 -3 56 hhcurveto
            1 6 2 5 4 vvcurveto
            9 -3 7 0 -36 -44 1 6 -35 vhcurveto
            -6 41 -4 13 78 vvcurveto
            52 0 73 8 21 vhcurveto
            16 64 158 248 62 44 21 16 16 11 25 7 -34 callsubr
            2 6 vvcurveto
            5 -2 5 -4 7 vhcurveto
            -8 -46 -15 0 -43 hhcurveto
            -32 -54 1 2 -44 hvcurveto
            -74 callgsubr
            25 35 0 -4 21 vhcurveto
            -17 -77 -79 -124 -77 -135 rrcurveto
            return
          </CharString>
          <CharString index="16">
            rmoveto
            212 -159 167 -192 -21 -343 -36 -343 -216 159 -161 193 return
          </CharString>
          <CharString index="17">
            -20 -8 -32 -24 -16 return
          </CharString>
          <CharString index="18">
            -24 -34 3 7 -46 hvcurveto
            -5 -8 0 -10 -8 vvcurveto
            20 -6 11 -8 8 -10 17 -18 19 -42 10 -25 163 -400 rcurveline
            -36 -96 rlineto
            -76 -29 -74 -125 -42 hhcurveto
            -11 -16 4 2 -12 hvcurveto
            -9 -12 0 -9 -11 vvcurveto
            -13 64 42 -20 12 hhcurveto
            28 56 168 44 18 hvcurveto
            8 21 32 87 28 68 145 348 rcurveline
            27 63 14 21 18 19 return
          </CharString>
          <CharString index="19">
            281 781 rmoveto
            0 -2 11 -10 vhcurveto
            -34 -12 -34 -7 -38 -5 rrcurveto
            0 18 -135 4 -74 vhcurveto
            -13 hlineto
            -55 -100 18 0 -29 0 -27 -10 -44 hvcurveto
            -8 8 -1 0 vhcurveto
            28 57 59 13 41 hhcurveto
            81 hlineto
            55 100 -20 0 30 0 28 11 42 hvcurveto
            8 -8 3 0 vhcurveto
            -28 -58 -60 -13 -40 hhcurveto
            -12 hlineto
            3 57 15 100 22 65 rrcurveto
            return
          </CharString>
          <CharString index="20">
            vvcurveto
            -5 2 -7 4 -5 vhcurveto
            return
          </CharString>
          <CharString index="21">
            16 55 13 4 88 hvcurveto
            1 4 1 6 5 vvcurveto
            5 -1 7 -1 4 vhcurveto
            -20 -26 0 3 -17 hvcurveto
            -37 5 return
          </CharString>
          <CharString index="22">
            -96 callsubr
            endchar
          </CharString>
          <CharString index="23">
            22 46 -3 44 hhcurveto
            3 -64 callgsubr
            -3 7 0 -32 -26 0 3 -23 vhcurveto
            -12 1 -1 69 14 vvcurveto
            22 0 144 6 76 vhcurveto
            35 32 50 48 18 hhcurveto
            26 16 -21 -32 9 hvcurveto
            60 11 20 20 46 -38 36 -54 hvcurveto
            -50 -33 -28 -25 -58 -60 rrcurveto
            52 -4 -24 66 -14 hhcurveto
            endchar
          </CharString>
          <CharString index="24">
            17 -90 callsubr
            return
          </CharString>
          <CharString index="25">
            -5 18 -23 36 -25 21 -24 -9 -32 -24 -22 -24 14 -28 16 -23 24 -20 rrcurveto
            -27 -11 -34 -41 -59 -42 callgsubr
            69 67 39 return
          </CharString>
          <CharString index="26">
            371 10 212 3 48 vhcurveto
            3 41 10 30 71 16 -41 callsubr
            4 vvcurveto
            5 -1 7 -4 5 vhcurveto
            -7 -41 -54 -1 -21 hhcurveto
            return
          </CharString>
          <CharString index="27">
            -23 -205 -25 -240 -17 hvcurveto
            -3 -38 -3 -30 -1 -30 rrcurveto
            -96 hlineto
            -4 -16 0 -4 -7 -14 rrcurveto
            -8 7 -4 0 vhcurveto
            0 return
          </CharString>
          <CharString index="28">
            -64 -33 31 -53 hhcurveto
            -16 -14 -11 -13 -16 hvcurveto
            -14 -12 -14 -12 -29 26 callgsubr
            21 20 15 26 hhcurveto
            return
          </CharString>
          <CharString index="29">
            -206 -95 callsubr
            700 31 -3 -20 return
          </CharString>
          <CharString index="30">
            185 -3 callsubr
            28 -15 -21 280 32 return
          </CharString>
          <CharString index="31">
            -101 callsubr
            endchar
          </CharString>
          <CharString index="32">
            rmoveto
            -96 callsubr
            return
          </CharString>
          <CharString index="33">
            613 -24 callgsubr
            67 667 rmoveto
            5 -18 23 -36 25 -21 24 9 32 24 21 24 -13 28 -16 23 -24 20 rrcurveto
            27 11 34 41 59 vhcurveto
            11 -4 -8 4 -9 hhcurveto
            -70 -67 -38 -77 -44 vvcurveto
            return
          </CharString>
          <CharString index="34">
            28 12 39 29 15 20 -11 28 -25 34 -24 21 -26 -12 -38 -28 -20 -23 13 -29 23 -31 26 -21 rrcurveto
            return
          </CharString>
          <CharString index="35">
            613 -24 callgsubr
            164 780 rmoveto
            -5 17 -23 36 -25 22 -24 -10 -32 -24 -22 -24 14 -28 16 -22 24 -20 rrcurveto
            -27 -11 -35 -41 -58 -42 callgsubr
            69 67 39 return
          </CharString>
          <CharString index="36">
            10 10 8 4 18 8 rrcurveto
            4 -2 12 -6 10 vhcurveto
            -6 -38 -20 0 -26 hhcurveto
            -98 hlineto
            -1 -4 -1 -70 callsubr
            -11 4 -6 0 25 31 -2 -2 18 vhcurveto
            -4 -38 -21 -66 -25 -64 rrcurveto
            return
          </CharString>
          <CharString index="37">
            -5 -4 vvcurveto
            return
          </CharString>
          <CharString index="38">
            771 rmoveto
            17 1 3 19 -71 callgsubr
            -91 85 -73 77 vhcurveto
            return
          </CharString>
          <CharString index="39">
            10 -8 2 rrcurveto
            -13 -20 -20 -16 return
          </CharString>
          <CharString index="40">
            284 68 rmoveto
            -97 240 -22 53 -18 48 -8 54 rlinecurve
            2 13 9 0 22 hhcurveto
            0 2 -59 callsubr
            6 -2 5 vhcurveto
            -1 -32 -38 -2 -16 hhcurveto
            return
          </CharString>
          <CharString index="41">
            rmoveto
            74 -61 96 -92 46 -55 rrcurveto
            22 5 20 0 hvcurveto
            -139 195 139 195 rlineto
            0 -5 20 -22 vhcurveto
            -45 -55 -97 -92 -74 -61 rrcurveto
            endchar
          </CharString>
          <CharString index="42">
            201 354 rcurveline
            -9 9 -12 11 -8 10 rrcurveto
            3 -4 -3 0 -1 hhcurveto
            return
          </CharString>
          <CharString index="43">
            vhcurveto
            4 14 0 8 6 14 rrcurveto
            9 -6 -48 callgsubr
            -7 -56 -27 0 -49 hhcurveto
            1 50 4 56 3 29 rrcurveto
            96 10 58 89 46 hhcurveto
            return
          </CharString>
          <CharString index="44">
            -64 -33 31 -54 hhcurveto
            -16 -13 -10 -13 -16 hvcurveto
            -15 -12 -13 -13 -29 -23 return
          </CharString>
          <CharString index="45">
            -25 -33 callgsubr
            return
          </CharString>
          <CharString index="46">
            rmoveto
            131 -122 rlineto
            18 4 17 0 0 -86 105 -62 7 callsubr
            6 -17 17 vhcurveto
            endchar
          </CharString>
          <CharString index="47">
            -5 1 -7 4 -5 vhcurveto
            return
          </CharString>
          <CharString index="48">
            7 -6 callsubr
            return
          </CharString>
          <CharString index="49">
            -22 -46 4 callsubr
            -74 callgsubr
            32 14 -1 -4 23 12 callgsubr
            8 -72 -144 vvcurveto
            return
          </CharString>
          <CharString index="50">
            -8 vvcurveto
            -4 return
          </CharString>
          <CharString index="51">
            -29 callgsubr
            -7 3 -9 hhcurveto
            -4 -4 0 -1 -5 hvcurveto
            -14 -36 -10 -40 -22 35 callsubr
            return
          </CharString>
          <CharString index="52">
            rmoveto
            13 26 23 20 22 hvcurveto
            14 12 12 9 8 6 -3 10 -7 -68 callsubr
            -21 hhcurveto
            return
          </CharString>
          <CharString index="53">
            -4 -19 -3 -12 -6 -17 rrcurveto
            hintmask 01100000
            -58 callgsubr
            return
          </CharString>
          <CharString index="54">
            -7 0 26 21 0 -5 19 12 callgsubr
            return
          </CharString>
          <CharString index="55">
            -24 17 -62 callsubr
            return
          </CharString>
          <CharString index="56">
            19 4 17 0 0 return
          </CharString>
          <CharString index="57">
            hhcurveto
            100 0 -102 -109 -61 0 -55 -2 -21 hvcurveto
            -3 -31 -8 -29 -61 -14 rrcurveto
            0 -2 -4 -4 vvcurveto
            return
          </CharString>
          <CharString index="58">
            7 -27 callsubr
            return
          </CharString>
          <CharString index="59">
            3 -39 hhcurveto
            17 callsubr
            return
          </CharString>
          <CharString index="60">
            -6 0 -61 -57 vvcurveto
            return
          </CharString>
          <CharString index="61">
            2 -7 0 return
          </CharString>
          <CharString index="62">
            29 58 -4 61 hhcurveto
            223 161 155 218 194 -123 161 -261 hvcurveto
            return
          </CharString>
          <CharString index="63">
            -4 -31 -7 -29 -61 -14 -68 callgsubr
            -4 -4 vvcurveto
            return
          </CharString>
          <CharString index="64">
            -11 rrcurveto
            -9 8 -3 0 vhcurveto
            return
          </CharString>
          <CharString index="65">
            -20 callsubr
            4 vvcurveto
            return
          </CharString>
          <CharString index="66">
            -28 callsubr
            4 return
          </CharString>
          <CharString index="67">
            22 callgsubr
            5 5 -1 6 hhcurveto
            6 8 2 4 8 hvcurveto
            4 87 14 69 7 vvcurveto
            return
          </CharString>
          <CharString index="68">
            rmoveto
            18 4 17 0 0 -77 97 -61 87 hvcurveto
            -23 -9 -23 -18 -10 -24 rrcurveto
            endchar
          </CharString>
          <CharString index="69">
            142 -3 callsubr
            -20 708 32 3 -20 return
          </CharString>
          <CharString index="70">
            -20 hstemhm
            157 86 hintmask 0101100110000000
            return
          </CharString>
          <CharString index="71">
            -75 47 149 -257 36 hhcurveto
            return
          </CharString>
          <CharString index="72">
            -20 hstemhm
            124 76 return
          </CharString>
          <CharString index="73">
            rrcurveto
            0 2 return
          </CharString>
          <CharString index="74">
            -14 -68 callgsubr
            -4 -4 vvcurveto
            hintmask 00111110
            -60 callsubr
            hintmask 11011110
            7 return
          </CharString>
          <CharString index="75">
            5 -1 7 hhcurveto
            8 8 1 3 5 hvcurveto
            return
          </CharString>
          <CharString index="76">
            8 49 56 0 27 hhcurveto
            return
          </CharString>
          <CharString index="77">
            7 55 57 1 29 hhcurveto
            return
          </CharString>
          <CharString index="78">
            -5 callsubr
            -2 return
          </CharString>
          <CharString index="79">
            rrcurveto
            0 1 return
          </CharString>
          <CharString index="80">
            vvcurveto
            4 0 return
          </CharString>
          <CharString index="81">
            hhcurveto
            -223 -161 -157 -227 -200 133 -172 238 return
          </CharString>
          <CharString index="82">
            -83 callgsubr
            -6 return
          </CharString>
          <CharString index="83">
            -5 callgsubr
            27 return
          </CharString>
          <CharString index="84">
            -20 0 3 return
          </CharString>
          <CharString index="85">
            -269 -363 -21 1140 -20 hstem
            111 80 vstem
            111 return
          </CharString>
          <CharString index="86">
            hstemhm
            140 33 508 42 -42 55 return
          </CharString>
          <CharString index="87">
            -34 callsubr
            4 return
          </CharString>
          <CharString index="88">
            -4 68 hhcurveto
            60 return
          </CharString>
          <CharString index="89">
            42 3 119 9 33 vhcurveto
            4 27 9 0 39 hhcurveto
            endchar
          </CharString>
          <CharString index="90">
            19 vhcurveto
            9 return
          </CharString>
          <CharString index="91">
            -11 -51 rrcurveto
            0 4 -9 11 vhcurveto
            17 7 11 3 20 3 return
          </CharString>
          <CharString index="92">
            -4 40 -36 5 callsubr
            728 -20 23 -20 25 -20 hstemhm
            return
          </CharString>
          <CharString index="93">
            hhcurveto
            77 204 60 191 158 -97 100 -92 20 hvcurveto
            return
          </CharString>
          <CharString index="94">
            -30 26 callgsubr
            22 20 15 25 return
          </CharString>
          <CharString index="95">
            vhcurveto
            -12 4 -1 180 83 vvcurveto
            return
          </CharString>
          <CharString index="96">
            -4 vvcurveto
            hintmask 11011100
            -9 2 return
          </CharString>
          <CharString index="97">
            7 49 56 1 27 return
          </CharString>
          <CharString index="98">
            -28 callgsubr
            90 return
          </CharString>
          <CharString index="99">
            -23 4 -9 3 return
          </CharString>
          <CharString index="100">
            1 3 -12 hvcurveto
            return
          </CharString>
          <CharString index="101">
            9 -27 callsubr
            return
          </CharString>
          <CharString index="102">
            3 -39 hhcurveto
            return
          </CharString>
          <CharString index="103">
            32 12 24 33 37 20 -43 -40 -32 -12 -24 -32 hvcurveto
            return
          </CharString>
          <CharString index="104">
            -3 -20 23 return
          </CharString>
          <CharString index="105">
            4 callgsubr
            hintmask 01100000
            9 callsubr
            hintmask 10000000
            return
          </CharString>
          <CharString index="106">
            37 rmoveto
            -5 18 -23 36 -25 21 -24 -9 -32 -24 return
          </CharString>
          <CharString index="107">
            -10 -24 -7 -27 -4 rrcurveto
            -11 0 -6 3 -7 vhcurveto
            return
          </CharString>
          <CharString index="108">
            hstemhm
            117 80 243 81 return
          </CharString>
          <CharString index="109">
            -27 -388 59 822 -20 return
          </CharString>
          <CharString index="110">
            3 -4 vhcurveto
            return
          </CharString>
          <CharString index="111">
            3 -44 hhcurveto
            return
          </CharString>
          <CharString index="112">
            -20 33 -21 return
          </CharString>
          <CharString index="113">
            rmoveto
            -141 -93 vlineto
            93 -42 rmoveto
            -24 -1 -18 return
          </CharString>
          <CharString index="114">
            87 hvcurveto
            -12 hlineto
            -61 -87 -87 -105 -71 callgsubr
            return
          </CharString>
          <CharString index="115">
            -44 -63 -3 -21 hhcurveto
            endchar
          </CharString>
          <CharString index="116">
            12 -10 -48 callgsubr
            return
          </CharString>
          <CharString index="117">
            vhcurveto
            0 20 return
          </CharString>
          <CharString index="118">
            4 -4 vhcurveto
            return
          </CharString>
          <CharString index="119">
            -28 callgsubr
            84 259 87 hintmask 01101110
            return
          </CharString>
          <CharString index="120">
            -209 -255 -21 996 -20 23 -20 return
          </CharString>
          <CharString index="121">
            -2 -5 -7 callgsubr
            -5 callgsubr
            return
          </CharString>
          <CharString index="122">
            vlineto
            -194 -3 -94 -7 -40 vhcurveto
            -5 -31 return
          </CharString>
          <CharString index="123">
            hhcurveto
            98 vlineto
            78 0 30 7 43 vhcurveto
            7 return
          </CharString>
          <CharString index="124">
            -2 -88 callgsubr
            return
          </CharString>
          <CharString index="125">
            -20 hstemhm
            hintmask 11000000
            return
          </CharString>
          <CharString index="126">
            0 -4 9 -10 return
          </CharString>
          <CharString index="127">
            hmoveto
            22 8 31 return
          </CharString>
          <CharString index="128">
            -20 hstemhm
            105 79 return
          </CharString>
          <CharString index="129">
            -3 -5 0 return
          </CharString>
          <CharString index="130">
            1 4 4 return
          </CharString>
          <CharString index="131">
            -3 39 hhcurveto
            return
          </CharString>
          <CharString index="132">
            -20 40 680 36 hstem
            64 108 return
          </CharString>
          <CharString index="133">
            -158 -207 -21 1131 -20 hstem
            return
          </CharString>
          <CharString index="134">
            -153 -176 -21 1072 -20 hstem
            return
          </CharString>
          <CharString index="135">
            -223 -152 -21 1077 -20 hstem
            return
          </CharString>
          <CharString index="136">
            -18 -20 12 -27 21 -28 24 -20 rrcurveto
            return
          </CharString>
          <CharString index="137">
            22 -20 28 return
          </CharString>
          <CharString index="138">
            -6 -4 vvcurveto
            return
          </CharString>
          <CharString index="139">
            6 0 5 return
          </CharString>
          <CharString index="140">
            0 vhcurveto
            -22 return
          </CharString>
          <CharString index="141">
            9 -8 3 rrcurveto
            -14 -20 -20 -16 return
          </CharString>
          <CharString index="142">
            -32 rrcurveto
            -12 -45 -79 23 callgsubr
            return
          </CharString>
        <CharString name=".notdef">
          105 endchar
        </CharString>
        <CharString name="A">
          -77 callsubr
          453 -20 -99 callsubr
          endchar
        </CharString>
        <CharString name="AE">
          481 -4 -20 21 -20 23 36 -23 -21 279 34 51 36 293 -9 callgsubr
          hstemhm
          525 87 hintmask 0001111001000000
          -5 17 rmoveto
          0 -2 -4 -5 vvcurveto
          -5 2 -4 4 -7 vhcurveto
          hintmask 0110111001000000
          7 44 48 1 21 19 53 24 callsubr
          1 6 1 5 4 vvcurveto
          9 -2 7 0 -34 -13 0 1 -23 vhcurveto
          6 40 41 79 31 57 34 64 rcurveline
          46 38 2 60 hhcurveto
          47 37 0 -2 32 hvcurveto
          -1 -72 -4 -52 -5 -40 -4 -36 -8 -36 -74 -16 -68 callgsubr
          -4 -4 vvcurveto
          hintmask 0001111001000000
          -60 callsubr
          hintmask 1010111001000000
          5 28 54 3 89 57 72 -4 91 hhcurveto
          60 39 4 3 18 hvcurveto
          8 23 callsubr
          2 8 4 32 callgsubr
          13 -56 callsubr
          -26 -22 1 3 -22 hvcurveto
          -6 32 -1 57 43 vvcurveto
          179 vlineto
          2 17 31 3 40 hhcurveto
          79 62 -7 -2 12 hvcurveto
          11 -66 rlineto
          0 7 -2 8 5 7 1 4 5 vhcurveto
          39 -1 29 19 vvcurveto
          22 2 22 7 40 vhcurveto
          5 -7 -13 1 -11 hhcurveto
          -10 -54 -26 -7 -30 -3 rrcurveto
          -4 -32 -38 -1 -6 callgsubr
          -7 callsubr
          89 3 91 2 40 vhcurveto
          2 25 0 23 5 17 rrcurveto
          4 28 5 0 39 hhcurveto
          80 60 -9 -12 52 hvcurveto
          4 -15 8 -53 7 -40 callsubr
          hintmask 0110110011000000
          4 0 7 -18 vhcurveto
          hintmask 0110111001000000
          -28 -129 -7 -79 hhcurveto
          -152 hlineto
          hintmask 0110110101000000
          -18 -95 -29 callsubr
          -8 0 -3 -4 vvcurveto
          -8 2 -5 0 22 20 0 -4 16 vhcurveto
          -296 -494 -83 -139 -19 -22 -70 -19 rlinecurve
          505 659 rmoveto
          4 3 1 0 3 hhcurveto
          8 8 -33 -61 2 hvcurveto
          2 -61 0 -100 -76 vvcurveto
          -42 vlineto
          -2 -31 -39 0 -42 hhcurveto
          -52 -40 2 1 -36 hvcurveto
          endchar
        </CharString>
        <CharString name="Aacute">
          -77 callsubr
          649 -20 hstemhm
          hintmask 00111000
          535 -89 callgsubr
          208 -652 rmoveto
          6 -18 8 -16 -18 vvcurveto
          -23 -17 -15 -53 -12 vhcurveto
          0 -2 -4 -4 vvcurveto
          -66 callgsubr
          50 56 1 27 15 70 -3 32 hhcurveto
          3 -64 callgsubr
          -3 7 0 -4 -23 callsubr
          -28 vhcurveto
          -16 22 -38 94 -10 22 -230 588 rcurveline
          -16 hlineto
          -247 -560 -61 -138 -14 -23 -70 -19 rlinecurve
          0 -2 -4 -4 vvcurveto
          hintmask 00111000
          -66 callgsubr
          41 48 1 21 19 48 24 callsubr
          hintmask 00111000
          2 32 callsubr
          5 vvcurveto
          hintmask 11011000
          8 -2 7 0 -34 -13 0 1 -23 vhcurveto
          40 27 79 23 57 vhcurveto
          25 64 rlineto
          45 38 3 60 hhcurveto
          52 41 -1 -2 36 hvcurveto
          -129 344 rmoveto
          116 -306 rlineto
          -2 -31 -40 -1 -45 hhcurveto
          -52 -40 3 1 -36 hvcurveto
          endchar
        </CharString>
        <CharString name="Acircumflex">
          -77 callsubr
          640 -20 hstemhm
          hintmask 00111000
          544 761 rmoveto
          17 2 3 18 -71 callgsubr
          -91 86 -73 -40 callgsubr
          156 -738 rmoveto
          6 -18 8 -16 -18 vvcurveto
          -23 -17 -15 -53 -12 vhcurveto
          0 -2 -4 -4 vvcurveto
          -66 callgsubr
          50 56 1 27 15 70 -3 32 hhcurveto
          3 -64 callgsubr
          -3 7 0 -4 -23 callsubr
          -28 vhcurveto
          -16 22 -38 94 -10 22 -230 588 rcurveline
          -16 hlineto
          -247 -560 -61 -138 -14 -23 -70 -19 rlinecurve
          0 -2 -4 -4 vvcurveto
          hintmask 00111000
          -66 callgsubr
          41 48 1 21 19 48 24 callsubr
          hintmask 00111000
          2 32 callsubr
          5 vvcurveto
          hintmask 11011000
          8 -2 7 0 -34 -13 0 1 -23 vhcurveto
          40 27 79 23 57 vhcurveto
          25 64 rlineto
          45 38 3 60 hhcurveto
          52 41 -1 -2 36 hvcurveto
          -129 344 rmoveto
          116 -306 rlineto
          -2 -31 -40 -1 -45 hhcurveto
          -52 -40 3 1 -36 hvcurveto
          endchar
        </CharString>
        <CharString name="Adieresis">
          -77 callsubr
          616 -20 -99 callsubr
          42 495 rmoveto
          -98 callgsubr
          216 hmoveto
          -98 callgsubr
          endchar
        </CharString>
        <CharString name="Agrave">
          -77 callsubr
          649 -20 hstemhm
          hintmask 00111000
          448 -69 callsubr
          -21 -13 -20 -20 -7 -25 rrcurveto
          295 -776 rmoveto
          6 -18 8 -16 -18 vvcurveto
          -23 -17 -15 -53 -12 vhcurveto
          0 -2 -4 -4 vvcurveto
          -66 callgsubr
          50 56 1 27 15 70 -3 32 hhcurveto
          3 -64 callgsubr
          -3 7 0 -4 -23 callsubr
          -28 vhcurveto
          -16 22 -38 94 -10 22 -230 588 rcurveline
          -16 hlineto
          -247 -560 -61 -138 -14 -23 -70 -19 rlinecurve
          0 -2 -4 -4 vvcurveto
          hintmask 00111000
          -66 callgsubr
          41 48 1 21 19 48 24 callsubr
          hintmask 00111000
          2 32 callsubr
          5 vvcurveto
          hintmask 11011000
          8 -2 7 0 -34 -13 0 1 -23 vhcurveto
          40 27 79 23 57 vhcurveto
          25 64 rlineto
          45 38 3 60 hhcurveto
          52 41 -1 -2 36 hvcurveto
          -129 344 rmoveto
          116 -306 rlineto
          -2 -31 -40 -1 -45 hhcurveto
          -52 -40 3 1 -36 hvcurveto
          endchar
        </CharString>
        <CharString name="Aring">
          -77 callsubr
          475 30 139 31 hstemhm
          285 54 102 54 hintmask 00111111
          551 119 rmoveto
          6 -18 8 -16 -18 vvcurveto
          -23 -17 -15 -53 -12 vhcurveto
          0 -2 -4 -4 -87 callsubr
          hintmask 11011111
          7 50 56 1 27 15 70 -3 32 hhcurveto
          3 -64 callgsubr
          -3 7 0 -4 -23 callsubr
          -28 vhcurveto
          -16 22 -38 94 -10 22 -230 588 rcurveline
          -16 hlineto
          -247 -560 -61 -138 -14 -23 -70 -19 rlinecurve
          0 -2 -4 -4 vvcurveto
          hintmask 00111111
          -5 2 -7 4 -5 vhcurveto
          hintmask 11011111
          7 41 48 1 21 19 48 24 callsubr
          hintmask 00111111
          2 32 callsubr
          5 vvcurveto
          hintmask 11011111
          8 -2 7 0 -34 -13 0 1 -23 vhcurveto
          40 27 79 23 57 vhcurveto
          25 64 rlineto
          45 38 3 60 hhcurveto
          52 41 -1 -2 36 hvcurveto
          -129 344 rmoveto
          116 -306 rlineto
          -2 -31 -40 -1 -45 hhcurveto
          -52 -40 3 1 -36 hvcurveto
          260 571 rmoveto
          54 -44 46 -58 vhcurveto
          -62 -10 -46 -28 -62 vvcurveto
          -56 46 -44 57 vhcurveto
          63 9 44 28 63 vvcurveto
          -98 -70 rmoveto
          -36 -22 42 41 -4 callsubr
          endchar
        </CharString>
        <CharString name="Atilde">
          -77 callsubr
          511 62 -32 63 -99 callsubr
          241 507 rmoveto
          13 26 22 20 22 hvcurveto
          14 12 12 10 8 5 -3 11 -7 34 callsubr
          -21 hhcurveto
          hintmask 11010100
          -63 callsubr
          4 -9 2 -5 10 -6 rrcurveto
          14 20 21 14 25 hhcurveto
          hintmask 11011000
          56 43 -30 56 hhcurveto
          endchar
        </CharString>
        <CharString name="B">
          119 0 36 -23 -21 375 37 281 35 3 10 callgsubr
          261 87 -54 54 -54 92 hintmask 1011011000000000
          432 388 rmoveto
          51 13 84 58 96 vvcurveto
          113 -91 52 -121 vhcurveto
          -154 hlineto
          hintmask 0110111000000000
          -18 -95 -48 callsubr
          -9 2 -59 callgsubr
          -33 3 -62 rrcurveto
          3 -61 1 -103 -103 callsubr
          hintmask 1011010010000000
          7 57 214 1 13 hhcurveto
          153 128 69 127 107 -66 65 -107 20 hvcurveto
          -213 -16 rmoveto
          89 2 114 3 41 vhcurveto
          2 25 1 27 4 13 rrcurveto
          4 28 21 0 39 hhcurveto
          hintmask 1011011000000000
          101 60 -49 -93 -98 -63 -41 -97 hvcurveto
          -29 hlineto
          0 -6 -9 -11 -87 callsubr
          42 hlineto
          hintmask 1011010100000000
          107 73 -78 -106 -104 -69 -43 -135 0 callgsubr
          endchar
        </CharString>
        <CharString name="C">
          198 25 callsubr
          vstem
          613 68 rmoveto
          -25 -36 -64 -23 -65 hhcurveto
          -171 -105 -44 callgsubr
          86 63 -35 -33 31 hvcurveto
          4 -15 8 -42 6 -46 rrcurveto
          -2 6 8 -2 8 hhcurveto
          6 6 2 1 5 hvcurveto
          3 69 14 88 8 vvcurveto
          6 -1 2 -4 2 vhcurveto
          9 -28 -101 24 -107 -26 callsubr
          88 90 13 14 50 hvcurveto
          10 2 2 3 1 8 4 44 4 36 13 65 rrcurveto
          10 -13 -11 0 -13 hhcurveto
          -12 -28 -12 -42 -23 -37 rrcurveto
          endchar
        </CharString>
        <CharString name="Ccedilla">
          198 -268 25 223 40 680 36 hstem
          69 108 288 48 vstem
          619 68 rmoveto
          -25 -36 -64 -23 -66 hhcurveto
          -170 -106 -44 callgsubr
          87 62 -35 -33 31 hvcurveto
          4 -15 8 -42 7 -46 rrcurveto
          -2 5 8 -2 8 hhcurveto
          7 5 2 1 5 hvcurveto
          3 69 15 88 8 vvcurveto
          6 -2 2 -4 2 vhcurveto
          9 -28 -101 24 -107 hhcurveto
          -222 -162 -157 -227 -181 110 -159 198 -27 hvcurveto
          -12 -74 -92 callgsubr
          4 49 rlineto
          -1 8 7 0 8 hhcurveto
          88 91 13 14 49 hvcurveto
          11 2 1 3 1 8 4 44 4 36 14 65 rrcurveto
          10 -14 -10 0 -14 hhcurveto
          -12 -28 -12 -42 -22 -37 rrcurveto
          endchar
        </CharString>
        <CharString name="D">
          262 -4 40 -36 5 callsubr
          693 39 -4 -20 23 -28 callgsubr
          88 431 108 hintmask 00110011
          133 352 rmoveto
          -1 -104 -5 -96 -4 -48 -32 callgsubr
          hintmask 01010011
          7 59 112 1 32 hhcurveto
          hintmask 10010011
          -45 callsubr
          hintmask 10001011
          -36 -80 -4 -5 hhcurveto
          -96 hlineto
          hintmask 10000111
          -58 callsubr
          hintmask 10010011
          175 217 -56 callgsubr
          315 vlineto
          -18 callsubr
        </CharString>
        <CharString name="E">
          87 -78 callgsubr
          hstemhm
          133 86 hintmask 01011001
          260 hmoveto
          hintmask 10011001
          29 74 -19 callsubr
          38 4 3 19 hvcurveto
          8 23 callsubr
          1 8 4 32 callgsubr
          14 -29 callgsubr
          -8 3 -8 hhcurveto
          -4 -4 0 -1 -6 hvcurveto
          -13 -36 -11 -40 -21 35 callsubr
          -27 -21 1 3 -23 hvcurveto
          -5 32 -1 57 43 vvcurveto
          179 vlineto
          2 17 31 3 40 hhcurveto
          78 63 -7 -2 12 hvcurveto
          11 -66 rlineto
          0 6 -2 8 6 6 1 4 6 vhcurveto
          39 -2 29 19 vvcurveto
          22 3 22 7 40 vhcurveto
          6 -10 -13 0 -8 hhcurveto
          -11 -54 -25 -7 -31 -3 rrcurveto
          -4 -32 -37 -1 -6 callgsubr
          -7 callsubr
          87 0 134 12 64 vhcurveto
          4 28 5 0 39 hhcurveto
          80 60 -9 -12 52 hvcurveto
          4 -15 8 -53 6 22 callgsubr
          6 5 -1 5 hhcurveto
          7 8 2 4 8 hvcurveto
          4 87 13 69 7 vvcurveto
          hintmask 10010011
          4 0 7 -17 vhcurveto
          hintmask 10011001
          -28 -129 -7 -79 hhcurveto
          -115 hlineto
          hintmask 00110101
          -18 -95 -48 callsubr
          -9 2 -59 callgsubr
          -33 3 -62 rrcurveto
          3 -61 1 -103 -103 callsubr
          hintmask 01011001
          7 45 111 1 11 hhcurveto
          endchar
        </CharString>
        <CharString name="Eacute">
          126 -78 callgsubr
          246 -37 callsubr
          467 -89 callgsubr
          9 -771 rmoveto
          hintmask 1001100110000000
          29 74 -19 callsubr
          38 4 3 19 hvcurveto
          8 23 callsubr
          1 8 4 32 callgsubr
          14 -29 callgsubr
          -8 3 -8 hhcurveto
          -4 -4 0 -1 -6 hvcurveto
          -13 -36 -11 -40 -21 35 callsubr
          -27 -21 1 3 -23 hvcurveto
          -5 32 -1 57 43 vvcurveto
          179 vlineto
          2 17 31 3 40 hhcurveto
          78 63 -7 -2 12 hvcurveto
          11 -66 rlineto
          0 6 -2 8 6 6 1 4 6 vhcurveto
          39 -2 29 19 vvcurveto
          22 3 22 7 40 vhcurveto
          6 -10 -13 0 -8 hhcurveto
          -11 -54 -25 -7 -31 -3 rrcurveto
          -4 -32 -37 -1 -6 callgsubr
          -7 callsubr
          87 0 134 12 64 vhcurveto
          4 28 5 0 39 hhcurveto
          80 60 -9 -12 52 hvcurveto
          4 -15 8 -53 6 22 callgsubr
          6 5 -1 5 hhcurveto
          7 8 2 4 8 hvcurveto
          4 87 13 69 7 vvcurveto
          hintmask 1001001110000000
          4 0 7 -17 vhcurveto
          hintmask 1001100110000000
          -28 -129 -7 -79 hhcurveto
          -115 hlineto
          hintmask 0011010110000000
          -18 -95 -48 callsubr
          -9 2 -59 callgsubr
          -33 3 -62 rrcurveto
          3 -61 1 -103 -103 callsubr
          hintmask 0101100110000000
          7 45 111 1 11 hhcurveto
          endchar
        </CharString>
        <CharString name="Ecircumflex">
          126 -78 callgsubr
          237 -37 callsubr
          507 -81 callgsubr
          -73 -857 rmoveto
          hintmask 1001100110000000
          29 74 -19 callsubr
          38 4 3 19 hvcurveto
          8 23 callsubr
          1 8 4 32 callgsubr
          14 -29 callgsubr
          -8 3 -8 hhcurveto
          -4 -4 0 -1 -6 hvcurveto
          -13 -36 -11 -40 -21 35 callsubr
          -27 -21 1 3 -23 hvcurveto
          -5 32 -1 57 43 vvcurveto
          179 vlineto
          2 17 31 3 40 hhcurveto
          78 63 -7 -2 12 hvcurveto
          11 -66 rlineto
          0 6 -2 8 6 6 1 4 6 vhcurveto
          39 -2 29 19 vvcurveto
          22 3 22 7 40 vhcurveto
          6 -10 -13 0 -8 hhcurveto
          -11 -54 -25 -7 -31 -3 rrcurveto
          -4 -32 -37 -1 -6 callgsubr
          -7 callsubr
          87 0 134 12 64 vhcurveto
          4 28 5 0 39 hhcurveto
          80 60 -9 -12 52 hvcurveto
          4 -15 8 -53 6 22 callgsubr
          6 5 -1 5 hhcurveto
          7 8 2 4 8 hvcurveto
          4 87 13 69 7 vvcurveto
          hintmask 1001001110000000
          4 0 7 -17 vhcurveto
          hintmask 1001100110000000
          -28 -129 -7 -79 hhcurveto
          -115 hlineto
          hintmask 0011010110000000
          -18 -95 -48 callsubr
          -9 2 -59 callgsubr
          -33 3 -62 rrcurveto
          3 -61 1 -103 -103 callsubr
          hintmask 0101100110000000
          7 45 111 1 11 hhcurveto
          endchar
        </CharString>
        <CharString name="Edieresis">
          126 -78 callgsubr
          213 -37 callsubr
          284 hmoveto
          hintmask 1001100110000000
          29 74 -19 callsubr
          38 4 3 19 hvcurveto
          8 23 callsubr
          1 8 4 32 callgsubr
          14 -29 callgsubr
          -8 3 -8 hhcurveto
          -4 -4 0 -1 -6 hvcurveto
          -13 -36 -11 -40 -21 35 callsubr
          -27 -21 1 3 -23 hvcurveto
          -5 32 -1 57 43 vvcurveto
          179 vlineto
          2 17 31 3 40 hhcurveto
          78 63 -7 -2 12 hvcurveto
          11 -66 rlineto
          0 6 -2 8 6 6 1 4 6 vhcurveto
          39 -2 29 19 vvcurveto
          22 3 22 7 40 vhcurveto
          6 -10 -13 0 -8 hhcurveto
          -11 -54 -25 -7 -31 -3 rrcurveto
          -4 -32 -37 -1 -6 callgsubr
          -7 callsubr
          87 0 134 12 64 vhcurveto
          4 28 5 0 39 hhcurveto
          80 60 -9 -12 52 hvcurveto
          4 -15 8 -53 6 22 callgsubr
          6 5 -1 5 hhcurveto
          7 8 2 4 8 hvcurveto
          4 87 13 69 7 vvcurveto
          hintmask 1001001110000000
          4 0 7 -17 vhcurveto
          hintmask 1001100110000000
          -28 -129 -7 -79 hhcurveto
          -115 hlineto
          hintmask 0011010110000000
          -18 -95 -48 callsubr
          -9 2 -59 callgsubr
          -33 3 -62 rrcurveto
          3 -61 1 -103 -103 callsubr
          hintmask 0101100110000000
          7 45 111 1 11 hhcurveto
          5 803 -75 callsubr
          216 hmoveto
          -85 callsubr
        </CharString>
        <CharString name="Egrave">
          126 -78 callgsubr
          246 -37 callsubr
          421 771 rmoveto
          18 1 2 19 -71 callgsubr
          -90 85 -74 77 vhcurveto
          -21 -13 -20 -20 -7 -25 rrcurveto
          55 -895 rmoveto
          hintmask 1001100110000000
          29 74 -19 callsubr
          38 4 3 19 hvcurveto
          8 23 callsubr
          1 8 4 32 callgsubr
          14 -29 callgsubr
          -8 3 -8 hhcurveto
          -4 -4 0 -1 -6 hvcurveto
          -13 -36 -11 -40 -21 35 callsubr
          -27 -21 1 3 -23 hvcurveto
          -5 32 -1 57 43 vvcurveto
          179 vlineto
          2 17 31 3 40 hhcurveto
          78 63 -7 -2 12 hvcurveto
          11 -66 rlineto
          0 6 -2 8 6 6 1 4 6 vhcurveto
          39 -2 29 19 vvcurveto
          22 3 22 7 40 vhcurveto
          6 -10 -13 0 -8 hhcurveto
          -11 -54 -25 -7 -31 -3 rrcurveto
          -4 -32 -37 -1 -6 callgsubr
          -7 callsubr
          87 0 134 12 64 vhcurveto
          4 28 5 0 39 hhcurveto
          80 60 -9 -12 52 hvcurveto
          4 -15 8 -53 6 22 callgsubr
          6 5 -1 5 hhcurveto
          7 8 2 4 8 hvcurveto
          4 87 13 69 7 vvcurveto
          hintmask 1001001110000000
          4 0 7 -17 vhcurveto
          hintmask 1001100110000000
          -28 -129 -7 -79 hhcurveto
          -115 hlineto
          hintmask 0011010110000000
          -18 -95 -48 callsubr
          -9 2 -59 callgsubr
          -33 3 -62 rrcurveto
          3 -61 1 -103 -103 callsubr
          hintmask 0101100110000000
          7 45 111 1 11 hhcurveto
          endchar
        </CharString>
        <CharString name="Eth">
          286 -4 40 -36 5 callsubr
          344 48 301 39 -4 -20 23 -20 hstemhm
          157 88 431 108 hintmask 0011100110000000
          91 384 rmoveto
          -3 -19 -1 -4 -10 -17 rrcurveto
          -11 10 -4 0 vhcurveto
          2 26 23 2 21 hhcurveto
          -2 -96 -4 -88 -4 -45 -32 callgsubr
          hintmask 0101100110000000
          7 59 112 1 32 hhcurveto
          hintmask 1001100110000000
          -45 callsubr
          hintmask 1001010110000000
          -36 -80 -4 -5 hhcurveto
          -96 hlineto
          hintmask 1001001110000000
          -58 callsubr
          -84 vlineto
          hintmask 1001100110000000
          175 301 -56 callgsubr
          164 212 vlineto
          2 16 2 8 10 16 rrcurveto
          9 callsubr
          -8 -81 -53 0 -54 hhcurveto
          -28 103 hlineto
          -18 callsubr
        </CharString>
        <CharString name="Euro">
          -50 -20 67 120 46 58 41 163 34 hstem
          31 207 rmoveto
          -2 -11 -4 -13 -5 -43 callsubr
          59 5 rlineto
          -104 21 64 -81 116 hhcurveto
          35 29 10 2 3 hvcurveto
          102 60 rlineto
          12 -2 4 -4 5 vhcurveto
          -20 -63 -29 -6 -51 hhcurveto
          -73 -42 50 70 -20 hvcurveto
          179 hlineto
          3 12 2 12 6 10 rrcurveto
          10 -8 2 0 vhcurveto
          -6 -79 -40 0 -51 hhcurveto
          -144 105 rmoveto
          -1 -11 -4 -13 -5 -43 callsubr
          6 50 59 0 51 hhcurveto
          170 hlineto
          3 13 3 12 5 11 18 callgsubr
          -7 -80 -44 0 -51 hhcurveto
          -37 hlineto
          79 9 44 84 79 hhcurveto
          59 37 -22 -6 8 hvcurveto
          5 -11 14 -56 2 -12 rrcurveto
          -1 6 4 -2 4 hhcurveto
          5 5 2 2 4 hvcurveto
          2 47 2 39 3 28 rrcurveto
          10 -27 -68 16 -53 hhcurveto
          -20 -160 -26 -171 -36 hvcurveto
          endchar
        </CharString>
        <CharString name="F">
          69 -95 callsubr
          353 36 304 35 3 -20 24 10 callgsubr
          hintmask 00111001
          219 340 rmoveto
          3 17 31 2 40 hhcurveto
          78 63 -6 -3 12 hvcurveto
          11 -65 rlineto
          0 5 -2 7 5 8 2 2 7 vhcurveto
          39 -2 29 19 vvcurveto
          23 3 22 7 40 vhcurveto
          7 -12 -8 0 -11 hhcurveto
          -9 -55 -27 -8 -31 -2 rrcurveto
          -4 -32 -37 -2 -6 callgsubr
          2 2 -12 hvcurveto
          90 2 102 2 40 vhcurveto
          1 25 2 21 5 18 rrcurveto
          4 33 7 0 45 hhcurveto
          80 60 -9 -12 52 hvcurveto
          4 -15 9 -53 6 -40 callsubr
          hintmask 00110011
          4 0 7 -18 vhcurveto
          hintmask 00111001
          -28 -129 -7 -79 hhcurveto
          -128 hlineto
          hintmask 00110101
          -18 -95 -48 callsubr
          -9 2 -53 callsubr
          3 -33 2 -62 rrcurveto
          2 -60 2 -104 -103 callsubr
          hintmask 01011001
          7 55 70 1 14 hhcurveto
          hintmask 10011001
          -22 callgsubr
          -47 1 5 -38 vhcurveto
          -4 42 -4 68 77 vvcurveto
          endchar
        </CharString>
        <CharString name="G">
          255 25 callsubr
          443 74 vstem
          435 700 rmoveto
          93 61 -37 -31 36 hvcurveto
          6 -15 10 -41 10 -45 rrcurveto
          -2 5 -32 callsubr
          100 7 59 5 vvcurveto
          8 -1 1 -6 2 vhcurveto
          8 -29 -99 21 -113 -26 callsubr
          hvcurveto
          98 52 31 115 hhcurveto
          60 3 93 4 39 vhcurveto
          2 26 8 26 32 13 -34 callsubr
          5 7 vvcurveto
          5 -2 7 -2 5 vhcurveto
          -6 -34 -49 -2 -9 -30 -76 3 -54 hhcurveto
          0 -4 -8 -9 vvcurveto
          -6 1 -5 3 -5 vhcurveto
          36 44 -2 -4 34 hvcurveto
          4 -41 2 -20 -75 vvcurveto
          -61 vlineto
          -23 -50 -57 -13 -60 hhcurveto
          -171 -105 -44 callgsubr
          hvcurveto
          endchar
        </CharString>
        <CharString name="H">
          277 -3 callsubr
          28 -15 -21 365 35 300 28 3 -20 25 10 callgsubr
          401 85 hintmask 0011100110000000
          219 352 rmoveto
          1 26 114 4 74 75 53 -5 59 hhcurveto
          -1 -104 -6 -96 -5 -48 -5 -49 -10 -19 -84 -19 -68 callgsubr
          -4 -4 vvcurveto
          -60 callsubr
          hintmask 1101010110000000
          7 59 83 1 32 18 47 24 callsubr
          2 -64 callgsubr
          -2 7 0 -27 -28 0 3 -19 vhcurveto
          -9 1 -3 76 60 vvcurveto
          212 vlineto
          59 6 124 6 53 11 callgsubr
          7 35 61 16 rrcurveto
          hintmask 1101001110000000
          10 0 6 -4 9 vhcurveto
          hintmask 1101100110000000
          -8 -49 -67 0 -26 -2 callgsubr
          -3 -88 callgsubr
          hintmask 1101100110000000
          -9 3 -7 0 27 22 0 -3 -17 callsubr
          -1 3 -76 -60 vvcurveto
          -156 vlineto
          -1 -59 -52 -3 -76 hhcurveto
          -92 -97 3 1 -25 hvcurveto
          2 92 5 87 5 41 rrcurveto
          hintmask 1101010110000000
          4 36 6 35 62 16 rrcurveto
          hintmask 1101001110000000
          12 0 5 -4 8 vhcurveto
          hintmask 1101100110000000
          -8 -50 -66 0 -27 -2 callgsubr
          17 callsubr
          hintmask 0011100110000000
          -24 callsubr
          23 0 -3 18 vhcurveto
          10 -1 2 -76 -60 vvcurveto
          -167 vlineto
          -114 -5 -114 -102 callgsubr
          hintmask 1101100110000000
          7 55 76 1 29 19 41 24 callsubr
          2 -64 callgsubr
          -2 7 0 -27 -23 0 3 -18 vhcurveto
          -10 1 -2 76 60 vvcurveto
          endchar
        </CharString>
        <CharString name="I">
          -78 callsubr
          hstemhm
          133 90 hintmask 00101100
          179 720 rmoveto
          hintmask 00110100
          -22 -64 3 -44 hhcurveto
          17 callsubr
          -5 callgsubr
          32 12 0 -3 23 vhcurveto
          9 -1 8 -80 -144 vvcurveto
          -112 vlineto
          -104 -8 -123 -4 -26 vhcurveto
          -5 -40 -3 -24 -89 -18 -68 callgsubr
          -4 -4 vvcurveto
          -5 1 -8 11 callsubr
          hintmask 01010100
          7 59 81 1 32 hhcurveto
          hintmask 10010100
          -77 callgsubr
          hintmask 00101100
          8 callsubr
        </CharString>
        <CharString name="Iacute">
          -78 callsubr
          253 -9 callsubr
          hintmask 00101110
          335 -89 callgsubr
          36 -51 rmoveto
          hintmask 00110110
          -22 -64 3 -44 hhcurveto
          17 callsubr
          -5 callgsubr
          32 12 0 -3 23 vhcurveto
          9 -1 8 -80 -144 vvcurveto
          -112 vlineto
          -104 -8 -123 -4 -26 vhcurveto
          -5 -40 -3 -24 -89 -18 -68 callgsubr
          -4 -4 vvcurveto
          -5 1 -8 11 callsubr
          hintmask 01010110
          7 59 81 1 32 hhcurveto
          hintmask 10010110
          -77 callgsubr
          hintmask 00101110
          8 callsubr
        </CharString>
        <CharString name="Icircumflex">
          -78 callsubr
          244 -9 callsubr
          hintmask 10001110
          347 -81 callgsubr
          -18 -137 -104 callsubr
          endchar
        </CharString>
        <CharString name="Idieresis">
          -78 callsubr
          220 -9 callsubr
          hintmask 10001110
          179 720 -104 callsubr
          -118 83 rmoveto
          -98 callgsubr
          216 hmoveto
          -98 callgsubr
          endchar
        </CharString>
        <CharString name="Igrave">
          -78 callsubr
          253 -9 callsubr
          hintmask 10001110
          259 -69 callsubr
          -22 -13 -20 -20 -6 -25 rrcurveto
          112 -175 -104 callsubr
          endchar
        </CharString>
        <CharString name="Itilde">
          -78 callsubr
          124 32 -32 63 -27 callgsubr
          90 hintmask 10001011
          179 720 rmoveto
          hintmask 10010011
          21 63 3 44 hhcurveto
          2 -88 callgsubr
          -9 -2 -7 0 -32 -12 0 -3 -23 vhcurveto
          -9 -1 -8 -80 -144 vvcurveto
          -163 vlineto
          -113 6 -156 10 -1 vhcurveto
          -3 26 23 0 39 hhcurveto
          0 2 -7 -9 vvcurveto
          -4 0 -5 -2 -6 vhcurveto
          hintmask 01010011
          -50 -53 3 -24 hhcurveto
          hintmask 00110011
          -32 -81 -1 -7 -59 hvcurveto
          -4 4 -1 8 5 vvcurveto
          4 1 -48 callgsubr
          89 18 3 24 5 40 rrcurveto
          4 26 8 123 104 vvcurveto
          112 vlineto
          144 -8 80 -9 1 vhcurveto
          3 -23 -12 0 -32 hhcurveto
          0 -2 -59 callsubr
          5 2 6 vhcurveto
          hintmask 10001101
          44 64 -3 22 hhcurveto
          72 73 rmoveto
          13 -52 callgsubr
          6 -2 10 -7 -68 callsubr
          -21 hhcurveto
          hintmask 10010011
          -64 -34 31 -53 hhcurveto
          -16 -13 -10 -13 -16 hvcurveto
          -15 -12 -13 -13 -13 callsubr
          -17 callgsubr
        </CharString>
        <CharString name="J">
          13 callsubr
          25 -20 hstemhm
          140 89 hintmask 10101000
          229 395 rmoveto
          61 4 133 6 27 vhcurveto
          5 31 9 48 43 8 -41 callsubr
          4 vvcurveto
          hintmask 10011000
          5 -1 7 -4 5 vhcurveto
          hintmask 11001000
          -8 -44 -60 0 -24 hhcurveto
          hintmask 10101000
          -24 -52 3 -49 hhcurveto
          hintmask 10011000
          -74 callgsubr
          38 20 0 -3 27 vhcurveto
          9 -1 7 -111 -144 vvcurveto
          -266 vlineto
          -155 -4 -121 -85 -87 vhcurveto
          -56 -57 rlineto
          -4 0 -15 18 -4 vhcurveto
          100 76 rlineto
          102 79 14 45 160 vvcurveto
          endchar
        </CharString>
        <CharString name="Jcircumflex">
          13 callsubr
          241 -20 hstemhm
          140 89 hintmask 10111000
          325 761 rmoveto
          18 2 2 18 -71 callgsubr
          -90 86 -74 -40 callgsubr
          53 -773 rmoveto
          -160 -14 -45 -102 -79 vhcurveto
          -100 -76 rlineto
          -18 4 0 15 4 vvcurveto
          56 57 rlineto
          85 87 4 121 155 vvcurveto
          266 vlineto
          144 -7 111 -9 1 vhcurveto
          3 -27 -20 0 -38 hhcurveto
          0 -3 -59 callsubr
          5 3 6 vhcurveto
          hintmask 11011000
          49 52 -3 24 hhcurveto
          24 60 0 8 44 hvcurveto
          4 -5 1 -7 -5 vvcurveto
          hintmask 10111000
          -4 -1 -4 0 vhcurveto
          -43 -8 -9 -48 -5 -31 rrcurveto
          -6 -27 -4 -133 -61 vvcurveto
          endchar
        </CharString>
        <CharString name="K">
          145 -3 callsubr
          -20 713 27 3 -20 25 -9 callsubr
          hintmask 01100100
          183 hmoveto
          hintmask 10010100
          24 62 -3 47 hhcurveto
          1 6 2 5 4 vvcurveto
          9 -3 7 0 -28 -32 0 5 -27 vhcurveto
          -4 42 -2 58 78 vvcurveto
          184 vlineto
          61 5 147 5 26 vhcurveto
          7 31 12 35 52 8 rrcurveto
          hintmask 01001100
          8 0 12 -4 5 vhcurveto
          hintmask 01100100
          -8 -48 -67 0 -26 hhcurveto
          hintmask 01010100
          -22 -46 4 callsubr
          hintmask 01001100
          -74 callgsubr
          32 14 0 -3 23 vhcurveto
          9 -1 8 -76 -144 vvcurveto
          -116 vlineto
          -104 -7 -96 -5 -48 vhcurveto
          -6 -49 -10 -19 -84 -19 -68 callgsubr
          -4 -4 vvcurveto
          -60 callsubr
          8 59 67 0 32 hhcurveto
          297 225 rmoveto
          -59 90 -81 129 0 vvcurveto
          204 180 rlineto
          44 39 60 37 0 vvcurveto
          12 -1 7 -7 6 vhcurveto
          hintmask 01100100
          -2 -24 -25 -3 -22 hhcurveto
          -32 -101 4 0 hvcurveto
          0 -4 -8 -12 vvcurveto
          -4 0 -3 1 -4 vhcurveto
          36 -1 30 -4 12 -7 -27 -56 -57 -62 -42 -39 -130 -123 rcurveline
          -56 40 216 -365 40 hhcurveto
          16 56 15 5 88 hvcurveto
          1 3 0 5 4 vvcurveto
          7 -1 8 -2 4 vhcurveto
          -21 -23 0 2 -17 hvcurveto
          -36 4 -45 54 -87 134 rrcurveto
          endchar
        </CharString>
        <CharString name="L">
          34 -15 callsubr
          132 87 hintmask 00100110
          121 104 rmoveto
          -5 -36 -7 -35 -73 -16 -68 callgsubr
          -4 -4 vvcurveto
          -60 callsubr
          hintmask 01000110
          7 47 109 1 11 hhcurveto
          66 hlineto
          hintmask 10001010
          30 73 -19 callsubr
          39 4 3 18 hvcurveto
          10 1 2 1 2 11 6 44 3 37 12 -56 callsubr
          0 callgsubr
          189 vlineto
          92 8 134 4 41 11 callgsubr
          6 23 60 16 -20 callsubr
          5 vvcurveto
          hintmask 10000110
          5 -2 6 -4 5 vhcurveto
          hintmask 10010010
          -8 -50 -66 0 -26 hhcurveto
          hintmask 10001010
          -19 -39 3 -38 hhcurveto
          hintmask 10000110
          -74 callgsubr
          26 15 0 -3 -17 callsubr
          -1 4 -51 -86 vvcurveto
          -202 vlineto
          -114 -4 -78 -7 -53 vhcurveto
          endchar
        </CharString>
        <CharString name="Lslash">
          61 -15 callsubr
          159 86 hintmask 10001010
          245 380 rmoveto
          91 8 118 4 39 11 callgsubr
          7 23 60 16 -41 callsubr
          5 vvcurveto
          hintmask 10000110
          5 -1 6 -4 5 vhcurveto
          hintmask 10010010
          -8 -51 -65 0 -27 hhcurveto
          hintmask 10001010
          -18 -39 -5 callsubr
          hintmask 00100110
          17 callsubr
          -24 callsubr
          15 0 -3 18 vhcurveto
          10 -1 4 -51 -86 vvcurveto
          -223 vlineto
          -72 -43 rlineto
          -46 vlineto
          -7 2 7 -3 8 hhcurveto
          20 16 12 11 21 15 -1 -74 -3 -53 -5 -40 -5 -36 -7 -35 -73 -16 rrcurveto
          0 -2 -4 -4 -87 callsubr
          hintmask 01000110
          7 46 110 1 10 hhcurveto
          67 hlineto
          hintmask 10000110
          29 74 -19 callsubr
          38 4 3 19 hvcurveto
          9 1 3 1 1 11 6 32 callgsubr
          12 -29 callgsubr
          -7 3 -9 hhcurveto
          -4 -4 0 -1 -6 hvcurveto
          -13 -36 -11 -40 -21 35 callsubr
          -32 -25 1 3 -27 hvcurveto
          -5 32 -2 57 43 vvcurveto
          153 vlineto
          283 168 rlineto
          52 vlineto
          -4 7 -4 1 -8 2 -51 -39 -146 -95 -27 -16 rrcurveto
          endchar
        </CharString>
        <CharString name="M">
          453 -3 callsubr
          28 -27 -21 740 -20 29 -20 24 -20 hstemhm
          155 28 598 95 hintmask 00110011
          229 517 rmoveto
          55 -96 195 -441 0 vvcurveto
          28 hlineto
          44 131 180 365 46 84 8 -164 rcurveline
          4 -77 2 -67 -53 vvcurveto
          -42 -2 -32 -1 -21 vhcurveto
          -4 -51 -7 -17 -84 -19 -68 callgsubr
          -4 -4 vvcurveto
          -60 callsubr
          hintmask 11001011
          7 59 84 1 32 19 46 24 callsubr
          3 -64 callgsubr
          -3 7 0 -27 -34 0 3 -19 vhcurveto
          -11 78 -5 70 -4 100 rrcurveto
          -4 104 -3 93 67 vvcurveto
          30 0 26 2 17 vhcurveto
          2 36 10 36 74 16 rrcurveto
          8 0 8 -5 9 vhcurveto
          hintmask 11010011
          -8 -53 -50 -1 -58 hhcurveto
          -59 -155 -145 -286 -64 -144 -14 25 -97 244 -93 168 rrcurveto
          hintmask 11000111
          117 -66 -40 44 -13 hhcurveto
          hintmask 11001011
          -33 -56 -4 -71 hhcurveto
          hintmask 11000111
          -3 -6 -7 callgsubr
          -5 2 -4 1 -5 vhcurveto
          16 -2 27 -1 13 -5 25 -11 18 -17 16 -20 -4 -327 -17 -161 -7 -51 -5 -36 -10 -35 -72 -16 -68 callgsubr
          -4 -4 vvcurveto
          -60 callsubr
          7 41 54 1 21 21 48 -3 44 hhcurveto
          3 4 0 6 4 -20 callgsubr
          -22 vhcurveto
          -10 64 -2 100 60 vvcurveto
          214 2 58 2 62 10 callsubr
          -33 22 -39 vhcurveto
          endchar
        </CharString>
        <CharString name="N">
          -63 callgsubr
          -21 callsubr
          hintmask 0011000110000000
          140 653 rmoveto
          -4 -328 -12 -170 -7 -51 -5 -36 -9 -35 -72 -16 rrcurveto
          0 -2 -4 -4 -87 callsubr
          7 41 53 1 22 hhcurveto
          hintmask 0101000110000000
          -93 callsubr
          hintmask 1001000110000000
          22 -28 24 10 rlineto
          hintmask 0010100101000000
          -81 callsubr
          hintmask 0011000110000000
          -21 -48 4 callsubr
          hintmask 0010010110000000
          -86 callgsubr
          hintmask 0010001110000000
          2 callgsubr
          hintmask 0010010110000000
          -37 callgsubr
          hintmask 0011000110000000
          -43 callgsubr
          endchar
        </CharString>
        <CharString name="Nacute">
          -63 callgsubr
          240 -20 -21 callsubr
          hintmask 0011000111000000
          563 -89 callgsubr
          -231 -118 rmoveto
          -4 -328 -12 -170 -7 -51 -5 -36 -9 -35 -72 -16 rrcurveto
          0 -2 -4 -4 -87 callsubr
          7 41 53 1 22 hhcurveto
          hintmask 0101000111000000
          -93 callsubr
          hintmask 1001000111000000
          22 -28 24 10 rlineto
          hintmask 0010100110100000
          -81 callsubr
          hintmask 0011000111000000
          -21 -48 4 callsubr
          hintmask 0010010111000000
          -86 callgsubr
          hintmask 0010001111000000
          2 callgsubr
          hintmask 0010010111000000
          -37 callgsubr
          hintmask 0011000111000000
          -43 callgsubr
          endchar
        </CharString>
        <CharString name="Ntilde">
          -63 callgsubr
          102 62 -32 63 -21 callsubr
          hintmask 0011000101100000
          140 653 rmoveto
          -4 -328 -12 -170 -7 -51 -5 -36 -9 -35 -72 -16 rrcurveto
          0 -2 -4 -4 -87 callsubr
          7 41 53 1 22 hhcurveto
          hintmask 0101000101100000
          -93 callsubr
          hintmask 1001000101100000
          22 -28 24 10 rlineto
          hintmask 0010100101010000
          -81 callsubr
          hintmask 0011000101100000
          -21 -48 4 callsubr
          hintmask 0010010101100000
          -86 callgsubr
          hintmask 0010001101100000
          2 callgsubr
          hintmask 0010010101100000
          -37 callgsubr
          hintmask 0011000101100000
          -43 callgsubr
          369 162 rmoveto
          14 -52 callgsubr
          5 -3 11 -6 34 callsubr
          -22 hhcurveto
          hintmask 0011000011100000
          -64 -33 31 -53 hhcurveto
          -16 -14 -11 -13 -16 hvcurveto
          -14 -12 -14 -12 9 callgsubr
          -5 9 -6 rrcurveto
          15 21 20 13 26 hhcurveto
          hintmask 0011000101100000
          56 42 -30 56 hhcurveto
          endchar
        </CharString>
        <CharString name="O">
          -10 callgsubr
          -62 callgsubr
          779 357 -103 callgsubr
          endchar
        </CharString>
        <CharString name="OE">
          530 -12 48 -40 -20 24 36 320 36 291 45 -8 -20 27 -20 hstemhm
          64 100 412 85 hintmask 1001010110000000
          675 720 rmoveto
          hintmask 1001100110000000
          -108 -39 8 -107 hhcurveto
          -21 -336 -35 -336 -212 155 -157 190 hvcurveto
          hintmask 0111001110000000
          126 32 12 82 hhcurveto
          54 hlineto
          29 73 -19 callsubr
          39 4 3 19 hvcurveto
          8 23 callsubr
          1 8 4 32 callgsubr
          13 -29 callgsubr
          -8 3 -8 hhcurveto
          -4 -4 0 -1 -5 hvcurveto
          -13 -36 -11 -40 -21 -32 rrcurveto
          -12 -46 -78 23 callgsubr
          -27 -21 1 3 -23 hvcurveto
          -5 32 -2 57 43 vvcurveto
          179 vlineto
          2 18 30 3 40 hhcurveto
          79 63 -7 -2 12 hvcurveto
          10 -66 rlineto
          0 7 -2 8 5 7 1 4 5 vhcurveto
          39 -1 29 19 vvcurveto
          22 3 22 6 40 vhcurveto
          6 -9 -13 0 -8 hhcurveto
          -11 -54 -25 -7 -31 -3 rrcurveto
          -4 -32 -37 -1 -42 hhcurveto
          -50 -22 -7 callsubr
          87 0 134 12 64 vhcurveto
          4 28 6 0 38 hhcurveto
          80 60 -9 -12 52 hvcurveto
          4 -15 8 -53 7 22 callgsubr
          5 6 -1 5 hhcurveto
          7 8 2 4 8 hvcurveto
          4 87 13 69 -49 callsubr
          7 -17 vhcurveto
          hintmask 1001010110000000
          -28 -130 -7 -78 hhcurveto
          -319 -681 rmoveto
          -165 -111 192 180 hvcurveto
          hintmask 1001100110000000
          142 80 130 153 40 72 0 -18 58 vhcurveto
          2 -17 2 -25 1 -34 rrcurveto
          3 -60 1 17 callgsubr
          -3 -19 -2 -12 -3 -10 rrcurveto
          -12 -25 -39 -12 -52 hhcurveto
          endchar
        </CharString>
        <CharString name="Oacute">
          -10 callgsubr
          217 -20 -62 callgsubr
          545 -45 callgsubr
          426 -414 -103 callgsubr
          endchar
        </CharString>
        <CharString name="Ocircumflex">
          -10 callgsubr
          208 -20 -62 callgsubr
          571 -81 callgsubr
          358 -500 -103 callgsubr
          endchar
        </CharString>
        <CharString name="Odieresis">
          -10 callgsubr
          184 -20 -62 callgsubr
          779 357 -103 callgsubr
          -142 771 rmoveto
          -98 callgsubr
          216 hmoveto
          -98 callgsubr
          endchar
        </CharString>
        <CharString name="Ograve">
          -10 callgsubr
          217 -20 -62 callgsubr
          511 -69 callsubr
          -22 -13 -20 -20 -6 -25 rrcurveto
          460 -538 -103 callgsubr
          endchar
        </CharString>
        <CharString name="Oslash">
          -64 -21 65 -19 callgsubr
          64 -20 -62 callgsubr
          779 357 rmoveto
          126 -56 110 -87 70 vhcurveto
          57 93 -10 13 -14 14 -9 14 rlinecurve
          3 -4 -3 0 -2 hhcurveto
          -4 -4 -1 0 hvcurveto
          -12 -28 -20 -39 -22 -39 rrcurveto
          27 -49 -55 16 -57 hhcurveto
          -21 -343 -36 -343 -129 56 -109 87 -67 hvcurveto
          -56 -95 14 -14 8 -11 10 -13 rlinecurve
          -3 4 4 -1 2 hhcurveto
          4 3 2 0 hvcurveto
          21 46 12 26 19 32 rrcurveto
          -26 49 55 -15 60 hhcurveto
          20 343 35 342 hvcurveto
          -523 -224 rmoveto
          -57 75 -34 104 100 vvcurveto
          145 76 128 158 58 51 -24 -38 43 vhcurveto
          -104 -591 rmoveto
          -59 -52 23 38 -43 hvcurveto
          295 488 rlineto
          56 -73 33 -104 -99 vvcurveto
          -150 -72 -123 -158 vhcurveto
          endchar
        </CharString>
        <CharString name="Otilde">
          -10 callgsubr
          77 63 -32 63 hstemhm
          64 101 512 102 hintmask 11101100
          779 357 -103 callgsubr
          49 781 -55 callsubr
          hintmask 11011100
          -63 callsubr
          3 -9 3 -6 10 -30 callgsubr
          25 hhcurveto
          hintmask 11101100
          -17 callgsubr
        </CharString>
        <CharString name="P">
          95 -95 callsubr
          291 37 365 35 3 10 callgsubr
          284 88 hintmask 00111011
          264 284 rmoveto
          -1 19 18 0 19 hhcurveto
          153 118 69 153 154 -108 61 -154 hvcurveto
          -128 hlineto
          hintmask 00110111
          -18 -95 -48 callsubr
          -9 2 -59 callgsubr
          -37 3 -62 rrcurveto
          3 -61 1 -99 -103 callsubr
          hintmask 01011011
          7 55 70 1 14 hhcurveto
          hintmask 10011011
          -22 callgsubr
          -49 1 5 -39 vhcurveto
          -4 42 -1 16 77 vvcurveto
          123 vlineto
          110 1 160 3 51 vhcurveto
          1 25 1 23 6 17 rrcurveto
          3 28 34 1 39 hhcurveto
          104 67 -89 -104 -104 -83 -68 -104 -19 -20 0 1 -13 -1 callgsubr
          endchar
        </CharString>
        <CharString name="Q">
          -210 -21 211 -19 callgsubr
          -62 callgsubr
          779 357 -91 callsubr
          4 24 3 8 33 vhcurveto
          18 -23 18 -23 19 -20 rrcurveto
          -112 102 63 -44 32 hhcurveto
          19 105 38 10 34 hvcurveto
          12 -2 10 -9 8 vhcurveto
          -8 -35 -34 -4 -10 hhcurveto
          -53 20 -41 16 -82 94 -16 19 -16 19 -16 21 rrcurveto
          98 47 108 94 192 vvcurveto
          -332 -325 rmoveto
          -168 -114 196 184 145 76 128 158 169 109 -197 -183 -150 -72 -123 -158 hvcurveto
          endchar
        </CharString>
        <CharString name="R">
          -38 callsubr
          hstemhm
          133 84 259 87 hintmask 01101100
          201 720 rmoveto
          hintmask 01011100
          -101 callgsubr
          hintmask 10101100
          -93 callgsubr
          hintmask 01101100
          -36 callsubr
          hintmask 10101100
          -86 callsubr
          -37 46 -82 -94 callgsubr
          0 120 4 49 vhcurveto
          2 24 1 20 -55 callgsubr
        </CharString>
        <CharString name="Racute">
          -38 callsubr
          250 12 callsubr
          440 895 rmoveto
          -7 25 -20 20 -21 -13 callgsubr
          -47 -51 -97 callsubr
          -36 46 -83 -94 callgsubr
          0 121 4 48 vhcurveto
          2 24 1 20 -55 callgsubr
        </CharString>
        <CharString name="Rcaron">
          -38 callsubr
          241 12 callsubr
          299 848 rmoveto
          -151 96 rlineto
          -17 -1 -3 -19 -71 callgsubr
          91 -85 73 -78 vhcurveto
          12 hlineto
          73 78 91 85 -71 callgsubr
          -3 19 -17 1 vhcurveto
          -247 -224 -97 callsubr
          -37 46 -82 -94 callgsubr
          2 120 2 49 vhcurveto
          1 23 2 21 -55 callgsubr
        </CharString>
        <CharString name="Rcommaaccent">
          142 -12 callgsubr
          708 32 3 -28 callgsubr
          84 259 87 hintmask 10110110
          420 -72 callgsubr
          -219 860 rmoveto
          hintmask 10101110
          -101 callgsubr
          hintmask 11010110
          -93 callgsubr
          hintmask 10110110
          -36 callsubr
          hintmask 11010110
          -86 callsubr
          -36 46 -83 -94 callgsubr
          2 120 2 49 vhcurveto
          1 23 2 21 -55 callgsubr
        </CharString>
        <CharString name="S">
          77 -20 36 687 33 hstem
          100 96 279 97 vstem
          335 703 rmoveto
          61 53 -34 -9 14 hvcurveto
          6 -15 20 -77 2 -16 rrcurveto
          -3 6 7 -1 7 hhcurveto
          8 4 1 4 8 hvcurveto
          4 58 5 58 8 30 rrcurveto
          14 -33 -86 23 -66 hhcurveto
          -135 -128 -65 -130 -110 93 -49 119 -65 hvcurveto
          75 -41 88 -35 -97 vvcurveto
          -77 -66 -51 -77 -97 -44 45 32 -30 vhcurveto
          -20 30 -24 56 -8 20 rrcurveto
          1 -5 -4 0 -4 hhcurveto
          -9 -10 -4 -5 -10 hvcurveto
          14 -58 12 -57 8 -63 rrcurveto
          -13 31 95 -20 82 hhcurveto
          131 132 68 131 122 -113 67 -90 44 hvcurveto
          -117 57 -56 46 62 vvcurveto
          78 56 48 83 vhcurveto
          endchar
        </CharString>
        <CharString name="T">
          121 -95 callsubr
          693 35 7 -20 hstemhm
          285 99 hintmask 00110100
          216 685 rmoveto
          23 13 0 -5 25 hvcurveto
          6 -17 1 -22 1 -25 rrcurveto
          6 -91 0 -88 -88 -16 callgsubr
          -4 -79 -10 -53 vhcurveto
          -9 -50 -15 -20 -96 -16 -68 callgsubr
          -4 -4 vvcurveto
          -60 callsubr
          hintmask 01010100
          8 71 91 0 17 hhcurveto
          hintmask 10010100
          32 71 -3 61 hhcurveto
          3 4 0 6 4 vvcurveto
          9 -3 8 0 -40 -25 1 6 -39 vhcurveto
          -8 41 -8 75 77 vvcurveto
          179 vlineto
          84 3 88 2 37 vhcurveto
          2 25 0 22 5 17 rrcurveto
          5 24 16 0 23 hhcurveto
          53 52 -8 -14 32 hvcurveto
          4 -15 8 -48 8 22 callgsubr
          5 6 -1 6 hhcurveto
          8 8 1 3 6 hvcurveto
          56 8 61 8 44 vhcurveto
          hintmask 00101100
          4 0 7 -18 vhcurveto
          hintmask 00110100
          -24 -101 -7 -67 hhcurveto
          -245 hlineto
          hintmask 00101100
          -60 -93 7 -23 hhcurveto
          -12 -5 -2 -9 hvcurveto
          -8 -43 0 -56 -8 -56 rrcurveto
          -6 8 10 -2 16 hhcurveto
          44 110 rlineto
          hintmask 00110100
          14 30 53 8 48 hhcurveto
          endchar
        </CharString>
        <CharString name="Thorn">
          66 -3 191 -188 5 callsubr
          159 37 364 36 104 31 -3 -20 hstemhm
          153 90 257 88 hintmask 1000101110000000
          199 720 rmoveto
          hintmask 0011110110000000
          -22 -64 3 -44 hhcurveto
          17 callsubr
          -5 callgsubr
          32 12 0 -3 23 vhcurveto
          9 -1 8 -80 -144 vvcurveto
          -112 vlineto
          -104 -8 -123 -4 -26 vhcurveto
          -5 -40 -15 -24 -64 -18 -68 callgsubr
          -4 -4 vvcurveto
          -5 1 -8 11 callsubr
          hintmask 0101110110000000
          7 55 75 1 29 hhcurveto
          hintmask 1000110110000000
          29 64 -3 60 hhcurveto
          3 -64 callgsubr
          -3 7 0 -49 -31 0 3 -34 vhcurveto
          -10 1 -6 156 113 vvcurveto
          248 vlineto
          3 28 37 0 15 hhcurveto
          120 57 -88 -120 -89 -72 -67 -89 -24 -18 0 1 -17 -1 callgsubr
          hintmask 0011110110000000
          -1 24 15 0 24 hhcurveto
          138 107 69 139 150 -91 79 -150 hvcurveto
          -103 hlineto
          4 65 5 35 7 1 rrcurveto
          3 23 12 0 32 hhcurveto
          0 2 -59 callsubr
          5 -2 6 vhcurveto
          hintmask 1000101110000000
          8 callsubr
        </CharString>
        <CharString name="U">
          -60 callgsubr
          25 -20 hstemhm
          111 104 446 48 hintmask 10101100
          215 296 rmoveto
          171 8 122 4 39 11 callgsubr
          6 23 72 16 -42 callsubr
          hintmask 10011100
          5 -2 7 -4 5 vhcurveto
          hintmask 11001100
          -8 -54 -76 0 -30 hhcurveto
          hintmask 10101100
          -18 -39 -5 callsubr
          hintmask 10011100
          17 callsubr
          hintmask 11001100
          -24 callsubr
          16 0 -3 19 vhcurveto
          5 -98 4 -99 -60 vvcurveto
          -153 vlineto
          -130 37 -169 264 194 94 111 193 149 7 119 4 47 vhcurveto
          hintmask 10101100
          3 36 10 52 71 16 -41 callsubr
          4 vvcurveto
          hintmask 10011100
          5 -1 7 -4 5 vhcurveto
          hintmask 11001100
          -8 -41 -55 0 -21 hhcurveto
          hintmask 10101100
          -22 -52 21 callgsubr
          -4 -7 callgsubr
          hintmask 11001100
          -9 2 -8 0 32 31 0 -3 23 vhcurveto
          10 -74 0 -119 -63 vvcurveto
          -124 vlineto
          -182 -49 -104 -183 -153 -61 110 163 vhcurveto
          endchar
        </CharString>
        <CharString name="Uacute">
          -60 callgsubr
          250 -53 callgsubr
          567 -89 callgsubr
          -160 -475 -105 callgsubr
          endchar
        </CharString>
        <CharString name="Ucircumflex">
          -60 callgsubr
          241 -53 callgsubr
          605 761 rmoveto
          18 2 2 18 -71 callgsubr
          -90 86 -74 -40 callgsubr
          -241 -561 -105 callgsubr
          endchar
        </CharString>
        <CharString name="Udieresis">
          -60 callgsubr
          217 -53 callgsubr
          215 296 -105 callgsubr
          110 507 rmoveto
          -98 callgsubr
          216 hmoveto
          -98 callgsubr
          endchar
        </CharString>
        <CharString name="Ugrave">
          -60 callgsubr
          250 -53 callgsubr
          548 -69 callsubr
          -21 -13 -20 -20 -7 -25 rrcurveto
          -141 -599 -105 callgsubr
          endchar
        </CharString>
        <CharString name="V">
          247 -18 -21 731 28 8 -20 hstemhm
          hintmask 10100000
          384 -39 rmoveto
          17 hlineto
          202 443 51 112 49 115 40 37 rlinecurve
          17 17 19 10 26 8 -42 callsubr
          5 -2 8 -4 4 vhcurveto
          hintmask 11000000
          -8 -50 -38 0 -28 hhcurveto
          -20 -40 1 2 -44 hvcurveto
          hintmask 10100000
          17 callsubr
          hintmask 11000000
          -5 callgsubr
          26 32 0 -4 18 vhcurveto
          -33 -43 -129 -55 -122 vhcurveto
          -134 -296 -122 296 rlineto
          -44 105 -38 130 52 vvcurveto
          1 24 27 0 31 19 callgsubr
          0 2 7 9 vvcurveto
          5 0 4 -2 6 vhcurveto
          hintmask 11000000
          -2 -42 -65 -1 -28 19 callgsubr
          -28 -76 1 7 -56 hvcurveto
          -4 -7 -1 -4 -5 vvcurveto
          -4 1 -5 0 vhcurveto
          27 -7 26 -7 15 -17 35 -40 47 -117 14 -35 rrcurveto
          endchar
        </CharString>
        <CharString name="W">
          550 -18 -21 731 31 -3 -20 28 18 callsubr
          551 380 rmoveto
          -135 -272 -116 296 -41 107 -38 122 -4 58 rlinecurve
          1 24 27 0 31 hhcurveto
          0 2 8 -6 callsubr
          6 -2 4 vhcurveto
          hintmask 10100000
          -2 -55 -51 -1 -28 hhcurveto
          hintmask 10010000
          -28 -76 1 7 -56 hvcurveto
          -4 -4 -1 -8 -5 vvcurveto
          -4 1 -4 0 vhcurveto
          27 -7 28 -8 15 -17 34 -40 47 -118 13 -33 210 -519 rcurveline
          17 hlineto
          179 371 152 -371 rlineto
          17 hlineto
          229 543 15 35 51 104 29 30 rlinecurve
          15 15 10 7 22 8 -41 callsubr
          4 vvcurveto
          5 -1 7 -4 5 vhcurveto
          hintmask 10100000
          -7 -44 -35 -1 -24 hhcurveto
          hintmask 11000000
          -20 -40 1 2 -44 hvcurveto
          -3 -7 -85 callgsubr
          -10 3 -5 0 25 32 0 -4 19 vhcurveto
          -8 -53 -44 -123 -43 -108 -117 -296 rcurveline
          -131 323 58 106 54 102 26 34 rlinecurve
          10 15 8 5 18 6 -28 callsubr
          2 4 vvcurveto
          6 -1 8 -4 5 vhcurveto
          hintmask 10100000
          -4 -38 -30 0 -20 -11 -49 -1 -38 -33 -56 1 -15 hhcurveto
          -22 -64 0 4 -48 hvcurveto
          -3 -5 -1 -7 -5 vvcurveto
          -6 1 -2 0 vhcurveto
          16 -4 20 -6 11 -16 30 -44 44 -116 14 -33 rrcurveto
          29 209 rmoveto
          hintmask 11000000
          0 44 3 35 36 45 -3 0 vhcurveto
          -7 -40 -45 -97 -37 -83 -35 83 -33 93 -3 44 rrcurveto
          endchar
        </CharString>
        <CharString name="X">
          181 0 33 -32 -21 707 33 -21 21 9 -20 24 -20 hstemhm
          hintmask 10100000
          533 527 rmoveto
          88 104 50 54 56 16 -28 callsubr
          6 5 vvcurveto
          5 -1 6 -4 5 vhcurveto
          -8 -68 -31 0 -39 hhcurveto
          -102 hlineto
          -3 -4 -1 -70 callsubr
          -10 4 -8 0 30 14 0 -2 49 vhcurveto
          -43 -94 -45 -50 -61 -76 -38 -47 rcurveline
          -29 49 -28 51 -31 51 rrcurveto
          hintmask 10000100
          106 -64 -53 56 -11 hhcurveto
          hintmask 10001000
          -28 -72 -4 -58 hhcurveto
          -2 -4 -1 31 callsubr
          hintmask 10010000
          -10 3 -6 0 vhcurveto
          62 -4 14 -7 32 -33 25 -26 35 -46 40 -67 37 -63 29 -52 27 -46 -117 -142 rcurveline
          -23 -28 -85 -101 -35 -33 -17 -16 -11 -10 -27 -8 rrcurveto
          -12 0 -4 6 -9 vhcurveto
          8 68 20 0 38 hhcurveto
          102 hlineto
          2 4 0 5 4 vvcurveto
          10 -2 8 0 -31 -7 0 2 -49 vhcurveto
          33 75 47 65 57 75 52 68 rcurveline
          32 -56 32 -53 38 -60 rrcurveto
          hintmask 01100000
          -115 72 52 -52 18 19 callgsubr
          15 64 16 4 81 hvcurveto
          2 5 0 3 5 vvcurveto
          32 callsubr
          -3 7 vhcurveto
          -24 -19 0 1 -17 hvcurveto
          -35 4 -46 32 -82 133 -36 59 -36 60 -34 61 rrcurveto
          endchar
        </CharString>
        <CharString name="Y">
          161 -95 callsubr
          707 30 -9 -20 33 -20 hstemhm
          323 92 hintmask 00100110
          165 733 rmoveto
          hintmask 00110010
          -49 callgsubr
          110 -191 18 -69 rrcurveto
          10 -39 4 -50 -43 vvcurveto
          -30 -3 -32 -4 -20 vhcurveto
          -8 -42 -15 -24 -108 -16 -68 callgsubr
          -4 -4 vvcurveto
          -60 callsubr
          hintmask 01010010
          8 76 98 0 18 hhcurveto
          hintmask 10001010
          -92 callsubr
          hintmask 00100110
          8 callgsubr
        </CharString>
        <CharString name="Yacute">
          161 -95 callsubr
          707 30 -9 -20 33 -20 240 -20 hstemhm
          323 92 hintmask 00100111
          485 -45 callgsubr
          -128 -38 rmoveto
          hintmask 00110011
          -49 callgsubr
          111 -191 17 -69 rrcurveto
          10 -41 4 -48 -43 vvcurveto
          -30 -3 -32 -4 -20 vhcurveto
          -8 -42 -15 -24 -108 -16 -68 callgsubr
          -4 -4 vvcurveto
          -60 callsubr
          hintmask 01010011
          8 76 98 0 18 hhcurveto
          hintmask 10001011
          -92 callsubr
          hintmask 00100111
          8 callgsubr
        </CharString>
        <CharString name="Z">
          175 -1 41 -40 -20 29 -21 693 39 7 -20 26 -20 hstemhm
          hintmask 01010000
          323 hmoveto
          hintmask 10001000
          40 46 -1 98 hhcurveto
          42 79 1 3 19 hvcurveto
          8 23 callsubr
          1 8 7 44 8 44 16 65 rrcurveto
          8 -16 -6 0 -16 hhcurveto
          -16 -33 -16 -33 -24 -32 rrcurveto
          -15 -44 -149 -24 -107 hhcurveto
          -100 hlineto
          131 205 197 283 98 131 14 18 12 18 16 12 rrcurveto
          hintmask 10000100
          10 0 6 -8 10 vhcurveto
          hintmask 10010000
          -10 -76 -81 -3 -69 hhcurveto
          -62 hlineto
          hintmask 10001000
          -105 -140 7 -35 hhcurveto
          -17 0 -7 -4 hvcurveto
          7 -44 8 -63 2 -56 rrcurveto
          -1 6 -32 callsubr
          7 45 8 43 4 14 rrcurveto
          hintmask 00110000
          15 53 97 9 94 hhcurveto
          120 hlineto
          -110 -176 -142 -204 -163 -220 -13 -18 -15 -19 -27 -28 rrcurveto
          -9 0 -7 7 -12 vhcurveto
          hintmask 01010000
          11 84 144 1 47 hhcurveto
          endchar
        </CharString>
        <CharString name="a">
          -51 callgsubr
          hstem
          -23 callgsubr
          vstem
          -106 callgsubr
          -77 -3 -59 -67 callgsubr
          endchar
        </CharString>
        <CharString name="aacute">
          -51 callgsubr
          239 -20 hstem
          -23 callgsubr
          vstem
          -106 callgsubr
          -62 -3 -74 -67 callgsubr
          199 657 -91 callgsubr
        </CharString>
        <CharString name="acircumflex">
          -51 callgsubr
          247 -20 hstem
          -23 callgsubr
          vstem
          -106 callgsubr
          -69 -3 -67 -67 callgsubr
          43 629 -80 callgsubr
        </CharString>
        <CharString name="acute">
          27 568 -21 201 -20 hstem
          387 697 -91 callgsubr
        </CharString>
        <CharString name="adieresis">
          -51 callgsubr
          200 -20 hstem
          -23 callgsubr
          vstem
          135 592 rmoveto
          22 -65 callgsubr
          18 -6 21 -20 28 -23 -83 callsubr
          -18 9 -24 18 -26 -33 callgsubr
          216 hmoveto
          22 -65 callgsubr
          18 -6 21 -20 28 -23 -83 callsubr
          -18 9 -24 18 -26 -33 callgsubr
          41 -472 rmoveto
          -96 callgsubr
        </CharString>
        <CharString name="ae">
          199 -20 60 -60 72 417 40 hstemhm
          47 90 -72 72 174 80 hintmask 01101100
          553 52 rmoveto
          -122 -40 119 98 hvcurveto
          161 19 167 49 0 vvcurveto
          1 4 1 24 callgsubr
          11 -6 7 0 vhcurveto
          -20 1 -4 3 -3 9 rrcurveto
          103 -28 -93 26 -52 hhcurveto
          -46 -12 -49 -22 -39 -42 rrcurveto
          43 -18 -39 33 -69 hhcurveto
          -10 -110 -34 -12 -18 hvcurveto
          -38 -31 -14 -21 -26 vvcurveto
          -20 3 -18 37 22 21 8 5 21 0 23 13 27 vhcurveto
          32 15 57 6 14 hhcurveto
          36 28 -32 -77 hvcurveto
          -83 vlineto
          -130 -26 -66 -32 -24 -14 rrcurveto
          hintmask 10110100
          -23 -12 -21 -34 -44 vvcurveto
          -84 69 -51 39 vhcurveto
          81 16 64 33 61 34 rrcurveto
          -51 35 51 -32 58 hhcurveto
          55 35 12 7 9 hvcurveto
          103 76 rlineto
          -3 16 -13 5 0 vvcurveto
          hintmask 01110100
          -28 -38 -44 -16 -56 hhcurveto
          -389 135 rmoveto
          35 21 38 20 75 12 rrcurveto
          -53 11 -48 18 -42 vhcurveto
          hintmask 10110100
          -22 -34 -64 -35 -42 hhcurveto
          -37 -27 52 28 35 10 21 17 11 hvcurveto
          289 270 rmoveto
          12 16 20 0 10 hhcurveto
          81 37 -101 -5 -4 -1 -2 -4 -1 hvcurveto
          -25 -12 -28 -10 -42 -9 rrcurveto
          -8 -37 -63 -6 -22 hhcurveto
          4 50 14 66 40 30 rrcurveto
          endchar
        </CharString>
        <CharString name="agrave">
          -51 callgsubr
          239 -20 hstem
          -23 callgsubr
          vstem
          -106 callgsubr
          -76 -3 -60 -67 callgsubr
          97 507 -38 callgsubr
        </CharString>
        <CharString name="ampersand">
          269 -20 47 -27 27 682 27 hstemhm
          35 101 -17 82 174 65 hintmask 10101100
          760 35 rmoveto
          -49 8 -68 22 -108 103 14 27 15 29 16 33 39 82 42 146 108 10 -42 callsubr
          5 -2 5 -4 7 vhcurveto
          -5 -32 -62 0 -22 -24 -46 2 -50 hhcurveto
          -2 -4 -2 -5 20 callgsubr
          -8 0 42 30 -6 0 vhcurveto
          -13 -80 -35 -113 -46 -91 -28 27 rcurveline
          -102 97 -176 168 126 vvcurveto
          61 34 33 41 59 40 -46 -54 -37 -11 -19 -24 -25 vhcurveto
          19 -17 rlineto
          6 6 75 40 60 vvcurveto
          68 -71 51 -73 vhcurveto
          -95 -11 -82 -44 -97 vvcurveto
          -49 25 -60 32 -52 vhcurveto
          hintmask 10110100
          -75 -62 -66 -66 -110 vvcurveto
          -125 112 -80 136 vhcurveto
          97 12 57 33 50 66 rrcurveto
          -87 105 68 -24 17 hhcurveto
          hintmask 01110100
          16 51 16 4 88 hvcurveto
          1 4 0 24 callgsubr
          5 -1 7 -1 7 vhcurveto
          -38 -16 1 3 -17 hvcurveto
          -455 -8 rmoveto
          -128 -41 116 85 80 20 31 43 50 hvcurveto
          78 -105 86 -81 93 -86 rrcurveto
          -54 -41 -51 -36 -59 hhcurveto
          endchar
        </CharString>
        <CharString name="aring">
          -51 callgsubr
          44 31 139 30 hstemhm
          47 89 -3 54 102 54 -32 84 hintmask 11110110
          343 653 rmoveto
          55 -44 45 -58 vhcurveto
          -62 -9 -46 -28 -63 vvcurveto
          -56 46 -44 57 vhcurveto
          63 10 44 28 62 vvcurveto
          -98 -69 rmoveto
          -36 -22 41 42 -4 callsubr
          147 -464 rmoveto
          hintmask 11111001
          -96 callgsubr
        </CharString>
        <CharString name="asciicircum">
          -6 369 -21 508 -20 hstem
          263 856 rmoveto
          -83 -167 -65 -153 -75 -171 rrcurveto
          -13 13 11 -4 17 hhcurveto
          200 400 194 -400 rlineto
          17 11 4 13 13 hvcurveto
          -75 171 -65 153 -83 167 rrcurveto
          endchar
        </CharString>
        <CharString name="asciitilde">
          93 315 80 -32 80 hstemhm
          hintmask 10000000
          309 343 rmoveto
          -14 63 64 -14 32 hhcurveto
          20 59 48 38 68 hvcurveto
          -3 12 -5 10 -7 4 rrcurveto
          -18 -40 -27 -14 -32 hhcurveto
          -56 -51 9 11 -47 hvcurveto
          hintmask 01000000
          15 -63 -64 13 -32 hhcurveto
          -20 -60 -48 -39 -68 hvcurveto
          3 -12 5 -9 7 -4 rrcurveto
          17 40 28 15 32 hhcurveto
          57 51 -10 -10 46 hvcurveto
          endchar
        </CharString>
        <CharString name="asterisk">
          -159 501 -21 400 -20 hstem
          260 872 rmoveto
          0 -3 5 -5 3 vhcurveto
          -20 -8 -24 -5 -24 -3 rrcurveto
          -156 vlineto
          -44 32 -41 39 -35 48 rrcurveto
          0 -7 0 -4 -4 vhcurveto
          -4 -22 -6 -22 -10 -23 134 -77 rcurveline
          -50 -20 -54 -15 -58 -5 rrcurveto
          -2 -4 0 -3 -4 vvcurveto
          16 -13 16 -19 14 -20 136 76 rcurveline
          -8 -57 -12 -54 -24 -53 rrcurveto
          0 3 -5 5 -3 vhcurveto
          20 8 24 5 24 3 rrcurveto
          156 vlineto
          43 -33 40 -40 36 -48 rrcurveto
          0 5 0 4 2 vhcurveto
          4 22 8 22 11 23 -135 80 rcurveline
          51 23 55 14 58 7 rrcurveto
          0 3 5 6 vvcurveto
          -17 13 -16 19 -15 20 -135 -78 rcurveline
          6 55 13 55 24 53 rrcurveto
          endchar
        </CharString>
        <CharString name="at">
          342 -193 38 148 38 557 35 hstem
          64 95 128 84 164 89 145 84 vstem
          636 -131 rmoveto
          -17 -55 -49 -7 -65 hhcurveto
          -200 -108 140 200 200 134 203 200 180 96 -111 -180 -157 -68 -109 -37 -25 -26 65 69 19 3 153 8 114 hvcurveto
          2 -1 -4 3 -6 hhcurveto
          -46 -16 -13 -5 -34 -2 -13 -1 rlinecurve
          -20 -2 -200 -47 -232 vvcurveto
          -80 52 -51 44 -8 vhcurveto
          69 35 53 101 30 61 rrcurveto
          -109 5 12 -107 87 hhcurveto
          161 43 53 129 131 vvcurveto
          200 -137 127 -200 -240 -212 -199 -240 -240 159 -137 240 72 56 13 19 56 vhcurveto
          21 -11 9 0 vhcurveto
          -228 222 rmoveto
          -19 -18 33 53 131 60 79 41 5 hvcurveto
          3 24 23 1 30 hhcurveto
          -5 -67 rlineto
          -106 -8 -80 -132 -48 hhcurveto
          endchar
        </CharString>
        <CharString name="atilde">
          -51 callgsubr
          68 63 -32 63 hstemhm
          -23 callgsubr
          hintmask 11101100
          -106 callgsubr
          -64 -3 -72 -67 callgsubr
          115 537 rmoveto
          13 25 23 20 23 hvcurveto
          13 12 12 9 8 6 -2 10 -7 -68 callsubr
          -21 hhcurveto
          hintmask 11011100
          -64 -34 31 -53 hhcurveto
          -16 -13 -11 -13 -16 hvcurveto
          -15 -12 -13 -12 -13 callsubr
          hhcurveto
          hintmask 11101100
          -17 callgsubr
        </CharString>
        <CharString name="b">
          27 -20 43 872 -20 hstem
          100 79 286 84 vstem
          179 376 rmoveto
          27 34 47 36 53 hhcurveto
          74 78 35 callgsubr
          -33 9 9 -24 hvcurveto
          -31 11 -33 13 23 vvcurveto
          181 421 rmoveto
          -49 -16 -82 -45 -50 -29 rrcurveto
          64 2 297 18 105 vhcurveto
          0 -4 10 -11 vhcurveto
          -29 -18 -24 -17 -35 -12 -35 -12 -21 -8 callgsubr
          0 -2 -34 callgsubr
          1 -4 1 -4 vhcurveto
          0 22 -2 13 -2 vhcurveto
          44 -7 8 -33 -84 vvcurveto
          -236 vlineto
          -336 -4 -43 -19 -71 vhcurveto
          0 4 -9 11 vhcurveto
          39 24 rlineto
          -8 37 84 -16 16 -14 callsubr
          endchar
        </CharString>
        <CharString name="backslash">
          -205 -83 -21 964 -20 hstem
          195 387 rmoveto
          -17 59 -87 311 -15 98 rrcurveto
          0 -4 5 -7 -4 -1 0 -1 -3 vhcurveto
          -14 -12 -18 -8 -16 -8 130 -462 rcurveline
          17 -59 87 -313 14 -96 rrcurveto
          0 4 -5 8 3 1 0 1 3 vhcurveto
          15 12 17 8 16 10 rrcurveto
          endchar
        </CharString>
        <CharString name="bar">
          -278 -403 -21 1280 34 callgsubr
          68 rmoveto
          -60 0 -325 -10 -98 vhcurveto
          0 4 -9 10 vhcurveto
          18 7 18 5 18 4 rrcurveto
          772 -57 callgsubr
          -18 -5 -18 -4 rrcurveto
          endchar
        </CharString>
        <CharString name="braceleft">
          26 callsubr
          167 359 rmoveto
          68 40 21 33 0 vvcurveto
          127 20 246 27 24 vhcurveto
          22 20 44 26 0 vvcurveto
          18 -10 10 0 vhcurveto
          -124 -39 -19 -85 -13 -95 -16 -115 rlinecurve
          -12 -85 -8 -67 -60 -58 58 -52 11 -74 11 -85 16 -126 15 -115 18 -94 127 -41 rcurveline
          0 10 11 20 vvcurveto
          0 -42 21 -24 23 vhcurveto
          -28 25 -23 269 135 vvcurveto
          0 -21 43 -68 40 vhcurveto
          endchar
        </CharString>
        <CharString name="braceright">
          26 callsubr
          237 359 rmoveto
          -68 -40 -21 -43 0 vvcurveto
          -135 -23 -269 -28 -25 vhcurveto
          -24 -23 -42 -21 0 vvcurveto
          -20 10 -11 0 vhcurveto
          127 41 19 98 14 111 16 126 rlinecurve
          11 85 11 74 58 52 -60 58 -8 67 -12 85 -16 115 -13 95 -19 85 -124 39 rcurveline
          0 -10 -10 -18 vvcurveto
          0 44 -26 22 -20 vhcurveto
          27 -24 20 -246 -127 vvcurveto
          0 21 -33 68 -40 vhcurveto
          endchar
        </CharString>
        <CharString name="bracketleft">
          27 callsubr
          164 65 vstem
          229 439 rmoveto
          57 0 167 2 53 vhcurveto
          1 45 1 30 42 4 rrcurveto
          23 2 49 4 0 vvcurveto
          2 4 2 24 callgsubr
          8 -4 7 0 vhcurveto
          -63 9 -56 14 -60 24 rrcurveto
          -11 -4 -10 0 hvcurveto
          11 -97 0 -285 -60 vvcurveto
          -168 vlineto
          -60 0 -286 -11 -97 vhcurveto
          0 4 -9 11 vhcurveto
          60 24 56 13 63 9 rrcurveto
          0 4 6 8 vvcurveto
          4 -2 5 -2 4 vhcurveto
          0 -50 3 -22 4 vhcurveto
          -40 6 -2 23 -1 39 rrcurveto
          -3 66 0 164 58 vvcurveto
          endchar
        </CharString>
        <CharString name="bracketright">
          27 callsubr
          177 68 vstem
          180 239 rmoveto
          -58 0 -164 -3 -66 vhcurveto
          -1 -39 -1 -23 -40 -6 rrcurveto
          -23 -4 -49 -3 0 vvcurveto
          -3 -4 -1 -70 callsubr
          -8 4 -6 0 vhcurveto
          62 -9 56 -13 60 -24 rrcurveto
          11 4 9 0 hvcurveto
          -11 97 0 286 60 vvcurveto
          168 vlineto
          60 0 285 11 97 vhcurveto
          0 -4 10 -11 vhcurveto
          -60 -24 -56 -14 -62 -9 rrcurveto
          0 -4 -7 -57 callsubr
          1 -4 3 callsubr
          0 49 -4 23 -2 vhcurveto
          41 -6 2 -28 1 -45 rrcurveto
          1 -54 0 -166 -57 vvcurveto
          endchar
        </CharString>
        <CharString name="brokenbar">
          -278 -394 -21 1271 34 callgsubr
          300 rmoveto
          58 23 rlineto
          41 -57 callgsubr
          -18 -5 -18 -4 rrcurveto
          -1255 vmoveto
          54 23 rlineto
          68 -57 callgsubr
          -14 -5 -18 -4 rrcurveto
          endchar
        </CharString>
        <CharString name="bullet">
          -101 172 -21 261 -20 hstem
          213 151 rmoveto
          51 17 68 57 29 39 -14 47 -44 62 -51 39 -45 -17 -71 -55 -36 -41 21 -54 39 -56 53 -38 rrcurveto
          endchar
        </CharString>
        <CharString name="c">
          -86 -20 67 422 40 hstem
          40 83 1 callgsubr
          -139 73 -121 158 -76 callgsubr
        </CharString>
        <CharString name="ccedilla">
          -86 -268 25 223 -20 509 40 hstem
          40 83 186 48 1 callgsubr
          -124 57 -109 124 -23 hvcurveto
          -12 -73 -92 callgsubr
          4 48 rlineto
          10 hlineto
          -76 callgsubr
        </CharString>
        <CharString name="cedilla">
          -54 -268 25 243 -20 hstem
          329 48 vstem
          244 hmoveto
          -15 -89 -92 callgsubr
          7 68 rlineto
          endchar
        </CharString>
        <CharString name="cent">
          -98 -111 -21 757 -20 hstem
          40 69 124 43 vstem
          233 513 rmoveto
          -69 -21 -124 -67 -178 vvcurveto
          -131 65 -116 127 -17 vhcurveto
          -4 -108 rlineto
          0 4 -7 8 vhcurveto
          12 4 12 4 12 3 rrcurveto
          101 vlineto
          33 3 30 12 4 2 89 66 rcurveline
          -1 14 -8 6 0 vvcurveto
          -30 -58 -29 -13 -49 hhcurveto
          -11 440 hlineto
          47 -7 29 -29 24 -37 rrcurveto
          48 12 9 46 0 vvcurveto
          35 -34 -48 24 -74 hhcurveto
          39 2 28 2 28 vhcurveto
          4 -2 -3 2 -5 hhcurveto
          -12 -4 -14 -4 -12 -2 rrcurveto
          -124 -327 rmoveto
          87 58 100 66 6 vhcurveto
          -432 vlineto
          -85 32 -39 106 101 vvcurveto
          endchar
        </CharString>
        <CharString name="circumflex">
          62 568 -21 209 -20 hstem
          311 669 -80 callgsubr
        </CharString>
        <CharString name="colon">
          -326 1 -21 476 -20 hstem
          111 324 rmoveto
          -84 callgsubr
          -344 vmoveto
          -84 callgsubr
          endchar
        </CharString>
        <CharString name="comma">
          -327 -130 -24 callgsubr
          184 37 rmoveto
          -82 callsubr
          77 44 vvcurveto
          endchar
        </CharString>
        <CharString name="copyright">
          307 -21 45 107 60 357 40 103 45 hstem
          60 53 120 78 445 53 vstem
          60 357 rmoveto
          -209 167 -169 208 208 166 169 209 210 -166 169 -208 -208 -167 -169 -210 vhcurveto
          53 hmoveto
          184 146 150 176 176 145 -150 -184 -184 -145 -149 -176 -176 -146 149 184 vhcurveto
          310 191 rmoveto
          61 21 -11 -14 26 hvcurveto
          2 -10 11 -50 1 -12 rrcurveto
          -2 7 3 0 4 hhcurveto
          5 4 2 1 4 hvcurveto
          4 39 5 49 6 24 rrcurveto
          8 -26 -64 16 -49 hhcurveto
          -21 -194 -29 -204 -119 63 -105 136 35 33 16 1 3 hvcurveto
          84 60 rlineto
          11 -7 6 33 callsubr
          -54 -29 -12 -45 hhcurveto
          -100 -41 100 96 81 49 80 63 hvcurveto
          endchar
        </CharString>
        <CharString name="currency">
          -3 33 -21 471 -20 hstem
          115 66 202 68 vstem
          451 253 rmoveto
          42 -14 37 -24 28 vhcurveto
          27 28 36 36 31 19 -28 callsubr
          2 3 vvcurveto
          1 0 2 -1 1 vhcurveto
          -22 9 -14 7 -19 15 rrcurveto
          0 -43 -52 -32 -39 vhcurveto
          17 -26 -31 11 -35 hhcurveto
          -41 -7 -35 -10 -29 -19 -26 28 -33 37 -16 32 rrcurveto
          0 -2 2 -3 -1 -2 0 -2 -1 vhcurveto
          -11 -20 -8 -14 -14 -19 rrcurveto
          0 45 -43 36 -33 vhcurveto
          -19 -25 -10 -32 -42 vvcurveto
          -44 13 -36 23 -28 vhcurveto
          -27 -27 -41 -39 -35 -19 -68 callgsubr
          -3 -2 vvcurveto
          -2 0 -1 1 -1 vhcurveto
          20 -10 15 -8 18 -14 rrcurveto
          0 52 58 34 36 vhcurveto
          -17 26 32 -9 35 hhcurveto
          39 5 34 11 28 17 27 -27 43 -44 20 -36 -34 callsubr
          -1 3 1 2 0 1 1 vhcurveto
          9 20 8 18 15 18 rrcurveto
          0 -57 48 -38 34 vhcurveto
          22 24 12 33 45 vvcurveto
          -168 -117 rmoveto
          -67 -35 57 68 72 35 38 67 69 31 -58 -68 -64 -28 -45 -72 hvcurveto
          endchar
        </CharString>
        <CharString name="d">
          42 1 -21 487 42 386 -20 hstem
          40 84 291 80 vstem
          515 885 rmoveto
          0 -2 10 -14 vhcurveto
          -34 -23 -14 -9 -39 -14 -37 -12 -19 -4 5 callgsubr
          0 -4 -34 callgsubr
          2 -4 2 -4 vhcurveto
          0 23 -3 13 -1 vhcurveto
          50 -47 callsubr
          -182 vlineto
          4 -28 -72 12 -16 hhcurveto
          -24 -235 -37 -227 -138 95 -108 92 -19 hvcurveto
          65 25 61 28 60 38 rrcurveto
          -51 38 -40 17 vhcurveto
          0 37 28 75 13 vhcurveto
          0 1 4 6 -27 callsubr
          6 -4 7 vhcurveto
          -1 -24 -2 0 -10 hhcurveto
          -37 -4 33 40 -3 hvcurveto
          -2 36 0 47 46 vvcurveto
          287 0 273 20 76 vhcurveto
          -242 -834 rmoveto
          -73 -76 108 124 96 76 88 52 12 151 -23 -44 hvcurveto
          -287 vlineto
          -26 -35 -53 -36 -54 hhcurveto
          endchar
        </CharString>
        <CharString name="dagger">
          -137 -243 -21 725 48 0 50 233 -20 hstemhm
          183 61 hintmask 10111000
          -88 callsubr
          -74 -1045 rmoveto
          13 hlineto
          24 259 rlineto
          173 13 288 0 vhcurveto
          hintmask 11011000
          0 -18 5 -27 -13 -15 -1 -4 -15 vhcurveto
          0 14 -288 -173 vvcurveto
          endchar
        </CharString>
        <CharString name="daggerdbl">
          -137 -282 -21 234 49 244 40 245 50 233 -20 hstem
          185 54 vstem
          -88 callsubr
          -137 -1073 rmoveto
          0 3 -11 9 vhcurveto
          35 12 33 7 39 5 rrcurveto
          0 -20 135 -4 75 vhcurveto
          14 hlineto
          55 100 -19 0 29 0 27 11 44 hvcurveto
          8 -8 1 0 vhcurveto
          -28 -58 -58 -13 -42 hhcurveto
          -81 hlineto
          -55 -100 20 0 -29 0 -28 -10 -43 hvcurveto
          -8 8 -3 0 vhcurveto
          28 57 60 14 40 hhcurveto
          12 hlineto
          -3 -58 -14 -100 -23 -65 rrcurveto
          39 468 rmoveto
          -53 -14 -91 0 vhcurveto
          -4 15 16 -1 13 hhcurveto
          27 17 5 0 hvcurveto
          0 -13 91 53 vvcurveto
          -15 48 rlineto
          112 hlineto
          3 12 1 12 4 12 rrcurveto
          7 -5 2 0 vhcurveto
          -5 -43 -13 0 -59 hhcurveto
          15 48 rlineto
          53 13 91 0 vhcurveto
          0 -17 7 -27 -13 -16 -3 -4 -15 vhcurveto
          0 14 -91 -53 vvcurveto
          13 -48 rlineto
          -111 hlineto
          -2 -12 -2 -12 -4 -12 rrcurveto
          -7 6 -2 0 vhcurveto
          5 46 36 0 31 hhcurveto
          endchar
        </CharString>
        <CharString name="degree">
          -107 419 48 221 48 hstem
          61 76 182 74 vstem
          393 581 rmoveto
          87 -64 68 -89 vhcurveto
          -101 -13 -78 -51 -99 vvcurveto
          -89 68 -65 91 vhcurveto
          100 13 73 49 100 vvcurveto
          -156 -114 rmoveto
          -64 -36 61 67 50 24 43 60 67 31 -64 -65 -51 -27 -41 -55 hvcurveto
          endchar
        </CharString>
        <CharString name="dieresis">
          67 612 -21 117 -20 hstem
          199 591 -94 callsubr
        </CharString>
        <CharString name="divide">
          -30 57 -21 187 60 170 -20 hstem
          257 327 rmoveto
          24 10 35 26 13 17 -9 24 -23 29 -20 20 -24 -10 -32 -26 -18 -18 12 -26 20 -26 22 -20 rrcurveto
          -291 vmoveto
          24 11 35 25 13 17 -9 24 -23 30 -20 20 -24 -11 -32 -25 -18 -19 12 -25 20 -27 22 -20 rrcurveto
          7 247 rmoveto
          61 60 0 9 98 hvcurveto
          0 9 -4 -12 vvcurveto
          -8 -16 -1 -20 -4 -17 rrcurveto
          -214 hlineto
          -61 -57 0 -8 -98 hvcurveto
          0 -9 4 10 vvcurveto
          7 18 2 17 4 19 rrcurveto
          endchar
        </CharString>
        <CharString name="dollar">
          -93 -80 -21 690 -20 hstemhm
          71 77 61 39 -39 47 69 79 hintmask 11110100
          321 447 rmoveto
          3 -10 12 -56 1 -12 rrcurveto
          -1 4 6 -18 callgsubr
          -23 9 -57 15 -47 2 rrcurveto
          23 2 26 2 25 vhcurveto
          0 -2 6 -8 vhcurveto
          -12 -5 -10 -3 -12 -2 rrcurveto
          -72 vlineto
          -70 -8 -76 -39 -91 vvcurveto
          -70 53 -42 44 -21 vhcurveto
          41 -20 rlineto
          -196 vlineto
          -44 5 -32 23 -8 8 -17 21 -9 36 -8 20 rrcurveto
          2 -3 -4 0 -3 hhcurveto
          -8 -5 -3 -4 -7 hvcurveto
          8 -43 8 -53 3 -29 19 -8 56 -12 53 -3 -4 -75 rcurveline
          0 3 -6 8 vhcurveto
          12 5 9 3 12 2 rrcurveto
          72 vlineto
          83 10 73 52 85 vvcurveto
          88 -86 45 -29 14 vhcurveto
          hintmask 11101100
          -33 16 rlineto
          181 vlineto
          37 -5 23 -15 5 -5 rrcurveto
          4 -344 rmoveto
          hintmask 11110100
          -52 -34 -26 -43 -5 vhcurveto
          177 vlineto
          19 -9 58 -27 -58 vvcurveto
          -177 292 rmoveto
          45 28 27 41 5 vhcurveto
          -163 vlineto
          -5 3 rlineto
          -33 16 -31 31 36 vvcurveto
          endchar
        </CharString>
        <CharString name="dotlessi">
          -245 -95 callsubr
          533 -35 callsubr
          hintmask 00111000
          -87 callgsubr
          hintmask 01011000
          7 54 48 1 30 hhcurveto
          hintmask 10011000
          -100 callsubr
          endchar
        </CharString>
        <CharString name="e">
          -31 callgsubr
          -105 callsubr
          endchar
        </CharString>
        <CharString name="eacute">
          -31 callgsubr
          239 -20 -105 callsubr
          175 238 rmoveto
          -11 24 -22 18 -23 9 rrcurveto
          -61 -87 -78 -97 -71 callgsubr
          4 -17 19 vhcurveto
          endchar
        </CharString>
        <CharString name="ecircumflex">
          -31 callgsubr
          247 -20 -105 callsubr
          62 210 -80 callgsubr
        </CharString>
        <CharString name="edieresis">
          -31 callgsubr
          199 -20 -105 callsubr
          -54 132 -94 callsubr
        </CharString>
        <CharString name="egrave">
          -31 callgsubr
          239 -20 -105 callsubr
          119 88 -39 callgsubr
        </CharString>
        <CharString name="eight">
          -66 -20 36 659 32 hstemhm
          36 83 -67 67 234 76 -50 80 hintmask 11011000
          52 525 rmoveto
          -72 76 -52 80 -48 vhcurveto
          hintmask 11100100
          -92 -53 -80 -61 -95 vvcurveto
          -96 108 -68 96 vhcurveto
          115 17 104 56 126 vvcurveto
          88 -83 62 -85 52 vhcurveto
          hintmask 11011000
          88 60 50 42 76 vvcurveto
          85 -96 63 -86 vhcurveto
          -103 -15 -92 -49 -118 vvcurveto
          67 -356 rmoveto
          64 41 51 68 49 vhcurveto
          hintmask 11100100
          75 -49 76 -57 -80 vvcurveto
          -72 -46 -59 -78 -79 -57 71 82 vhcurveto
          hintmask 11101000
          234 370 rmoveto
          -54 -28 -42 -54 -42 vhcurveto
          -86 54 -64 57 55 vvcurveto
          48 40 60 71 69 52 -63 -73 vhcurveto
          endchar
        </CharString>
        <CharString name="ellipsis">
          193 1 -21 144 -20 hstem
          129 -20 rmoveto
          -73 callsubr
          232 hmoveto
          -73 callsubr
          232 hmoveto
          -73 callsubr
          endchar
        </CharString>
        <CharString name="emdash">
          511 217 55 -42 -21 71 -20 hstemhm
          hintmask 10000000
          60 272 rmoveto
          -54 callsubr
          hintmask 10000000
          8 193 154 0 133 hhcurveto
          477 hlineto
          4 18 2 13 -2 callsubr
          -8 -193 -156 0 -133 hhcurveto
          endchar
        </CharString>
        <CharString name="endash">
          103 217 55 -42 -21 72 -20 hstemhm
          hintmask 10000000
          60 272 rmoveto
          -54 callsubr
          hintmask 10000000
          8 113 90 0 73 hhcurveto
          273 hlineto
          4 18 2 14 -2 callsubr
          -9 -113 -92 0 -73 hhcurveto
          endchar
        </CharString>
        <CharString name="equal">
          -3 144 60 -47 -21 187 60 9 -20 hstemhm
          hintmask 10100000
          53 383 rmoveto
          -4 -19 -2 -17 -7 -18 rrcurveto
          -10 9 -4 0 vhcurveto
          -21 callgsubr
          hintmask 10010000
          9 callsubr
          hintmask 10100000
          -9 -97 -73 0 -62 hhcurveto
          -224 -179 rmoveto
          -4 -19 -2 -17 -7 -17 rrcurveto
          hintmask 01100000
          -58 callgsubr
          hintmask 10100000
          -21 callgsubr
          9 callsubr
          -9 -97 -73 0 -62 hhcurveto
          endchar
        </CharString>
        <CharString name="eth">
          29 -20 43 486 -20 318 -20 hstem
          40 99 309 99 vstem
          547 297 rmoveto
          136 -76 156 -119 92 vhcurveto
          -7 4 122 51 rlineto
          0 -2 28 -21 12 vhcurveto
          -139 -61 -53 36 -48 29 -55 27 rlinecurve
          0 -22 -12 -2 -28 vhcurveto
          40 -22 46 -25 42 -33 -113 -48 rcurveline
          0 0 -30 20 -12 vhcurveto
          131 60 36 -36 28 -28 42 -60 20 -61 rlinecurve
          23 -38 -46 14 -41 hhcurveto
          -145 -24 -107 -76 -165 vvcurveto
          -151 108 -113 136 vhcurveto
          163 29 100 66 222 vvcurveto
          -240 -274 rmoveto
          -107 -61 130 130 98 37 79 96 79 57 -39 -30 31 hvcurveto
          5 -35 4 -39 -44 vvcurveto
          -178 -37 -72 -104 vhcurveto
          endchar
        </CharString>
        <CharString name="exclam">
          -227 1 -21 793 -20 hstem
          173 195 rmoveto
          50 569 rlineto
          4 -4 5 -11 vhcurveto
          -43 -26 -38 -23 -42 -15 rrcurveto
          0 -4 -34 callgsubr
          2 -4 1 -4 vhcurveto
          24 -4 rlineto
          25 -5 0 -111 -57 -42 3 -213 -61 vvcurveto
          1 -211 rmoveto
          26 11 36 26 13 19 -9 25 -24 31 -22 20 -24 -11 -34 -26 -19 -20 12 -27 21 -28 24 -20 rrcurveto
          endchar
        </CharString>
        <CharString name="exclamdown">
          -227 -263 -21 793 -20 hstem
          161 295 rmoveto
          -49 -570 rlineto
          -4 4 -5 11 vhcurveto
          44 27 37 22 41 15 rrcurveto
          0 4 5 8 vvcurveto
          4 -1 6 -1 2 vhcurveto
          -24 4 rlineto
          -26 6 0 110 58 41 -2 213 62 vvcurveto
          -2 210 rmoveto
          -25 -10 -36 -27 -13 -19 9 29 callgsubr
          19 20 -12 26 -22 28 -24 20 rrcurveto
          endchar
        </CharString>
        <CharString name="f">
          -210 -95 callsubr
          459 42 320 43 hstemhm
          127 74 hintmask 00111100
          24 493 rmoveto
          -4 -16 0 -4 -7 -14 rrcurveto
          -8 7 -4 0 vhcurveto
          0 57 1 42 vhcurveto
          -33 vlineto
          -120 -3 -148 -8 -56 vhcurveto
          -5 -31 -7 -29 -71 -14 -68 callgsubr
          -4 -4 vvcurveto
          -60 callsubr
          hintmask 01011100
          7 60 60 1 32 hhcurveto
          hintmask 10011100
          -79 callgsubr
          vlineto
          0 62 2 68 -64 callsubr
          26 54 -29 -39 48 hvcurveto
          47 19 5 55 0 vvcurveto
          22 -45 -44 15 -44 hhcurveto
          -23 -205 -25 -240 -17 hvcurveto
          -3 -38 -3 -30 -1 -30 rrcurveto
          endchar
        </CharString>
        <CharString name="fi">
          90 -3 callsubr
          28 -15 -21 457 44 320 43 hstemhm
          127 74 258 76 hintmask 00111110
          535 189 rmoveto
          43 1 219 11 62 vhcurveto
          0 -3 12 -12 vhcurveto
          -27 -12 -26 -8 -26 -2 rrcurveto
          -10 -73 -131 0 -46 hhcurveto
          1 50 4 56 3 29 rrcurveto
          96 10 58 89 46 hhcurveto
          40 51 -21 -89 72 hvcurveto
          51 1 24 49 0 vvcurveto
          71 -43 -92 32 -56 hhcurveto
          -80 callsubr
          49 1 50 vhcurveto
          -33 vlineto
          -120 -3 -148 -8 -56 vhcurveto
          -5 -31 -7 -29 -71 -14 -68 callgsubr
          -4 -4 vvcurveto
          -60 callsubr
          hintmask 11011110
          7 60 60 1 32 -79 callgsubr
          216 vlineto
          38 4 -54 -72 hvcurveto
          -107 vlineto
          -40 0 -67 -6 -18 vhcurveto
          -8 -30 -8 -30 -60 -33 callsubr
          55 48 1 29 16 42 -3 33 hhcurveto
          3 -64 callgsubr
          -3 7 0 -21 -20 -83 callgsubr
          -4 111 46 vvcurveto
          endchar
        </CharString>
        <CharString name="five">
          -89 -288 -21 742 74 50 -20 hstem
          293 92 vstem
          329 429 rmoveto
          66 16 6 9 13 hvcurveto
          1 35 2 13 12 60 rrcurveto
          5 -10 -4 0 -10 hhcurveto
          -8 -12 -4 -12 -8 -9 rrcurveto
          -12 -12 -48 -5 -43 hhcurveto
          -80 -117 5 0 hvcurveto
          -44 -276 rlineto
          122 -47 120 -80 -105 vvcurveto
          -121 -106 -80 -147 -87 vhcurveto
          0 1 -20 11 -5 vhcurveto
          191 93 142 88 168 vvcurveto
          121 -136 90 -145 58 vhcurveto
          17 124 rlineto
          -4 116 38 0 54 hhcurveto
          endchar
        </CharString>
        <CharString name="fl">
          83 -3 callsubr
          28 -15 -21 459 42 320 43 39 -20 hstemhm
          127 74 251 79 hintmask 00111111
          531 416 rmoveto
          155 5 214 16 100 vhcurveto
          6 -4 -4 4 -7 hhcurveto
          -28 -20 -18 -12 -46 -23 rrcurveto
          7 -22 -28 9 -23 hhcurveto
          -80 callsubr
          51 1 48 vhcurveto
          -33 vlineto
          -120 -3 -148 -8 -56 vhcurveto
          -5 -31 -7 -29 -71 -14 -68 callgsubr
          -4 -4 vvcurveto
          -60 callsubr
          hintmask 11011111
          7 60 60 1 32 -79 callgsubr
          vlineto
          0 67 2 63 -64 callsubr
          32 44 -24 -37 46 hvcurveto
          5 -23 0 -28 -26 vvcurveto
          -256 vlineto
          -120 -1 -144 -8 -56 vhcurveto
          -6 -38 -8 -30 -70 -14 rrcurveto
          0 -2 -4 -4 vvcurveto
          hintmask 00111111
          -5 2 -7 4 -5 vhcurveto
          hintmask 11011111
          7 60 56 1 32 21 45 -3 44 hhcurveto
          3 -64 callgsubr
          -3 7 0 -32 -22 0 4 -23 vhcurveto
          -12 3 -1 181 83 vvcurveto
          endchar
        </CharString>
        <CharString name="four">
          -39 -274 -21 292 63 -60 -20 547 -20 hstemhm
          309 74 hintmask 10111000
          493 7 rmoveto
          2 36 8 16 10 61 rrcurveto
          4 -4 -8 3 -4 hhcurveto
          -4 -1 0 -2 -5 hvcurveto
          -7 -20 -7 -13 -6 -11 rrcurveto
          -17 -12 -31 -1 -41 hhcurveto
          193 vlineto
          132 0 71 13 58 vhcurveto
          -12 8 -16 2 -71 callgsubr
          -56 -88 -67 -88 vhcurveto
          -216 -287 -9 -12 -16 -19 -16 -17 rlinecurve
          -9 0 -6 5 -6 vhcurveto
          5 40 86 0 21 hhcurveto
          hintmask 11011000
          16 85 -1 -2 68 hvcurveto
          -92 vlineto
          -121 -16 -73 0 vhcurveto
          -4 6 6 -2 8 hhcurveto
          43 30 32 2 0 vvcurveto
          -4 179 -1 37 43 vvcurveto
          54 1 44 3 12 7 rrcurveto
          -184 361 rmoveto
          -308 -230 vlineto
          endchar
        </CharString>
        <CharString name="g">
          1 -380 48 443 32 305 61 -33 33 3 -20 hstemhm
          25 91 -61 86 -52 87 219 88 -12 80 hintmask 1110010010000000
          483 317 rmoveto
          44 -23 52 -39 35 vhcurveto
          82 -1 40 -2 0 vvcurveto
          5 10 1 10 8 vvcurveto
          hintmask 1100110010000000
          23 -12 16 0 vhcurveto
          -141 -24 rlineto
          hintmask 1101001010000000
          -37 -12 21 -76 hhcurveto
          -67 -149 -53 -159 -88 64 -90 126 -8 hvcurveto
          -86 -42 -23 -13 -27 -16 rrcurveto
          hintmask 1110000110000000
          -17 -11 -3 -4 -6 vvcurveto
          -54 42 -34 52 -19 vhcurveto
          -146 -97 rlineto
          hintmask 1110010001000000
          -8 -6 -4 -5 -9 vvcurveto
          -104 98 -71 114 155 159 92 100 115 -93 23 -61 6 vhcurveto
          -146 15 rlineto
          hintmask 1110000110000000
          -54 5 -21 25 18 vvcurveto
          20 20 12 15 8 vhcurveto
          101 53 120 64 49 49 2 92 rlinecurve
          -202 -649 rmoveto
          hintmask 1110010001000000
          -117 -48 79 37 25 8 14 24 20 hvcurveto
          76 60 55 -3 36 -3 41 -4 rlinecurve
          91 -9 24 -41 -44 vvcurveto
          -75 -70 -56 -120 vhcurveto
          -2 475 rmoveto
          hintmask 1101001010000000
          -78 -60 97 97 74 40 65 78 82 54 -81 -111 -76 -40 -65 -76 hvcurveto
          endchar
        </CharString>
        <CharString name="germandbls">
          107 -20 39 -19 -20 513 -20 340 43 hstemhm
          127 74 87 77 123 71 -16 78 hintmask 01111110
          372 856 rmoveto
          -80 callsubr
          55 1 44 vhcurveto
          -33 vlineto
          -120 -3 -148 -8 -56 vhcurveto
          -5 -31 -7 -29 -71 -14 -68 callgsubr
          -4 -4 vvcurveto
          -60 callsubr
          8 71 76 0 37 hhcurveto
          -12 107 0 109 83 vvcurveto
          194 vlineto
          50 6 54 4 31 vhcurveto
          96 12 56 89 46 hhcurveto
          75 88 -78 -76 hvcurveto
          -138 -200 -5 -147 vvcurveto
          -70 53 -42 44 -21 vhcurveto
          75 -36 rlineto
          hintmask 10111101
          -82 callgsubr
          hintmask 10111110
          128 194 -14 190 vvcurveto
          89 -98 68 -89 vhcurveto
          endchar
        </CharString>
        <CharString name="grave">
          27 568 -21 201 -20 hstem
          371 547 -39 callsubr
        </CharString>
        <CharString name="greater">
          -67 97 -21 384 -20 hstem
          455 252 rmoveto
          32 vlineto
          -224 96 -49 21 -54 22 -73 37 rlinecurve
          0 -8 0 -3 -11 vhcurveto
          -16 -1 -21 -3 -16 vhcurveto
          316 -128 -316 -128 rlineto
          3 -16 1 -21 -16 vvcurveto
          3 -11 8 0 0 vvcurveto
          73 37 53 21 50 22 rrcurveto
          endchar
        </CharString>
        <CharString name="guillemotleft">
          -47 54 -21 430 -20 hstem
          228 241 rmoveto
          73 -61 96 -92 47 -55 rrcurveto
          21 6 20 0 hvcurveto
          -139 195 139 195 rlineto
          0 -6 20 -21 vhcurveto
          -45 -55 -98 -92 -73 -61 rrcurveto
          -195 -14 -66 callsubr
        </CharString>
        <CharString name="guillemotright">
          -47 -70 callgsubr
          194 14 rmoveto
          -73 61 -97 92 -46 55 rrcurveto
          -21 -5 -20 0 hvcurveto
          138 -195 -138 -195 rlineto
          0 5 -20 21 vhcurveto
          47 55 96 92 73 61 rrcurveto
          endchar
        </CharString>
        <CharString name="guilsinglleft">
          -242 54 -21 430 -20 hstem
          33 241 -66 callsubr
        </CharString>
        <CharString name="guilsinglright">
          -242 -70 callgsubr
          endchar
        </CharString>
        <CharString name="h">
          63 -95 callsubr
          447 70 386 21 callsubr
          253 80 hintmask 00111110
          205 885 rmoveto
          -98 callsubr
          -10 -29 -60 -14 -68 callgsubr
          -4 -4 vvcurveto
          -60 callsubr
          hintmask 01011110
          -30 callsubr
          hintmask 10011110
          16 35 -3 33 hhcurveto
          3 -64 callgsubr
          -3 7 0 -21 -19 0 4 -12 vhcurveto
          -12 4 -1 148 83 vvcurveto
          56 1 50 0 vhcurveto
          18 28 63 48 61 -50 callsubr
          hintmask 00111110
          -5 2 -7 4 -5 vhcurveto
          hintmask 01011110
          -31 callsubr
          hintmask 10011110
          -69 callgsubr
          155 4 214 16 100 vhcurveto
          endchar
        </CharString>
        <CharString name="hbar">
          63 -95 callsubr
          447 70 98 60 228 21 callsubr
          253 80 hintmask 00111111
          205 885 rmoveto
          -102 callsubr
          49 -47 callsubr
          -16 -85 vlineto
          -14 -5 -16 -8 -14 vhcurveto
          -58 callgsubr
          33 3 28 1 28 1 rrcurveto
          -186 15 callsubr
          -10 -29 -60 -14 -68 callgsubr
          -4 -4 vvcurveto
          -60 callsubr
          hintmask 01011111
          -30 callsubr
          hintmask 10011111
          16 35 -3 33 hhcurveto
          3 -64 callgsubr
          -3 7 0 -21 -19 0 4 -12 vhcurveto
          -12 4 -1 148 83 vvcurveto
          56 1 50 0 vhcurveto
          19 27 65 47 60 -50 callsubr
          hintmask 00111111
          -5 2 -7 4 -5 vhcurveto
          hintmask 01011111
          -31 callsubr
          hintmask 10011111
          -69 callgsubr
          57 0 67 2 67 vhcurveto
          286 hlineto
          14 6 18 8 12 vhcurveto
          8 -10 8 0 vhcurveto
          -8 -124 -60 0 -77 hhcurveto
          -28 hlineto
          3 89 5 84 9 53 rrcurveto
          endchar
        </CharString>
        <CharString name="hyphen">
          -182 221 54 -42 -21 72 -20 hstemhm
          hintmask 01100000
          56 212 rmoveto
          hintmask 10000000
          9 57 27 0 37 hhcurveto
          143 hlineto
          4 19 3 12 6 17 rrcurveto
          hintmask 01100000
          11 -9 -48 callgsubr
          hintmask 10000000
          -9 -57 -27 0 -37 hhcurveto
          -143 hlineto
          -54 callsubr
          endchar
        </CharString>
        <CharString name="i">
          -245 -95 callsubr
          764 -35 callsubr
          hintmask 00111000
          -87 callgsubr
          hintmask 01011000
          7 54 48 1 30 hhcurveto
          hintmask 10011000
          -100 callsubr
          -25 450 rmoveto
          -76 callsubr
        </CharString>
        <CharString name="iacute">
          -245 -95 callsubr
          756 -35 callsubr
          hintmask 00111000
          -87 callgsubr
          hintmask 01011000
          7 54 48 1 30 hhcurveto
          hintmask 10011000
          -100 callsubr
          87 508 -91 callgsubr
        </CharString>
        <CharString name="icircumflex">
          -245 -95 callsubr
          764 -35 callsubr
          hintmask 00111000
          -87 callgsubr
          hintmask 01011000
          7 54 48 1 30 hhcurveto
          hintmask 10011000
          -100 callsubr
          -55 480 -61 callgsubr
        </CharString>
        <CharString name="idieresis">
          -245 -95 callsubr
          715 -35 callsubr
          hintmask 00111000
          49 589 rmoveto
          23 8 31 26 13 17 -7 21 -20 28 -22 18 -90 callsubr
          -19 9 -24 17 -25 24 -18 rrcurveto
          190 20 callsubr
          26 13 17 -6 21 -20 28 -23 18 -90 callsubr
          -19 9 -24 18 -25 24 -18 rrcurveto
          -39 -400 rmoveto
          43 1 219 11 62 vhcurveto
          0 -3 12 -12 vhcurveto
          -28 -14 -16 -8 -33 -12 -36 -12 -16 -3 -32 -7 31 callgsubr
          -34 callgsubr
          0 -5 3 callsubr
          0 24 -2 13 -1 vhcurveto
          50 -5 1 -44 -79 vvcurveto
          -96 vlineto
          -40 0 -67 -5 -18 vhcurveto
          -8 -30 -8 -30 -60 -14 rrcurveto
          0 -2 -4 -4 -87 callsubr
          hintmask 01011000
          7 54 48 1 30 hhcurveto
          hintmask 10011000
          -100 callsubr
          endchar
        </CharString>
        <CharString name="igrave">
          -245 -95 callsubr
          756 -35 callsubr
          hintmask 00111000
          -87 callgsubr
          hintmask 01011000
          7 54 48 1 30 hhcurveto
          hintmask 10011000
          -100 callsubr
          12 358 -39 callgsubr
        </CharString>
        <CharString name="ij">
          49 -363 -21 381 -20 23 -20 776 -35 callsubr
          228 80 hintmask 10111100
          -87 callgsubr
          7 54 48 1 30 hhcurveto
          hintmask 11011100
          -100 callsubr
          -25 450 rmoveto
          -101 callsubr
          253 -334 rmoveto
          79 -3 44 -49 5 vhcurveto
          -13 2 -24 1 0 vvcurveto
          -3 7 0 24 callgsubr
          8 3 -48 callgsubr
          32 6 16 4 36 11 33 13 23 7 28 15 rrcurveto
          14 0 -10 0 hvcurveto
          -10 -62 -3 -54 callgsubr
          78 77 1 68 256 vvcurveto
          56 558 rmoveto
          -85 callsubr
        </CharString>
        <CharString name="itilde">
          -245 -95 callsubr
          601 63 -32 63 hstemhm
          124 76 hintmask 00110100
          -87 callgsubr
          hintmask 01010100
          7 54 48 1 30 hhcurveto
          hintmask 10010100
          -100 callsubr
          16 404 -55 callsubr
          hintmask 00101100
          -63 callsubr
          4 -9 3 -6 9 -30 callgsubr
          25 hhcurveto
          hintmask 00110100
          -17 callgsubr
        </CharString>
        <CharString name="j">
          -22 callsubr
          305 rmoveto
          79 -3 44 -49 5 vhcurveto
          -14 2 -24 1 0 vvcurveto
          -2 7 0 24 callgsubr
          8 2 -48 callgsubr
          32 6 16 4 36 11 34 13 22 7 28 15 rrcurveto
          15 0 -10 0 hvcurveto
          -11 -62 -2 -54 callgsubr
          77 77 2 68 256 vvcurveto
          56 558 rmoveto
          -76 callsubr
        </CharString>
        <CharString name="jcircumflex">
          -22 callsubr
          81 rmoveto
          -256 -2 -68 -77 -77 vhcurveto
          -44 -44 rlineto
          -4 0 -11 16 -5 vhcurveto
          84 64 rlineto
          87 67 16 70 127 vvcurveto
          245 vlineto
          43 2 215 11 62 vhcurveto
          0 0 10 -15 vhcurveto
          -28 -15 -22 -7 -34 -13 -36 -11 -16 -4 -32 -6 rrcurveto
          0 -2 -50 callgsubr
          0 -4 2 -7 vhcurveto
          0 24 -1 14 -2 vhcurveto
          49 -5 3 -44 -79 vvcurveto
          25 364 -61 callsubr
        </CharString>
        <CharString name="k">
          -23 -3 callsubr
          -20 513 -20 422 21 callsubr
          hintmask 01111000
          384 169 -4 callgsubr
          0 6 -6 8 -99 callgsubr
          hintmask 10111000
          16 35 -3 33 hhcurveto
          3 -64 callgsubr
          -3 7 0 -21 -19 0 4 -12 -12 callsubr
          endchar
        </CharString>
        <CharString name="kcedilla">
          -23 -12 callgsubr
          513 -20 422 21 callsubr
          hintmask 10111100
          352 -72 callgsubr
          32 309 -4 callgsubr
          -1 7 -5 7 -99 callgsubr
          hintmask 11011100
          16 35 -3 33 hhcurveto
          3 -64 callgsubr
          -3 7 0 -21 -19 0 4 -12 -12 callsubr
          endchar
        </CharString>
        <CharString name="kgreenlandic">
          -23 -3 callsubr
          -20 527 -20 76 21 callsubr
          hintmask 01111000
          384 169 rmoveto
          -46 74 -50 89 0 vvcurveto
          239 155 rlineto
          9 0 5 -7 10 vhcurveto
          -3 -25 -26 -1 -22 hhcurveto
          -28 -83 2 0 hvcurveto
          3 callgsubr
          -5 3 -5 vhcurveto
          28 -2 27 -2 20 -4 -35 -36 -32 -24 -41 -31 -98 -72 rcurveline
          -44 30 160 -288 29 hhcurveto
          12 49 16 4 64 hvcurveto
          2 4 0 3 4 vvcurveto
          6 -2 7 -2 5 vhcurveto
          -1 -10 -4 0 -6 hhcurveto
          -7 -7 0 1 -5 hvcurveto
          -27 4 -33 32 -64 104 rrcurveto
          -200 191 rmoveto
          64 1 88 16 41 vhcurveto
          0 -5 10 -11 vhcurveto
          -28 -20 -14 -14 -39 -13 -36 -12 -21 -8 callgsubr
          22 callsubr
          -6 -1 vvcurveto
          -1 0 -7 3 33 callgsubr
          23 -2 13 -1 vhcurveto
          49 -2 0 -19 -19 vvcurveto
          -79 vlineto
          -117 -3 -99 -7 -42 vhcurveto
          -5 -31 -10 -29 -60 -14 -68 callgsubr
          -4 -4 vvcurveto
          -60 callsubr
          -30 callsubr
          hintmask 10111000
          16 35 -3 33 hhcurveto
          3 -64 callgsubr
          -3 7 0 -21 -19 0 4 -12 vhcurveto
          -12 4 -1 189 87 vvcurveto
          endchar
        </CharString>
        <CharString name="l">
          -263 -95 callgsubr
          endchar
        </CharString>
        <CharString name="ldot">
          -193 -95 callgsubr
          133 85 rmoveto
          26 8 33 28 15 19 -7 24 -23 30 -24 19 -22 -8 -35 -27 -17 -20 9 -26 20 -28 25 -19 rrcurveto
          endchar
        </CharString>
        <CharString name="less">
          -67 97 -21 384 -20 hstem
          264 156 rmoveto
          49 -21 54 -22 73 -37 rrcurveto
          0 8 0 3 11 vhcurveto
          16 1 21 3 16 vhcurveto
          -316 128 316 128 rlineto
          -3 16 -1 21 16 vvcurveto
          -3 11 -8 0 0 vvcurveto
          -73 -37 -54 -22 -49 -21 -224 -96 rcurveline
          -32 vlineto
          endchar
        </CharString>
        <CharString name="logicalnot">
          -25 150 -21 162 57 hstem
          423 60 vstem
          53 348 rmoveto
          -4 -19 -2 -14 -7 -18 rrcurveto
          -10 9 -4 0 vhcurveto
          8 87 16 0 56 hhcurveto
          215 -148 hlineto
          18 -4 18 -3 25 callgsubr
          54 0 50 53 vvcurveto
          52 vlineto
          endchar
        </CharString>
        <CharString name="lslash">
          -255 -95 callsubr
          903 -20 hstemhm
          25 167 -79 79 hintmask 00111000
          192 299 rmoveto
          153 vlineto
          92 53 rlineto
          52 vlineto
          8 -4 -5 2 -7 hhcurveto
          -27 -23 -26 -20 -23 -15 3 139 5 156 13 81 rrcurveto
          -102 callsubr
          hintmask 00110100
          49 -47 callsubr
          -211 vlineto
          hintmask 00111000
          -88 -51 rlineto
          -49 vlineto
          -5 3 4 -3 7 hhcurveto
          29 23 21 14 20 12 rrcurveto
          hintmask 00110100
          4 2 rlineto
          -186 -3 -92 -7 -38 vhcurveto
          -5 -31 -9 -29 -69 -14 -68 callgsubr
          -4 -4 vvcurveto
          -60 callsubr
          hintmask 01011000
          7 55 65 1 29 hhcurveto
          hintmask 10011000
          22 44 -3 44 hhcurveto
          2 -64 callgsubr
          -2 7 0 -32 -28 0 4 -18 -12 callsubr
          endchar
        </CharString>
        <CharString name="m">
          353 -3 callsubr
          28 -15 -21 448 69 hstemhm
          117 80 228 78 222 82 hintmask 00111110
          117 321 rmoveto
          -77 0 -109 -5 -44 vhcurveto
          -44 callsubr
          -60 callsubr
          hintmask 11011110
          -10 callsubr
          13 28 -3 28 hhcurveto
          3 4 1 6 4 vvcurveto
          9 -4 8 0 -16 -9 0 3 -11 vhcurveto
          -9 1 -3 80 60 vvcurveto
          57 0 68 4 79 vhcurveto
          28 38 50 36 60 -15 callgsubr
          -8 -29 -60 -14 -68 callgsubr
          -70 callsubr
          hintmask 00111110
          -5 1 -6 4 -5 vhcurveto
          hintmask 11011110
          -10 callsubr
          16 27 -3 33 hhcurveto
          3 -64 callgsubr
          -3 7 0 -23 -5 0 3 -15 vhcurveto
          -12 2 -2 64 103 37 1 79 16 vvcurveto
          15 -1 16 -2 13 vhcurveto
          27 39 52 37 57 -15 callgsubr
          -5 -29 -50 -33 callsubr
          44 51 1 24 16 43 -3 33 hhcurveto
          3 -64 callgsubr
          -3 7 0 -23 -17 -83 callgsubr
          -5 65 103 37 1 79 16 vvcurveto
          104 -41 73 -74 vhcurveto
          -73 -25 -44 -20 -83 -47 rrcurveto
          56 -16 -33 36 -51 hhcurveto
          -73 -25 -36 -17 -85 -48 rrcurveto
          41 -11 -20 49 -13 hhcurveto
          -11 -29 16 callgsubr
          0 -5 11 callsubr
          12 18 1 9 hhcurveto
          49 -1 0 -59 -68 vvcurveto
          endchar
        </CharString>
        <CharString name="macron">
          62 592 60 7 -20 hstemhm
          hintmask 10000000
          161 652 rmoveto
          -4 -19 -2 -9 -7 -17 rrcurveto
          -58 callgsubr
          7 115 104 0 91 hhcurveto
          4 17 1 11 4 callgsubr
          hintmask 01000000
          12 -9 -48 callgsubr
          hintmask 10000000
          -7 -95 -97 0 -118 hhcurveto
          endchar
        </CharString>
        <CharString name="mu">
          46 -260 -21 261 71 458 -20 hstem
          92 80 245 82 vstem
          92 237 rmoveto
          -129 0 -261 45 -128 vhcurveto
          44 8 19 1 52 7 rrcurveto
          9 0 4 -3 11 vhcurveto
          -14 2 -11 6 -11 10 -18 19 -42 95 -4 134 rrcurveto
          -33 20 30 -12 29 hhcurveto
          73 25 58 27 61 39 rrcurveto
          -62 8 32 -29 17 hhcurveto
          24 103 48 0 0 0 15 -8 8 hvcurveto
          -6 -20 -27 -4 -14 hhcurveto
          -27 -9 62 65 hvcurveto
          111 vlineto
          73 1 92 7 53 vhcurveto
          0 -6 8 -9 4 vhcurveto
          -76 -16 rlineto
          0 1 -25 -188 vvcurveto
          -167 vlineto
          -26 -36 -48 -36 -66 hhcurveto
          -95 0 128 41 68 3 155 9 54 hvcurveto
          0 -7 8 -9 4 vhcurveto
          -80 -16 rlineto
          0 4 -92 -164 vvcurveto
          endchar
        </CharString>
        <CharString name="multiply">
          -103 80 -21 360 -20 21 18 callsubr
          412 103 rmoveto
          -67 58 -38 38 -39 40 151 132 rcurveline
          -11 16 -11 13 -4 12 rrcurveto
          7 -5 -5 0 -4 hhcurveto
          -63 -66 -43 -38 -44 -38 rrcurveto
          hintmask 10100000
          -137 143 -16 -12 -12 -9 -12 -7 rlinecurve
          -4 -5 -7 callgsubr
          67 -56 38 -38 38 -39 -151 -128 rcurveline
          11 -16 10 -13 4 -12 rrcurveto
          -7 6 5 0 4 hhcurveto
          61 63 44 37 44 36 139 -145 rcurveline
          16 12 12 9 12 7 rrcurveto
          4 5 0 4 7 vvcurveto
          endchar
        </CharString>
        <CharString name="n">
          69 -95 callsubr
          448 69 1 callsubr
          hintmask 00111100
          199 419 rmoveto
          41 -11 -20 49 -13 hhcurveto
          -11 -29 -22 -12 -88 hvcurveto
          -2 -6 0 -6 -2 vvcurveto
          -2 0 -6 4 -5 vhcurveto
          7 23 1 9 hhcurveto
          49 -1 0 -59 -68 vvcurveto
          -77 0 -109 -5 -44 vhcurveto
          -44 callsubr
          -60 callsubr
          hintmask 01011100
          -10 callsubr
          hhcurveto
          hintmask 10011100
          16 36 -3 33 hhcurveto
          3 6 1 5 4 vvcurveto
          9 -4 7 0 -21 -16 -83 callgsubr
          -3 80 60 vvcurveto
          57 0 68 4 79 vhcurveto
          27 39 52 37 60 hhcurveto
          88 0 -109 -107 -61 -1 -51 -3 -21 hvcurveto
          -44 callsubr
          hintmask 00111100
          -60 callsubr
          hintmask 01011100
          -31 callsubr
          hintmask 10011100
          16 43 -3 33 hhcurveto
          3 6 1 5 4 vvcurveto
          9 -4 7 0 -21 -20 -25 callsubr
          65 103 37 2 79 16 vvcurveto
          104 -44 73 -83 vhcurveto
          -73 -25 -39 -17 -85 -48 rrcurveto
          endchar
        </CharString>
        <CharString name="nacute">
          69 -95 callsubr
          448 69 239 -20 1 callsubr
          hintmask 00111110
          199 419 rmoveto
          41 -11 -20 49 -13 hhcurveto
          -11 -29 -22 -12 -88 hvcurveto
          -2 -6 0 -6 -2 vvcurveto
          -2 0 -6 4 -5 vhcurveto
          7 23 1 9 hhcurveto
          49 -1 0 -59 -68 vvcurveto
          -77 0 -109 -5 -44 vhcurveto
          -44 callsubr
          -60 callsubr
          hintmask 01011110
          -10 callsubr
          hhcurveto
          hintmask 10011110
          16 36 -3 33 hhcurveto
          3 6 1 5 4 vvcurveto
          9 -4 7 0 -21 -16 -83 callgsubr
          -3 80 60 vvcurveto
          57 0 68 4 79 vhcurveto
          27 39 52 37 60 hhcurveto
          88 0 -109 -107 -61 -1 -51 -3 -21 hvcurveto
          -44 callsubr
          hintmask 00111110
          -60 callsubr
          hintmask 01011110
          -31 callsubr
          hintmask 10011110
          16 43 -3 33 hhcurveto
          3 6 1 5 4 vvcurveto
          9 -4 7 0 -21 -20 -25 callsubr
          65 103 37 2 79 16 vvcurveto
          104 -44 73 -83 vhcurveto
          -73 -25 -39 -17 -85 -48 rrcurveto
          296 278 -91 callgsubr
        </CharString>
        <CharString name="nine">
          14 -278 -21 387 39 358 39 hstem
          47 88 277 97 vstem
          509 211 rmoveto
          181 -85 132 -136 vhcurveto
          -131 -21 -110 -71 -151 vvcurveto
          -101 82 -92 110 40 36 4 28 45 vhcurveto
          9 -1 10 -12 6 vhcurveto
          -12 -27 -19 -6 -26 hhcurveto
          -92 -48 108 86 83 40 81 86 112 39 -136 -140 -177 -41 -96 -46 -59 hvcurveto
          -56 -73 -54 -35 -76 -42 rrcurveto
          -12 0 -3 10 -11 vhcurveto
          66 23 71 42 65 62 rrcurveto
          105 100 53 160 123 vvcurveto
          endchar
        </CharString>
        <CharString name="ntilde">
          69 -95 callsubr
          448 69 84 63 -32 63 1 callsubr
          hintmask 00111011
          199 419 rmoveto
          41 -11 -20 49 -13 hhcurveto
          -11 -29 -22 -12 -88 hvcurveto
          -2 -6 0 -6 -2 vvcurveto
          -2 0 -6 4 -5 vhcurveto
          7 23 1 9 hhcurveto
          49 -1 0 -59 -68 vvcurveto
          -77 0 -109 -5 -44 vhcurveto
          -44 callsubr
          -60 callsubr
          hintmask 01011011
          -10 callsubr
          hhcurveto
          hintmask 10011011
          16 36 -3 33 hhcurveto
          3 6 1 5 4 vvcurveto
          9 -4 7 0 -21 -16 -83 callgsubr
          -3 80 60 vvcurveto
          57 0 68 4 79 vhcurveto
          27 39 52 37 60 hhcurveto
          88 0 -109 -107 -61 -1 -51 -3 -21 hvcurveto
          -44 callsubr
          hintmask 00111011
          -60 callsubr
          hintmask 01011011
          -31 callsubr
          hintmask 10011011
          16 43 -3 33 hhcurveto
          3 6 1 5 4 vvcurveto
          9 -4 7 0 -21 -20 -25 callsubr
          65 103 37 2 79 16 vvcurveto
          104 -44 73 -83 vhcurveto
          -73 -25 -39 -17 -85 -48 rrcurveto
          186 174 -75 callgsubr
          hintmask 00110111
          -79 callsubr
          hintmask 00111011
          56 42 -31 56 hhcurveto
          endchar
        </CharString>
        <CharString name="numbersign">
          10 -11 -21 159 52 137 52 139 -20 hstem
          354 53 vstem
          399 127 rmoveto
          113 hlineto
          4 17 1 12 -36 callgsubr
          -43 -4 -37 -3 -33 -1 9 136 rcurveline
          100 hlineto
          4 17 1 12 -36 callgsubr
          -36 -4 -31 -2 -32 -2 6 40 5 7 callgsubr
          -14 -2 -19 -4 -9 -125 rcurveline
          -135 hlineto
          4 41 7 7 callgsubr
          -15 -2 -18 -4 -10 -125 rcurveline
          -113 hlineto
          -4 -19 -3 -9 -6 -16 rrcurveto
          -58 callgsubr
          43 4 37 3 33 1 -9 -138 rcurveline
          -100 hlineto
          -4 -19 -3 -9 -6 -16 rrcurveto
          -58 callgsubr
          4 36 33 3 31 hhcurveto
          -4 -47 -5 -52 -16 callsubr
          10 147 rcurveline
          136 hlineto
          -4 -47 -5 -53 -16 callsubr
          rrcurveto
          -176 198 rmoveto
          12 138 rlineto
          135 hlineto
          -10 -138 rlineto
          endchar
        </CharString>
        <CharString name="o">
          -41 callgsubr
          hstem
          -35 callgsubr
          vstem
          -104 callgsubr
          endchar
        </CharString>
        <CharString name="oacute">
          -41 callgsubr
          239 -20 hstem
          -35 callgsubr
          vstem
          -104 callgsubr
          118 674 -91 callgsubr
        </CharString>
        <CharString name="ocircumflex">
          -41 callgsubr
          247 -20 hstem
          -35 callgsubr
          vstem
          -104 callgsubr
          -17 646 -61 callsubr
        </CharString>
        <CharString name="odieresis">
          -41 callgsubr
          199 -20 hstem
          -35 callgsubr
          vstem
          -104 callgsubr
          -133 568 -75 callsubr
          216 hmoveto
          -85 callsubr
        </CharString>
        <CharString name="oe">
          361 -20 43 -43 72 415 42 hstemhm
          40 92 325 78 hintmask 10111000
          665 509 rmoveto
          -60 -14 -66 -34 -43 -62 rrcurveto
          66 -44 -72 44 -81 hhcurveto
          -150 -24 -109 -76 -165 vvcurveto
          -151 111 -113 140 vhcurveto
          84 15 70 30 46 58 rrcurveto
          -64 36 60 -39 69 hhcurveto
          57 36 12 7 10 hvcurveto
          108 76 rlineto
          -6 18 -10 3 0 vvcurveto
          hintmask 01111000
          -28 -40 -46 -16 -60 hhcurveto
          -125 -45 121 107 hvcurveto
          169 16 176 41 0 vvcurveto
          1 4 2 24 callgsubr
          11 -7 7 0 vhcurveto
          -21 1 -4 3 -3 9 rrcurveto
          103 -29 -99 26 -55 hhcurveto
          hintmask 10111000
          -352 -486 rmoveto
          -113 -68 130 130 101 43 83 104 113 65 -131 -129 -104 -40 -80 -104 hvcurveto
          335 446 rmoveto
          85 40 -101 -5 -3 -1 -1 -4 -2 hvcurveto
          -27 -9 -29 -7 -44 -8 rrcurveto
          -6 -37 -68 -6 -24 hhcurveto
          4 47 14 60 46 31 rrcurveto
          10 16 21 0 8 hhcurveto
          endchar
        </CharString>
        <CharString name="ograve">
          -41 callgsubr
          239 -20 hstem
          -35 callgsubr
          vstem
          -104 callgsubr
          30 524 -39 callsubr
        </CharString>
        <CharString name="one">
          -230 -95 callsubr
          539 -28 callgsubr
          75 hintmask 00111000
          208 269 rmoveto
          143 0 40 24 57 vhcurveto
          0 -3 15 -18 7 vhcurveto
          -34 -27 -14 -11 -24 -12 -40 -20 -28 -8 -52 -17 rrcurveto
          -2 -4 0 -4 -4 vvcurveto
          -13 7 -10 0 vhcurveto
          107 14 rlineto
          2 -48 0 -34 -61 vvcurveto
          -37 0 -139 -12 -29 vhcurveto
          -9 -24 -37 -12 -62 -14 -68 callgsubr
          -4 -5 vvcurveto
          -5 1 -7 11 callsubr
          hintmask 01011000
          7 63 68 1 35 hhcurveto
          hintmask 10011000
          25 41 -3 51 hhcurveto
          hintmask 00111000
          1 6 2 5 5 vvcurveto
          7 -2 4 -1 5 vhcurveto
          -39 -16 0 3 -28 hvcurveto
          -9 1 0 126 110 vvcurveto
          endchar
        </CharString>
        <CharString name="onehalf">
          126 -7 -21 27 -20 21 48 289 42 349 -20 hstemhm
          93 62 418 72 hintmask 10111110
          96 5 rmoveto
          11 -10 13 -8 9 -12 rrcurveto
          -3 3 3 0 1 hhcurveto
          5 2 -11 callgsubr
          286 17 30 -65 callsubr
          -6 -2 -3 0 hvcurveto
          -36 -73 -137 -250 -19 -34 rrcurveto
          -215 -16 -97 callgsubr
          392 -304 rmoveto
          99 117 rlineto
          47 55 19 28 36 vvcurveto
          71 -57 24 -61 vhcurveto
          -112 -32 rlineto
          -6 6 callgsubr
          3 5 -1 3 hhcurveto
          2 14 callgsubr
          26 5 22 hhcurveto
          36 20 -26 -35 -41 -31 -49 -47 -53 hvcurveto
          -103 27 callgsubr
          118 hlineto
          hintmask 01111110
          25 36 -1 13 hhcurveto
          47 7 4 5 10 hvcurveto
          2 29 0 24 6 36 callgsubr
          -13 -40 rlineto
          -9 -3 -23 -4 -58 hhcurveto
          endchar
        </CharString>
        <CharString name="onequarter">
          62 -7 -21 28 135 -41 41 593 -20 hstem
          93 62 321 60 vstem
          96 5 rmoveto
          11 -10 13 -8 9 -12 rrcurveto
          -3 3 3 0 1 hhcurveto
          5 2 -11 callgsubr
          286 17 30 -65 callsubr
          -6 -2 -3 0 hvcurveto
          -36 -73 -137 -250 -19 -34 rrcurveto
          -215 -16 -97 callgsubr
          388 -76 6 callsubr
          -2 -6 vhcurveto
          -2 0 callsubr
          154 hlineto
          3 7 0 2 3 vvcurveto
          5 0 4 -3 7 vhcurveto
          -24 -4 0 3 -13 28 callgsubr
          1 14 0 28 7 30 rrcurveto
          6 -7 -4 1 -10 hhcurveto
          -11 -27 rlineto
          -13 -5 -14 -5 -13 16 callsubr
          -10 -8 2 -8 hhcurveto
          -174 15 callgsubr
          1 -7 6 -5 11 callgsubr
          25 0 9 hhcurveto
          endchar
        </CharString>
        <CharString name="onesuperior">
          -335 325 -21 381 -20 hstem
          93 62 vstem
          88 352 -97 callgsubr
          endchar
        </CharString>
        <CharString name="ordfeminine">
          -226 470 -21 286 -20 hstem
          64 51 81 59 vstem
          253 524 rmoveto
          43 2 78 12 vvcurveto
          38 -22 40 -61 -5 -63 -19 -7 -11 vhcurveto
          -22 -17 -7 -11 -14 vvcurveto
          -15 1 -15 27 16 13 4 3 12 0 15 7 17 vhcurveto
          20 7 26 5 7 hhcurveto
          15 13 -17 -41 hvcurveto
          -52 vlineto
          -71 -14 -34 -14 -14 -7 rrcurveto
          -12 -7 -12 -17 -23 vvcurveto
          -44 39 -28 21 vhcurveto
          35 11 24 13 25 16 2 -17 12 -17 18 -6 3 2 21 9 47 5 rrcurveto
          12 -1 6 -2 4 vhcurveto
          -6 -8 -2 -4 hhcurveto
          -22 -4 23 16 hvcurveto
          -110 -36 rmoveto
          -16 -12 25 11 16 4 8 8 5 hvcurveto
          16 11 17 8 36 5 rrcurveto
          -60 vlineto
          -12 -12 -25 -17 -16 hhcurveto
          endchar
        </CharString>
        <CharString name="ordmasculine">
          -174 449 27 233 27 hstem
          49 64 160 66 vstem
          339 592 rmoveto
          80 -63 64 -80 vhcurveto
          -85 -13 -62 -42 -89 vvcurveto
          -81 63 -62 79 vhcurveto
          85 14 63 40 89 vvcurveto
          -136 -116 rmoveto
          -56 -34 67 70 55 20 41 52 58 30 -68 -69 -56 -18 -40 -52 hvcurveto
          endchar
        </CharString>
        <CharString name="oslash">
          27 -51 -21 52 -20 549 -20 74 -20 hstem
          -35 callgsubr
          vstem
          113 -71 rmoveto
          11 23 19 29 21 32 rrcurveto
          -21 37 43 -12 47 hhcurveto
          149 24 109 75 165 vvcurveto
          80 -32 71 -52 48 vhcurveto
          55 77 -9 13 -8 11 -8 15 rlinecurve
          4 -4 -4 0 -3 hhcurveto
          -4 -3 -2 0 hvcurveto
          -13 -24 -19 -30 -21 -34 rrcurveto
          23 -36 -44 13 -45 hhcurveto
          -150 -24 -109 -76 -165 vvcurveto
          -81 32 -71 52 -48 vhcurveto
          -53 -73 9 -14 8 -10 8 -15 rlinecurve
          -4 4 4 0 3 hhcurveto
          4 2 1 0 hvcurveto
          19 354 rmoveto
          101 39 83 108 44 36 -19 -31 28 vhcurveto
          -43 -64 -43 -60 -13 -18 -115 -162 rcurveline
          -26 48 -15 60 62 vvcurveto
          181 -260 rmoveto
          -44 -37 18 31 -29 hvcurveto
          52 76 53 75 15 20 94 132 rcurveline
          27 -47 13 -61 -60 vvcurveto
          -104 -36 -80 -108 vhcurveto
          endchar
        </CharString>
        <CharString name="otilde">
          -41 callgsubr
          84 63 -32 63 hstemhm
          -35 callgsubr
          hintmask 11101100
          -104 callgsubr
          60 570 -75 callgsubr
          hintmask 11011100
          -79 callsubr
          hintmask 11101100
          56 42 -31 56 hhcurveto
          endchar
        </CharString>
        <CharString name="p">
          34 13 callgsubr
          486 -20 hstemhm
          107 80 285 84 hintmask 10011110
          187 -5 rmoveto
          -2 8 57 -13 23 hhcurveto
          32 249 24 240 139 -96 108 -92 18 hvcurveto
          -83 -33 -13 -5 -80 -50 rrcurveto
          55 -3 -36 33 -16 hhcurveto
          0 -40 -28 -76 -13 vhcurveto
          0 -1 -4 -5 vvcurveto
          -4 0 -7 4 -7 vhcurveto
          12 13 2 10 hhcurveto
          40 8 -38 -102 hvcurveto
          -244 vlineto
          -120 -2 -152 -8 -56 vhcurveto
          -4 -31 -10 -29 -60 -14 rrcurveto
          0 -2 -4 -4 vvcurveto
          -5 2 -8 11 callsubr
          hintmask 00111110
          8 54 56 0 30 hhcurveto
          hintmask 01011110
          26 63 -3 55 hhcurveto
          2 -64 callgsubr
          -2 7 0 -43 -39 0 3 -30 vhcurveto
          -10 1 -2 184 83 vvcurveto
          2 437 rmoveto
          27 32 48 36 48 hhcurveto
          74 81 -108 -124 -98 -60 -86 -88 -24 -113 34 22 82 0 132 2 83 hvcurveto
          endchar
        </CharString>
        <CharString name="paragraph">
          346 -266 -21 411 40 519 40 -3 -20 hstemhm
          521 80 0 74 0 76 hintmask 11100100
          408 164 rmoveto
          -69 -31 96 157 134 35 132 89 hvcurveto
          17 hlineto
          3 6 1 4 8 vvcurveto
          hintmask 11010100
          11 -4 8 0 vhcurveto
          -28 hlineto
          hintmask 11100100
          -16 -26 3 -26 hhcurveto
          -200 -73 -132 -159 -181 103 -127 170 hvcurveto
          24 26 3 17 hhcurveto
          29 hlineto
          0 4 8 10 vvcurveto
          6 -1 8 -3 5 vhcurveto
          hintmask 11010100
          218 556 rmoveto
          hintmask 11101010
          85 35 3 36 hhcurveto
          -46 callsubr
          -5 -6 vvcurveto
          -10 -2 -8 0 -27 -12 -2 -4 -19 vhcurveto
          -8 -2 -6 -96 -110 vvcurveto
          -397 vlineto
          -127 -27 -109 -103 -39 vhcurveto
          -233 -88 rlineto
          -13 7 -6 13 12 -27 callsubr
          2 2 5 vhcurveto
          64 31 rlineto
          86 41 0 151 102 vvcurveto
          hintmask 11011010
          639 vlineto
          80 -43 rmoveto
          -609 vlineto
          -108 0 -56 -58 -83 vhcurveto
          26 12 rlineto
          hintmask 11100100
          67 31 39 77 127 vvcurveto
          345 vlineto
          68 0 107 -4 92 vhcurveto
          -32 -15 0 -3 -23 hvcurveto
          endchar
        </CharString>
        <CharString name="parenleft">
          28 callsubr
          80 84 vstem
          164 367 rmoveto
          188 43 180 92 150 vhcurveto
          0 -2 19 -25 vhcurveto
          -100 -129 -92 -152 -258 vvcurveto
          -257 92 -152 100 -129 vhcurveto
          23 4 17 0 hvcurveto
          -92 151 -43 184 188 vvcurveto
          endchar
        </CharString>
        <CharString name="parenright">
          28 callsubr
          175 84 vstem
          175 367 rmoveto
          -188 -43 -184 -92 -151 vhcurveto
          0 4 -17 23 vhcurveto
          100 129 92 152 257 vvcurveto
          258 -92 152 -100 129 vhcurveto
          -26 -1 -19 0 hvcurveto
          92 -150 43 -180 -188 vvcurveto
          endchar
        </CharString>
        <CharString name="percent">
          99 -56 71 144 70 6 70 144 71 4 -20 hstemhm
          60 41 166 41 45 42 165 41 hintmask 1111011110000000
          308 377 rmoveto
          79 -45 64 -76 vhcurveto
          -75 -8 -52 -45 -90 vvcurveto
          -80 44 -62 77 vhcurveto
          76 9 51 43 90 vvcurveto
          -207 10 rmoveto
          46 19 16 56 55 36 -37 -40 -49 -19 -18 -56 -55 -36 40 42 vhcurveto
          500 -300 rmoveto
          78 -45 64 -76 vhcurveto
          -75 -8 -52 -45 -89 vvcurveto
          -80 44 -63 78 vhcurveto
          76 9 50 43 91 vvcurveto
          -206 9 rmoveto
          47 18 16 56 55 36 -38 -40 -49 -19 -17 -56 -54 -36 40 41 vhcurveto
          -259 -108 rmoveto
          12 -13 11 -12 12 -16 rrcurveto
          0 4 -3 4 4 2 1 0 vhcurveto
          27 59 113 171 20 29 186 272 rcurveline
          -11 12 -15 19 -8 14 rrcurveto
          hintmask 1110111110000000
          2 -1 -4 1 -3 hhcurveto
          -5 -3 -1 0 hvcurveto
          -38 -72 -119 -186 -23 -33 rrcurveto
          endchar
        </CharString>
        <CharString name="period">
          -326 1 -21 132 -20 hstem
          111 -20 rmoveto
          -84 callgsubr
          endchar
        </CharString>
        <CharString name="periodcentered">
          -313 234 -21 132 -20 hstem
          124 213 rmoveto
          25 11 36 27 14 18 -10 26 -24 30 -21 20 -24 -10 -35 -27 29 callsubr
          endchar
        </CharString>
        <CharString name="plus">
          7 45 -21 213 55 216 -20 hstem
          255 58 vstem
          501 301 rmoveto
          -8 -81 -39 -1 -68 hhcurveto
          203 vlineto
          -17 4 -19 1 -16 8 rrcurveto
          -12 -4 -9 0 hvcurveto
          8 -88 2 -38 -81 vvcurveto
          -183 hlineto
          -4 -19 -3 -12 -6 -17 rrcurveto
          -58 callgsubr
          7 80 39 1 68 hhcurveto
          -200 vlineto
          18 -4 16 -2 18 -7 rrcurveto
          10 4 9 0 hvcurveto
          -8 87 0 37 80 vvcurveto
          184 hlineto
          4 18 2 14 4 callgsubr
          9 callsubr
          endchar
        </CharString>
        <CharString name="plusminus">
          -30 0 57 -44 -21 284 57 176 -20 hstemhm
          236 59 hintmask 10111000
          483 343 rmoveto
          -10 -82 -54 0 -52 hhcurveto
          163 vlineto
          -18 2 -18 4 -16 7 rrcurveto
          -12 -4 -9 0 hvcurveto
          8 -81 1 -40 -46 vvcurveto
          -169 hlineto
          -3 -18 -4 -15 -7 -17 rrcurveto
          -11 10 -4 0 vhcurveto
          8 81 44 0 48 hhcurveto
          -157 vlineto
          19 -3 16 -4 25 callgsubr
          80 0 36 45 vvcurveto
          184 hlineto
          2 17 3 18 -36 callgsubr
          -430 -286 rmoveto
          -4 -18 -2 -15 -7 -17 rrcurveto
          hintmask 01111000
          -58 callgsubr
          hintmask 10111000
          8 98 57 0 61 hhcurveto
          214 hlineto
          4 17 1 18 -36 callgsubr
          -10 -98 -60 0 -61 hhcurveto
          endchar
        </CharString>
        <CharString name="q">
          39 -363 31 -7 -21 827 42 hstemhm
          40 84 295 78 hintmask 10111000
          40 232 rmoveto
          -129 100 -104 92 -19 vhcurveto
          92 36 24 12 71 43 rrcurveto
          -132 vlineto
          -84 -4 -180 -10 -2 vhcurveto
          -2 -30 -36 -3 -43 hhcurveto
          22 callsubr
          -4 -6 vvcurveto
          -5 0 -5 3 -6 vhcurveto
          hintmask 01111000
          2 55 61 1 27 hhcurveto
          29 56 0 -1 55 hvcurveto
          4 4 1 8 5 vvcurveto
          4 -1 -48 callgsubr
          -60 7 -12 29 -4 31 rrcurveto
          -8 56 -2 168 120 vvcurveto
          236 vlineto
          58 12 104 11 27 vhcurveto
          0 -4 9 -11 vhcurveto
          -13 -8 -15 -12 -12 -6 rrcurveto
          8 -33 -71 18 -14 hhcurveto
          -127 -180 -66 -211 hvcurveto
          84 37 rmoveto
          116 77 82 74 22 122 -28 -38 vhcurveto
          -288 vlineto
          -28 -36 -52 -34 -52 hhcurveto
          -74 -81 102 116 hvcurveto
          endchar
        </CharString>
        <CharString name="question">
          -146 1 -21 832 -20 hstem
          317 46 vstem
          128 -20 rmoveto
          25 11 36 26 14 19 -10 25 -24 31 -21 20 -24 -11 -35 -26 29 callsubr
          63 340 rmoveto
          90 20 40 41 38 88 rrcurveto
          2 18 2 16 14 vvcurveto
          115 -70 60 -60 29 vhcurveto
          -37 19 -45 7 -38 25 rrcurveto
          -4 11 -1 13 12 vvcurveto
          3 -7 -5 1 -4 hhcurveto
          -5 -4 -1 -2 -6 hvcurveto
          -64 -9 -33 -23 vvcurveto
          -16 49 -9 54 -15 vhcurveto
          97 -26 49 -46 -73 vvcurveto
          -13 -1 -15 -4 -16 vhcurveto
          -11 -51 -100 -29 -72 -12 rrcurveto
          -13 -3 -4 2 -8 vvcurveto
          -16 11 -39 6 -109 vhcurveto
          -2 6 -32 callsubr
          7 45 6 52 10 27 rrcurveto
          endchar
        </CharString>
        <CharString name="questiondown">
          -146 -302 -21 832 -20 hstem
          53 46 vstem
          288 509 rmoveto
          -25 -10 -36 -27 -14 -19 10 29 callgsubr
          18 20 -12 26 -21 28 -24 20 rrcurveto
          -63 -340 rmoveto
          10 27 6 52 7 45 rrcurveto
          3 5 8 1 8 hhcurveto
          7 5 -1 -1 6 hvcurveto
          6 -110 11 -38 -16 vvcurveto
          -8 -4 1 -13 -3 vhcurveto
          -72 -12 -100 -29 -11 -51 rrcurveto
          -4 -16 -1 -14 -14 vvcurveto
          -73 49 -45 97 -27 vhcurveto
          54 -15 49 -9 -16 -23 -9 -33 -64 vvcurveto
          -1 -6 -4 -2 -5 hhcurveto
          -4 -5 2 2 -7 hvcurveto
          12 -1 14 -4 10 vhcurveto
          -38 26 -45 6 -37 19 rrcurveto
          -60 29 -70 60 115 vvcurveto
          15 0 8 4 25 vhcurveto
          38 88 40 41 90 20 rrcurveto
          endchar
        </CharString>
        <CharString name="quotedbl">
          -129 -3 callgsubr
          4 8 -1 6 hhcurveto
          5 7 0 2 5 hvcurveto
          31 267 rlineto
          4 -12 -11 30 callgsubr
          176 -267 rmoveto
          -1 4 8 -1 5 hhcurveto
          6 6 0 2 6 hvcurveto
          30 267 rlineto
          4 -12 -10 30 callgsubr
          endchar
        </CharString>
        <CharString name="quotedblbase">
          -147 -73 callgsubr
          167 hmoveto
          -82 callsubr
          77 44 vvcurveto
          endchar
        </CharString>
        <CharString name="quotedblleft">
          -165 -74 callsubr
          166 hmoveto
          6 -18 22 -36 26 -21 24 9 32 24 21 24 -13 28 -16 23 -24 20 rrcurveto
          27 10 34 42 59 vhcurveto
          11 -4 -8 4 -10 hhcurveto
          -69 -67 -39 -77 -44 vvcurveto
          endchar
        </CharString>
        <CharString name="quotedblright">
          -165 -72 callsubr
          77 44 vvcurveto
          167 hmoveto
          -6 17 -22 36 -26 22 -24 -10 -32 -24 -21 -24 13 -28 16 -22 24 -20 rrcurveto
          -27 -10 -35 -42 -58 -46 callgsubr
          10 hhcurveto
          69 67 39 77 44 vvcurveto
          endchar
        </CharString>
        <CharString name="quoteleft">
          -331 -74 callsubr
          endchar
        </CharString>
        <CharString name="quoteright">
          -365 -72 callsubr
          76 45 vvcurveto
          endchar
        </CharString>
        <CharString name="quotesinglbase">
          -314 -73 callgsubr
          endchar
        </CharString>
        <CharString name="quotesingle">
          -282 -3 callgsubr
          6 6 -1 6 hhcurveto
          5 5 1 1 7 hvcurveto
          31 267 rlineto
          4 -12 -14 3 -12 hhcurveto
          -14 -11 -3 -4 -12 hvcurveto
          endchar
        </CharString>
        <CharString name="r">
          -139 -95 callsubr
          395 122 -60 60 hstemhm
          117 84 hintmask 00101100
          153 509 rmoveto
          -10 -30 16 callgsubr
          1 -5 11 callsubr
          12 17 1 10 hhcurveto
          50 -1 0 -61 -66 vvcurveto
          -77 0 -109 -6 -44 vhcurveto
          -4 -31 -6 -29 -73 -14 -68 callgsubr
          -4 -4 vvcurveto
          -60 callsubr
          hintmask 01010100
          7 55 61 1 29 hhcurveto
          hintmask 10001100
          -84 callsubr
        </CharString>
        <CharString name="rcaron">
          -138 -95 callsubr
          395 122 -60 60 266 -20 hstemhm
          119 77 hintmask 00101110
          155 509 rmoveto
          -11 -29 -22 -12 -88 hvcurveto
          0 -3 -6 -6 vvcurveto
          -6 1 -5 11 callsubr
          12 18 1 9 hhcurveto
          51 -1 0 -61 -66 vvcurveto
          -77 0 -109 -7 -44 vhcurveto
          -4 -31 -5 -29 -74 -14 -68 callgsubr
          -4 -4 vvcurveto
          -60 callsubr
          hintmask 01010110
          7 55 61 1 30 hhcurveto
          hintmask 10001110
          21 47 -3 44 hhcurveto
          2 -64 callgsubr
          -2 7 0 -32 -27 0 3 -23 vhcurveto
          -12 1 -1 69 14 vvcurveto
          22 0 144 7 76 vhcurveto
          35 32 49 48 19 hhcurveto
          25 16 -21 -32 9 hvcurveto
          60 11 20 20 46 -37 36 -55 hvcurveto
          -49 -33 -28 -25 -59 -60 rrcurveto
          52 -4 -24 66 -13 hhcurveto
          -62 266 rmoveto
          -18 -4 -18 0 0 86 -105 62 -87 hvcurveto
          12 hlineto
          61 87 87 105 -71 callgsubr
          -4 18 -19 vhcurveto
          -131 -123 rlineto
          endchar
        </CharString>
        <CharString name="rcommaaccent">
          -139 -12 callgsubr
          469 60 hstemhm
          117 84 hintmask 10111000
          213 -140 rmoveto
          -6 16 -28 27 -28 17 -28 -23 -18 -18 -18 -27 17 -25 17 -14 27 -17 -3 -27 -20 -42 -50 -40 1 -11 5 -8 10 -1 28 14 18 19 16 19 rrcurveto
          44 50 16 47 44 vvcurveto
          -60 649 rmoveto
          -10 -30 16 callgsubr
          1 -5 11 callsubr
          12 17 1 10 hhcurveto
          50 -1 0 -61 -66 vvcurveto
          -77 0 -109 -6 -44 vhcurveto
          -4 -31 -6 -29 -73 -14 -68 callgsubr
          -4 -4 vvcurveto
          -60 callsubr
          7 55 61 1 29 hhcurveto
          hintmask 11011000
          -84 callsubr
        </CharString>
        <CharString name="registered">
          -11 252 41 84 134 97 23 76 41 hstem
          33 48 116 44 82 48 106 47 vstem
          33 499 rmoveto
          -138 108 -109 138 137 108 109 138 140 -108 109 -137 -138 -108 -109 -140 vhcurveto
          48 hmoveto
          114 90 94 108 108 90 -94 -114 -112 -90 -94 -108 -108 -90 94 112 vhcurveto
          92 132 rmoveto
          -1 -3 0 -1 -3 vvcurveto
          -5 1 -4 0 10 5 0 -3 4 vhcurveto
          3 1 -9 -20 hvcurveto
          1 -23 0 -31 -28 vvcurveto
          -37 0 -24 -2 -17 vhcurveto
          -2 -11 -2 -11 -22 -6 -68 callgsubr
          -4 -6 vvcurveto
          -4 1 -4 2 vhcurveto
          102 hlineto
          2 3 0 4 3 vvcurveto
          6 -2 6 0 -9 -13 0 4 -8 vhcurveto
          -2 10 0 4 23 vvcurveto
          49 vlineto
          -1 11 5 0 12 hhcurveto
          7 hlineto
          -25 12 33 -88 10 hhcurveto
          5 24 4 2 37 hvcurveto
          2 3 0 4 3 vvcurveto
          4 -2 5 -2 3 vhcurveto
          -16 hlineto
          -12 -8 5 41 -26 hvcurveto
          -8 16 -6 16 -4 11 rrcurveto
          32 9 24 24 36 vvcurveto
          48 -35 22 -59 vhcurveto
          -1 -23 rmoveto
          33 14 -23 -28 -28 -24 -18 -32 -18 -4 0 1 -4 hvcurveto
          51 0 18 3 26 vhcurveto
          1 11 8 0 13 hhcurveto
          endchar
        </CharString>
        <CharString name="s">
          -99 -20 39 454 36 hstem
          68 77 178 78 vstem
          319 447 rmoveto
          3 -11 11 -55 2 -12 rrcurveto
          -1 4 5 -18 callgsubr
          rrcurveto
          10 -24 -65 16 -48 hhcurveto
          -77 -99 -36 -104 -70 53 -42 44 -21 hvcurveto
          75 -36 rlineto
          -82 callgsubr
          52 38 26 49 51 29 -20 -6 7 vhcurveto
          endchar
        </CharString>
        <CharString name="section">
          73 -217 46 866 41 hstemhm
          56 77 62 74 79 77 66 44 -44 73 hintmask 11111100
          411 695 rmoveto
          34 20 -10 -5 7 hvcurveto
          5 -19 14 -101 1 -20 rrcurveto
          -3 4 8 -1 8 hhcurveto
          9 10 23 callsubr
          hvcurveto
          4 74 0 33 9 67 rrcurveto
          8 -31 -72 13 -62 hhcurveto
          -166 -161 -117 -159 hvcurveto
          -208 292 -104 -167 vvcurveto
          -98 -72 -54 -56 -65 -23 31 7 -3 vhcurveto
          -8 18 -25 94 -5 25 rrcurveto
          1 -6 -4 0 -4 hhcurveto
          -12 -9 -4 -6 -11 hvcurveto
          11 -66 5 -49 7 -69 rrcurveto
          -11 31 66 -17 80 hhcurveto
          hintmask 11111010
          171 148 124 164 hvcurveto
          256 -295 73 157 vvcurveto
          84 64 54 78 vhcurveto
          14 -691 rmoveto
          169 -292 127 184 vvcurveto
          77 43 60 67 39 vhcurveto
          -38 -48 -10 -43 -30 -199 296 -44 -251 vvcurveto
          -92 -62 -73 -70 -29 vhcurveto
          45 50 21 43 60 vvcurveto
          endchar
        </CharString>
        <CharString name="semicolon">
          -318 -130 -21 607 -20 hstem
          184 37 rmoveto
          -82 callsubr
          76 45 vvcurveto
          -65 287 rmoveto
          -84 callgsubr
          endchar
        </CharString>
        <CharString name="seven">
          -59 -272 -21 732 70 7 -20 hstemhm
          hintmask 10100000
          43 -257 rmoveto
          0 41 -6 27 -28 vhcurveto
          -1 2 3 -1 4 hhcurveto
          4 3 1 1 2 hvcurveto
          72 226 68 144 56 112 56 110 67 115 61 80 rrcurveto
          0 0 13 -10 6 vhcurveto
          hintmask 11000000
          -6 -60 -103 0 -35 19 callgsubr
          -100 -90 0 7 -75 hvcurveto
          -1 -33 -11 -44 -11 -62 rrcurveto
          -2 3 8 -4 8 hhcurveto
          3 2 0 1 3 hvcurveto
          8 20 7 12 6 11 rrcurveto
          hintmask 11000000
          22 14 68 2 81 hhcurveto
          100 91 -8 0 hvcurveto
          -30 -46 -61 -96 -63 -110 -68 -120 -80 -155 -70 -161 rrcurveto
          endchar
        </CharString>
        <CharString name="six">
          14 -20 39 337 39 321 -20 hstem
          67 97 279 86 vstem
          67 271 rmoveto
          -170 86 -121 136 vhcurveto
          131 20 109 65 144 vvcurveto
          96 -81 90 -109 -42 -34 -4 -28 -46 vhcurveto
          -6 0 -13 14 -7 vhcurveto
          14 25 20 5 25 hhcurveto
          92 50 -101 -83 -77 -40 -76 -87 -113 -39 125 129 164 54 85 63 55 hvcurveto
          60 52 60 30 78 32 rrcurveto
          12 0 2 -8 11 vhcurveto
          -67 -17 -76 -31 -67 -44 rrcurveto
          -135 -88 -59 -153 -112 vvcurveto
          endchar
        </CharString>
        <CharString name="slash">
          -201 -82 -21 964 -20 hstem
          328 831 rmoveto
          -16 9 -19 9 -14 12 rrcurveto
          -7 -4 0 -5 -7 hvcurveto
          -14 -96 -88 -313 -16 -59 -130 -460 rcurveline
          16 -9 19 -10 15 -12 rrcurveto
          6 4 0 6 7 hvcurveto
          15 96 88 313 16 59 rrcurveto
          endchar
        </CharString>
        <CharString name="space">
          -255 endchar
        </CharString>
        <CharString name="sterling">
          -79 -2 -20 22 48 -37 -21 256 40 204 35 hstemhm
          111 77 hintmask 00111100
          61 286 rmoveto
          -2 -13 -3 -8 -5 -43 callsubr
          2 22 15 1 15 hhcurveto
          -135 -19 -62 -52 -38 vhcurveto
          0 0 -14 8 -6 vhcurveto
          hintmask 11011100
          10 40 71 0 8 hhcurveto
          37 hlineto
          9 44 -2 39 hhcurveto
          52 32 0 6 24 hvcurveto
          4 1 1 1 3 20 4 31 4 29 9 58 rrcurveto
          5 -6 -6 4 -9 hhcurveto
          -3 -4 0 -1 -4 hvcurveto
          -9 -26 -9 -25 -15 -35 rrcurveto
          -10 -28 -49 -8 -44 hhcurveto
          -44 -31 0 2 -36 hvcurveto
          31 38 25 48 88 vvcurveto
          22 153 vlineto
          3 16 3 10 5 9 18 callgsubr
          -7 -59 -54 0 -43 hhcurveto
          131 5 42 73 44 hhcurveto
          50 30 -21 -7 6 hvcurveto
          3 -9 12 -55 1 -12 rrcurveto
          -1 4 4 -3 6 hhcurveto
          5 5 3 3 4 hvcurveto
          4 41 7 52 5 17 rrcurveto
          11 -24 -62 16 -48 hhcurveto
          -20 -158 -64 -175 -2 hvcurveto
          endchar
        </CharString>
        <CharString name="t">
          -202 -20 69 401 43 182 -20 hstem
          104 83 vstem
          329 451 rmoveto
          2 13 1 12 7 12 rrcurveto
          8 -7 -48 callgsubr
          -7 -71 -32 0 -41 hhcurveto
          71 9 105 0 vhcurveto
          6 -6 -6 0 -6 hhcurveto
          -39 -47 -37 -15 0 0 1 -56 -29 vvcurveto
          -11 0 -24 -8 vhcurveto
          -71 hlineto
          -2 -13 0 -9 -7 -14 rrcurveto
          -8 7 -2 0 vhcurveto
          0 33 1 41 7 0 -21 -38 vhcurveto
          -232 vlineto
          -105 32 -72 64 vhcurveto
          79 25 29 12 60 32 rrcurveto
          16 -9 10 -6 2 vhcurveto
          -18 -43 -23 -10 -43 hhcurveto
          -57 0 118 48 hvcurveto
          234 vlineto
          endchar
        </CharString>
        <CharString name="thorn">
          31 13 callgsubr
          872 -20 hstemhm
          107 78 287 84 hintmask 10011110
          367 509 rmoveto
          -50 -16 -81 -45 -51 -29 rrcurveto
          64 3 297 17 105 vhcurveto
          0 -4 10 -10 vhcurveto
          -30 -18 -24 -17 -34 -12 -35 -12 -21 -8 callgsubr
          0 -3 -34 callgsubr
          2 -4 1 -4 vhcurveto
          0 21 -2 14 -2 vhcurveto
          44 -7 8 -33 -84 vvcurveto
          -616 vlineto
          -120 -3 -152 -8 -56 vhcurveto
          -4 -31 -11 -29 -60 -14 -68 callgsubr
          -4 -4 vvcurveto
          -5 1 -8 11 callsubr
          hintmask 00111110
          8 55 56 0 29 hhcurveto
          hintmask 01011110
          27 63 -3 54 hhcurveto
          3 -64 callgsubr
          -3 7 0 -42 -39 0 3 -31 vhcurveto
          -9 1 -3 184 83 vvcurveto
          56 vlineto
          -8 38 41 -7 11 -14 callsubr
          -182 -133 rmoveto
          27 35 47 36 53 hhcurveto
          73 79 35 callgsubr
          -34 9 9 -24 hvcurveto
          -30 11 -34 13 23 vvcurveto
          endchar
        </CharString>
        <CharString name="three">
          -85 -278 -21 764 59 hstem
          316 88 vstem
          203 465 rmoveto
          66 47 -24 -61 -55 -41 -42 -38 -34 hvcurveto
          -81 -74 rlineto
          81 -47 79 -57 -95 vvcurveto
          -104 -107 -69 -169 -76 vhcurveto
          -12 0 -6 8 -8 vhcurveto
          224 80 132 79 145 vvcurveto
          92 -59 64 -84 54 vhcurveto
          38 36 rlineto
          94 92 10 28 34 vvcurveto
          94 -82 25 -93 vhcurveto
          -57 -15 -74 -16 -54 -28 rrcurveto
          -14 -6 -1 -4 -6 vvcurveto
          -4 13 -26 6 -83 vhcurveto
          -1 4 4 -2 4 hhcurveto
          6 7 2 2 4 hvcurveto
          1 15 10 75 2 12 rrcurveto
          13 36 30 13 48 hhcurveto
          endchar
        </CharString>
        <CharString name="threequarters">
          87 -7 -21 28 135 -41 41 158 34 300 49 52 -20 hstem
          192 71 238 60 vstem
          121 5 rmoveto
          11 -10 13 -8 10 -12 rrcurveto
          -3 2 3 0 1 hhcurveto
          6 1 -11 callgsubr
          287 17 29 -65 callsubr
          -5 -3 -3 0 hvcurveto
          -36 -73 -136 -249 -20 -35 rrcurveto
          -76 300 rmoveto
          5 -3 6 -5 2 vhcurveto
          -90 callgsubr
          338 -259 6 callsubr
          -1 -6 vhcurveto
          -3 0 callsubr
          155 hlineto
          2 7 0 2 3 vvcurveto
          5 0 4 -2 7 vhcurveto
          -24 -4 0 3 -14 28 callgsubr
          2 14 0 28 6 30 rrcurveto
          6 -6 -4 1 -11 hhcurveto
          -11 -27 rlineto
          -13 -5 -13 -5 -14 16 callsubr
          -9 -8 2 -8 hhcurveto
          -175 15 callgsubr
          2 -7 5 -5 11 callgsubr
          25 0 10 hhcurveto
          endchar
        </CharString>
        <CharString name="threesuperior">
          -273 293 34 300 49 5 -20 hstemhm
          192 71 hintmask 10110000
          252 668 rmoveto
          5 -3 6 -5 2 vhcurveto
          hintmask 11010000
          -90 callgsubr
          endchar
        </CharString>
        <CharString name="tilde">
          74 593 63 -32 32 -32 63 hstemhm
          hintmask 01000000
          389 593 -75 callgsubr
          hintmask 00100000
          -79 callsubr
          hintmask 10000000
          56 42 -31 56 hhcurveto
          endchar
        </CharString>
        <CharString name="two">
          -73 -3 67 -64 -20 36 -21 472 57 hstemhm
          311 88 hintmask 10011000
          408 95 rmoveto
          -22 -20 -25 -9 -124 hhcurveto
          -106 hlineto
          178 169 rlineto
          52 49 36 47 59 vvcurveto
          101 -87 35 -85 vhcurveto
          -50 -15 -65 -21 -49 -21 rrcurveto
          -14 -6 -1 -9 -4 vvcurveto
          -5 15 -34 4 -72 vhcurveto
          -2 5 4 0 4 hhcurveto
          4 5 1 3 6 hvcurveto
          1 14 11 75 2 12 rrcurveto
          13 27 29 14 38 hhcurveto
          58 50 -44 -56 -98 -127 -100 -39 -37 hvcurveto
          hintmask 00111000
          -120 -116 rlineto
          -9 0 -4 6 -8 vhcurveto
          hintmask 01011000
          5 44 77 0 23 hhcurveto
          hintmask 10011000
          16 106 24 callsubr
          75 12 4 8 13 hvcurveto
          36 7 20 10 62 vhcurveto
          4 -4 -8 2 -6 hhcurveto
          -3 -3 0 -1 -2 hvcurveto
          -6 -13 -6 -15 -7 -9 rrcurveto
          endchar
        </CharString>
        <CharString name="twosuperior">
          -251 304 48 -28 -21 338 42 hstemhm
          196 72 hintmask 10110000
          103 352 rmoveto
          98 117 rlineto
          47 56 20 27 36 vvcurveto
          71 -57 24 -62 vhcurveto
          -112 -32 rlineto
          -5 6 callgsubr
          2 6 -1 2 hhcurveto
          3 14 callgsubr
          25 5 23 hhcurveto
          36 20 -26 -35 -41 -32 -48 -47 -54 hvcurveto
          -102 27 callgsubr
          117 hlineto
          hintmask 01110000
          26 36 -1 13 hhcurveto
          43 9 3 6 12 hvcurveto
          1 29 0 24 7 36 callgsubr
          -14 -40 rlineto
          hintmask 10110000
          -9 -2 -23 -4 -59 hhcurveto
          endchar
        </CharString>
        <CharString name="u">
          43 -20 71 465 -20 hstem
          93 80 242 80 vstem
          495 -107 callsubr
          endchar
        </CharString>
        <CharString name="uacute">
          47 -20 71 697 -20 hstem
          97 80 242 80 vstem
          499 -107 callsubr
          -70 417 rmoveto
          -10 24 -23 18 -23 9 rrcurveto
          -61 -87 -77 -97 -71 callgsubr
          4 -17 18 vhcurveto
          endchar
        </CharString>
        <CharString name="ucircumflex">
          47 -20 71 705 -20 hstem
          97 80 242 80 vstem
          499 -107 callsubr
          -206 389 -61 callgsubr
        </CharString>
        <CharString name="udieresis">
          47 -20 71 657 -20 hstem
          97 80 242 80 vstem
          499 -107 callsubr
          -327 311 -75 callsubr
          216 hmoveto
          -85 callsubr
        </CharString>
        <CharString name="ugrave">
          47 -20 71 697 -20 hstem
          97 80 242 80 vstem
          499 -107 callsubr
          -138 267 -38 callgsubr
        </CharString>
        <CharString name="underscore">
          5 -97 54 -41 -21 72 -20 hstemhm
          hintmask 10000000
          15 -43 rmoveto
          -4 -18 -3 -12 -7 -18 rrcurveto
          hintmask 01100000
          -10 10 -4 0 vhcurveto
          hintmask 10000000
          8 113 87 0 73 hhcurveto
          271 hlineto
          4 17 1 15 4 callgsubr
          hintmask 01100000
          12 -9 -48 callgsubr
          hintmask 10000000
          -10 -114 -89 0 -73 hhcurveto
          endchar
        </CharString>
        <CharString name="v">
          -66 1 -21 513 -20 30 18 callsubr
          233 -20 rmoveto
          15 hlineto
          148 364 24 60 20 28 19 19 rlinecurve
          10 10 8 4 18 8 rrcurveto
          10 0 5 -7 11 vhcurveto
          -6 -36 -21 0 -27 hhcurveto
          -19 -28 0 3 -40 hvcurveto
          14 callsubr
          26 20 -2 -3 18 vhcurveto
          -5 -37 -17 -62 -23 -61 -69 -185 rcurveline
          -88 193 -23 51 -17 50 -14 callgsubr
          4 0 6 -3 5 vhcurveto
          -1 -32 -36 -2 -16 19 callgsubr
          -26 callgsubr
          21 -6 11 -8 8 -10 24 -26 31 -75 10 -24 rrcurveto
          endchar
        </CharString>
        <CharString name="w">
          233 1 -21 513 -20 23 -20 27 18 callsubr
          692 329 rmoveto
          24 60 27 44 18 19 11 11 11 5 16 7 rrcurveto
          8 -2 8 -5 9 vhcurveto
          -7 -48 -9 0 -27 19 callgsubr
          -19 -34 3 -34 hhcurveto
          14 callsubr
          vhcurveto
          26 -1 20 -1 18 -3 -5 -33 -17 -68 -24 -60 -71 -182 rcurveline
          hintmask 11000000
          -144 376 rlineto
          -27 hlineto
          -138 -376 -74 191 -20 52 -18 49 -14 callgsubr
          hintmask 10100000
          4 0 6 -3 5 vhcurveto
          hintmask 11000000
          -1 -32 -36 -2 -16 hhcurveto
          hintmask 10010000
          -26 callgsubr
          16 -5 12 -9 9 -10 15 -14 35 -84 10 -24 144 -351 rcurveline
          15 hlineto
          145 373 148 -373 rlineto
          15 hlineto
          endchar
        </CharString>
        <CharString name="x">
          -39 0 29 -17 -21 472 30 16 -20 hstemhm
          hintmask 10010000
          272 297 rmoveto
          102 -60 -52 110 -9 19 callgsubr
          -22 -44 -13 -3 -73 hvcurveto
          -1 -5 -85 callgsubr
          -6 1 -4 1 -6 vhcurveto
          47 hlineto
          28 23 -38 -101 57 hvcurveto
          45 -79 -76 -100 -16 -21 -42 -52 -24 -25 rlinecurve
          -11 -11 -17 -11 -18 -5 -68 callgsubr
          -3 -4 vvcurveto
          -5 1 -8 6 -5 vhcurveto
          5 32 26 0 27 hhcurveto
          41 43 -3 0 hvcurveto
          hintmask 01100000
          3 -64 callgsubr
          -3 7 0 -21 -23 1 2 -16 vhcurveto
          12 37 45 68 32 43 22 30 rcurveline
          48 -81 rlineto
          -44 25 53 -93 23 19 callgsubr
          11 44 9 68 hhcurveto
          1 4 1 5 6 vvcurveto
          5 -1 5 -1 4 vhcurveto
          -39 hlineto
          -33 -20 40 98 -62 hvcurveto
          -62 98 78 92 16 19 57 61 24 18 rlinecurve
          13 10 5 3 19 7 rrcurveto
          8 0 9 -7 8 vhcurveto
          -7 -45 -11 0 -27 hhcurveto
          -81 hlineto
          -3 -4 -85 callgsubr
          -9 3 -8 0 21 20 0 -3 16 vhcurveto
          -12 -28 -29 -41 -16 -20 rrcurveto
          endchar
        </CharString>
        <CharString name="y">
          2 callsubr
          30 18 callsubr
          -67 callsubr
          hintmask 10100000
          -89 callsubr
          rrcurveto
          hintmask 11000000
          -71 callsubr
          endchar
        </CharString>
        <CharString name="yacute">
          2 callsubr
          275 -20 hstem
          -67 callsubr
          -89 callsubr
          -71 callsubr
          40 406 -91 callgsubr
        </CharString>
        <CharString name="ydieresis">
          2 callsubr
          235 -20 hstem
          371 291 rmoveto
          25 64 21 66 4 38 rrcurveto
          2 -18 -31 2 -25 hhcurveto
          0 -4 6 11 vvcurveto
          4 1 5 1 4 vhcurveto
          98 hlineto
          26 20 0 6 38 hvcurveto
          6 -10 2 -12 -4 vvcurveto
          -18 -8 -8 -4 -10 -10 -18 -19 -14 -21 -27 -63 -145 -348 rcurveline
          -28 -68 -32 -87 -8 -21 rrcurveto
          -44 -18 -56 -168 -28 hhcurveto
          -12 -42 20 13 -64 hvcurveto
          11 0 9 9 12 vhcurveto
          -2 12 16 -4 11 hhcurveto
          42 74 125 76 29 hvcurveto
          36 96 -163 400 -10 25 -19 42 -17 18 rlinecurve
          -8 10 -11 8 -20 6 rrcurveto
          8 0 10 5 8 vhcurveto
          -7 46 34 -3 24 hhcurveto
          16 38 2 1 32 hvcurveto
          2 -5 -7 callgsubr
          -9 -2 -7 0 -22 -9 0 -2 -13 vhcurveto
          8 -54 18 -48 22 -53 97 -240 rcurveline
          -125 523 -94 callsubr
        </CharString>
        <CharString name="yen">
          15 -3 198 -195 5 callsubr
          163 40 69 47 172 26 6 -20 hstemhm
          hintmask 10001100
          132 513 rmoveto
          -20 -47 -4 -44 hhcurveto
          -1 -4 0 -4 -4 vvcurveto
          -8 1 -6 0 vhcurveto
          44 -3 8 -4 20 -23 32 -36 44 -54 34 -52 rrcurveto
          -90 hlineto
          -2 -14 -3 -10 -5 -43 callsubr
          4 54 32 3 31 hhcurveto
          9 -18 7 -16 3 -10 2 -11 2 -11 1 -10 rrcurveto
          -156 hlineto
          -2 -14 -3 -10 -6 -43 callsubr
          hintmask 00111100
          7 78 40 0 45 hhcurveto
          -38 0 -20 -3 -18 vhcurveto
          -2 -23 -7 -27 -84 -12 -68 callgsubr
          -70 callsubr
          -7 1 -5 3 callsubr
          hintmask 01011100
          7 54 71 1 13 hhcurveto
          hintmask 10001100
          20 50 -3 40 hhcurveto
          1 4 0 6 4 vvcurveto
          9 -1 8 0 -24 -28 0 5 -24 vhcurveto
          -4 30 -3 48 30 vvcurveto
          hintmask 00111010
          14 vlineto
          71 81 -2 0 hvcurveto
          3 12 1 14 7 10 rrcurveto
          10 -8 2 0 vhcurveto
          -6 -68 -44 0 -43 hhcurveto
          13 1 11 3 6 vhcurveto
          3 10 9 17 12 20 rrcurveto
          43 28 -1 69 hhcurveto
          3 12 1 13 7 11 18 callgsubr
          -4 -46 -33 -3 -36 hhcurveto
          44 63 60 73 27 20 14 11 11 6 16 4 -41 callsubr
          6 vvcurveto
          5 -1 8 -3 3 vhcurveto
          hintmask 10001100
          -6 -34 -11 0 -29 hhcurveto
          -24 -44 2 1 -35 hvcurveto
          -1 -4 -2 -4 -5 vvcurveto
          -10 3 -9 0 20 29 0 -3 16 vhcurveto
          -18 -49 -56 -69 -59 -88 rrcurveto
          113 -47 -114 129 -15 hhcurveto
          endchar
        </CharString>
        <CharString name="z">
          -61 -3 39 -36 -20 36 -21 462 36 4 -20 22 -20 hstemhm
          hintmask 01010000
          192 hmoveto
          hintmask 10000100
          33 86 -3 37 hhcurveto
          47 42 2 4 12 hvcurveto
          4 1 3 1 8 vvcurveto
          1 31 7 33 7 52 rrcurveto
          3 -6 -8 3 -6 hhcurveto
          -4 -4 -2 -1 -3 hvcurveto
          -27 -69 rlineto
          -11 -30 -94 -16 -76 hhcurveto
          -66 hlineto
          257 396 14 21 13 12 9 8 rlinecurve
          7 0 11 -7 8 vhcurveto
          hintmask 10010000
          -6 -54 -56 0 -50 hhcurveto
          -42 hlineto
          hintmask 10001000
          -67 -96 4 -23 hhcurveto
          -13 -3 -4 -5 -9 12 -46 8 -68 hvcurveto
          -1 4 6 -1 5 hhcurveto
          5 7 1 3 4 hvcurveto
          12 77 rlineto
          hintmask 00110000
          11 36 55 2 56 hhcurveto
          84 hlineto
          -70 -116 -86 -130 -106 -151 -9 -13 -16 -19 -9 -9 rrcurveto
          0 0 -15 8 -9 vhcurveto
          hintmask 01010000
          5 54 54 0 49 hhcurveto
          endchar
        </CharString>
        <CharString name="zero">
          29 -20 85 372 87 hstem
          55 50 372 54 vstem
          531 251 rmoveto
          153 -87 120 -148 vhcurveto
          -141 -16 -100 -80 -177 vvcurveto
          -155 84 -116 149 vhcurveto
          141 16 102 79 176 vvcurveto
          -426 21 rmoveto
          115 50 50 121 117 84 -101 -103 -113 -53 -55 -116 -117 -86 104 103 vhcurveto
          endchar
        </CharString>
      <CharString index="0">
        79 3 144 21 vvcurveto
        72 -36 73 -104 -10 -110 -34 -12 -18 vhcurveto
        -38 -31 -14 -21 -26 vvcurveto
        -20 3 -18 37 22 21 8 5 21 0 23 13 27 vhcurveto
        32 15 57 6 14 hhcurveto
        36 28 -32 -77 hvcurveto
        -95 vlineto
        -130 -25 -66 -28 -24 -12 rrcurveto
        -23 -11 -21 -33 -41 vvcurveto
        -84 68 -51 38 vhcurveto
        67 20 45 24 47 29 3 -30 21 -34 31 -9 6 5 30 23 74 13 -20 callsubr
        -49 callsubr
        7 -4 5 vhcurveto
        -12 -15 -1 -9 hhcurveto
        -40 -7 40 33 hvcurveto
        -192 -80 rmoveto
        -37 -27 52 28 32 9 20 18 9 hvcurveto
        33 19 40 19 75 10 rrcurveto
        return
      </CharString>
      <CharString index="1">
        392 120 -106 callsubr
        return
      </CharString>
      <CharString index="2">
        rmoveto
        171 8 122 4 39 11 callgsubr
        6 23 72 16 -42 callsubr
        5 -2 -25 callgsubr
        -54 -76 0 -30 hhcurveto
        hintmask 10111100
        -18 -39 -48 callsubr
        hintmask 11011100
        -24 callsubr
        16 0 -3 19 vhcurveto
        5 -98 4 -99 -60 vvcurveto
        -153 vlineto
        -130 37 -169 264 194 94 111 193 149 7 119 4 47 vhcurveto
        hintmask 10111100
        3 36 10 52 71 16 -41 callsubr
        4 vvcurveto
        5 -1 -25 callgsubr
        -41 -55 0 -21 hhcurveto
        hintmask 10111100
        -22 -52 21 callgsubr
        -4 0 -6 -11 callsubr
        -8 0 32 31 0 -3 23 vhcurveto
        10 -74 0 -119 -63 vvcurveto
        -124 vlineto
        -182 -49 -104 -183 -153 -61 110 163 vhcurveto
        return
      </CharString>
      <CharString index="3">
        549 244 rmoveto
        148 -110 117 -140 vhcurveto
        -150 -24 -109 -76 -165 vvcurveto
        -151 111 -113 140 vhcurveto
        149 24 109 75 165 vvcurveto
        -236 -221 rmoveto
        -116 -65 130 130 101 39 83 108 116 62 -131 -129 -104 -36 -80 -108 hvcurveto
        return
      </CharString>
      <CharString index="4">
        -91 callsubr
        20 343 35 342 vhcurveto
        -332 -325 rmoveto
        -168 -114 196 184 145 76 128 158 169 109 -197 -183 -150 -72 -123 -158 hvcurveto
        return
      </CharString>
      <CharString index="5">
        -7 -53 vhcurveto
        -5 -36 -7 -35 -73 -16 -68 callgsubr
        -4 -4 vvcurveto
        -60 callsubr
        return
      </CharString>
      <CharString index="6">
        -17 -96 -47 callgsubr
        -2 -5 20 callgsubr
        -59 callgsubr
        -36 3 -61 rrcurveto
        3 -61 1 -101 -103 callsubr
        7 55 70 1 14 hhcurveto
        return
      </CharString>
      <CharString index="7">
        rmoveto
        155 5 214 16 100 vhcurveto
        -98 callsubr
        return
      </CharString>
      <CharString index="8">
        vhcurveto
        -2 -25 -26 -2 -23 hhcurveto
        -28 -82 3 0 hvcurveto
        3 callgsubr
        -5 3 -6 vhcurveto
        28 -1 26 -3 20 -4 -34 -36 -27 -24 -41 -30 -98 -72 rcurveline
        -43 30 160 -276 29 hhcurveto
        12 49 16 4 64 hvcurveto
        2 4 0 3 4 vvcurveto
        6 -2 7 -2 5 vhcurveto
        -1 -10 -4 0 -6 hhcurveto
        -7 -7 0 1 -5 hvcurveto
        -27 4 -30 34 -67 102 rrcurveto
        -200 247 -100 callgsubr
        -10 -29 -60 -14 -68 callgsubr
        -4 -4 vvcurveto
        -60 callsubr
        -30 callsubr
        return
      </CharString>
      <CharString index="9">
        23 -65 callgsubr
        17 -7 30 callsubr
        -22 -83 callsubr
        -19 9 -52 callsubr
        return
      </CharString>
      <CharString index="10">
        rmoveto
        -3 -12 -29 -7 5 callgsubr
        -5 0 -8 2 -11 vhcurveto
        173 hlineto
        3 7 0 2 3 vvcurveto
        5 0 4 -3 7 vhcurveto
        -24 -12 0 3 -13 hvcurveto
        165 vlineto
        83 0 44 12 44 vhcurveto
        0 -4 9 -22 5 vhcurveto
        -40 -24 -40 -20 -44 -18 rrcurveto
        -11 3 -11 8 -6 vhcurveto
        65 16 rlineto
        -114 vlineto
        -69 -2 -64 -3 -12 vhcurveto
        return
      </CharString>
      <CharString index="11">
        -107 callgsubr
        -64 -3 -72 -67 callgsubr
        endchar
      </CharString>
      <CharString index="12">
        -95 callsubr
        903 21 callsubr
        hintmask 00111000
        184 416 -100 callgsubr
        -9 -29 -69 -14 -68 callgsubr
        -4 -4 vvcurveto
        -60 callsubr
        hintmask 01011000
        7 55 65 1 29 hhcurveto
        hintmask 10011000
        22 44 -3 44 hhcurveto
        2 -64 callgsubr
        -2 7 0 -32 -28 0 4 -18 -12 callsubr
        return
      </CharString>
      <CharString index="13">
        122 -35 51 -25 42 -16 28 rrcurveto
        89 26 62 64 106 vvcurveto
        142 -100 57 -143 vhcurveto
        3 -32 rmoveto
        96 57 -83 -97 -96 -72 -63 -96 -55 -24 2 1 -12 hvcurveto
        103 return
      </CharString>
      <CharString index="14">
        24 62 -3 47 hhcurveto
        3 4 0 6 4 vvcurveto
        9 -3 8 0 -28 -33 1 6 -27 vhcurveto
        -4 41 -3 13 78 vvcurveto
        149 vlineto
        -3 26 25 -1 48 hhcurveto
        return
      </CharString>
      <CharString index="15">
        rlineto
        -1 -11 -1 -8 -1 vvcurveto
        -4 2 -2 3 -1 vhcurveto
        67 -17 30 -20 -34 vvcurveto
        -28 -22 -26 -106 -2 vhcurveto
        0 -1 -5 -7 vvcurveto
        -5 0 -4 3 callsubr
        110 hlineto
        31 15 33 20 56 vvcurveto
        57 -33 25 -67 27 vhcurveto
        return
      </CharString>
      <CharString index="16">
        rmoveto
        -11 24 -23 18 -22 9 rrcurveto
        -62 -87 -77 -97 -71 callgsubr
        4 -17 19 vhcurveto
        endchar
      </CharString>
      <CharString index="17">
        -5 -37 -22 0 -24 hhcurveto
        -134 hlineto
        -4 -2 -3 -2 -10 7 -82 0 hvcurveto
        -3 5 4 0 4 hhcurveto
        6 2 0 3 6 hvcurveto
        6 44 rlineto
        2 14 28 2 14 hhcurveto
        56 hlineto
        -81 -132 rlineto
        73 -12 27 -30 -38 vvcurveto
        -39 -19 -49 -45 -23 -41 25 17 -25 vhcurveto
        -27 -24 -5 -29 0 vvcurveto
        -13 26 36 -10 43 hhcurveto
        79 72 58 78 46 -28 38 -72 22 hvcurveto
        return
      </CharString>
      <CharString index="18">
        895 rmoveto
        -7 25 -20 20 -21 13 rrcurveto
        -74 -77 -90 -85 -71 callgsubr
        2 -19 18 -1 vhcurveto
        return
      </CharString>
      <CharString index="19">
        -6 -85 callgsubr
        return
      </CharString>
      <CharString index="20">
        200 189 rmoveto
        43 1 219 11 62 vhcurveto
        0 -3 12 -12 vhcurveto
        -28 -14 -16 -8 -33 -12 -36 -12 -16 -3 -32 -7 31 callgsubr
        -34 callgsubr
        0 -5 3 callsubr
        0 24 -2 13 -1 vhcurveto
        50 -5 1 -44 -79 vvcurveto
        -96 vlineto
        -40 0 -67 -5 -18 vhcurveto
        -8 -30 -8 -30 -60 -14 rrcurveto
        0 -2 -4 -4 -87 callsubr
        return
      </CharString>
      <CharString index="21">
        -2 -4 -1 -6 20 callgsubr
        -8 0 32 27 0 -3 22 vhcurveto
        11 -61 0 -83 1 -60 3 -184 1 -64 3 -80 -127 171 -65 87 -95 112 rrcurveto
        return
      </CharString>
      <CharString index="22">
        0 -70 callsubr
        return
      </CharString>
      <CharString index="23">
        25 11 36 26 13 19 -9 25 -24 31 -21 20 -24 -11 -35 -26 -19 -20 12 -27 22 -28 24 -20 rrcurveto
        return
      </CharString>
      <CharString index="24">
        0 3 -15 vhcurveto
        -9 1 return
      </CharString>
      <CharString index="25">
        9 -5 74 -27 -65 vvcurveto
        -60 -47 -24 -52 -53 -39 28 9 -9 vhcurveto
        -18 21 -9 36 -8 20 rrcurveto
        2 -3 -4 0 -2 hhcurveto
        -8 -6 -3 -4 -6 hvcurveto
        8 -43 8 -53 2 -29 rrcurveto
        -10 22 64 -13 56 hhcurveto
        93 89 53 95 88 -85 45 -29 14 hvcurveto
        -78 37 rlineto
        -33 16 -31 31 36 vvcurveto
        return
      </CharString>
      <CharString index="26">
        761 rmoveto
        17 2 3 18 -71 callgsubr
        -91 86 -73 77 vhcurveto
        -12 hlineto
        -74 -77 -90 -86 -71 callgsubr
        2 -18 18 -2 vhcurveto
        150 96 rlineto
        return
      </CharString>
      <CharString index="27">
        rmoveto
        130 -122 rlineto
        -51 callsubr
        -87 105 -61 7 callsubr
        5 -17 18 vhcurveto
        endchar
      </CharString>
      <CharString index="28">
        27 56 -3 55 hhcurveto
        2 4 2 6 4 vvcurveto
        9 -4 8 0 -43 -32 1 3 -31 vhcurveto
        -12 1 0 183 83 vvcurveto
        150 return
      </CharString>
      <CharString index="29">
        -4 40 -36 5 callsubr
        364 36 293 -9 callgsubr
        return
      </CharString>
      <CharString index="30">
        24 53 -3 50 hhcurveto
        2 -64 callgsubr
        -2 7 0 -39 -23 0 3 -26 vhcurveto
        -10 1 -6 156 113 vvcurveto
        163 vlineto
        144 8 80 9 1 vhcurveto
        3 23 12 0 32 hhcurveto
        0 2 -59 callsubr
        5 -2 6 vhcurveto
        return
      </CharString>
      <CharString index="31">
        38 39 16 3 4 hvcurveto
        97 66 rlineto
        15 -9 5 0 vhcurveto
        -26 -61 -34 -12 -52 hhcurveto
        -121 -49 118 115 87 57 102 69 63 39 -34 -44 37 hvcurveto
        49 12 11 48 0 vvcurveto
        34 -37 -51 24 -72 hhcurveto
        endchar
      </CharString>
      <CharString index="32">
        rmoveto
        14 -52 callgsubr
        6 -3 10 -6 -68 callsubr
        -22 hhcurveto
        return
      </CharString>
      <CharString index="33">
        -3 -88 callgsubr
        -9 3 -7 0 return
      </CharString>
      <CharString index="34">
        -130 -24 callgsubr
        197 -1 callsubr
        -21 -24 13 -28 16 -23 24 -20 rrcurveto
        -27 -11 -34 -41 -59 -42 callgsubr
        70 67 38 77 44 vvcurveto
        return
      </CharString>
      <CharString index="35">
        -140 rmoveto
        -7 16 -28 27 -28 17 -28 -23 -17 -18 -19 -27 18 -25 17 -14 27 -17 -3 -27 -20 -42 -51 -40 2 -11 5 -8 9 -1 28 14 19 19 16 19 rrcurveto
        44 50 16 47 44 vvcurveto
        return
      </CharString>
      <CharString index="36">
        0 vvcurveto
        0 return
      </CharString>
      <CharString index="37">
        54 -21 430 -20 hstem
        287 255 rmoveto
        -74 61 -97 92 -45 55 rrcurveto
        -22 -5 -20 0 hvcurveto
        139 -195 -139 -195 rlineto
        0 5 -20 22 vhcurveto
        46 55 96 92 74 61 rrcurveto
        return
      </CharString>
      <CharString index="38">
        16 42 -3 34 hhcurveto
        2 6 2 5 4 vvcurveto
        9 -4 7 0 -22 -22 -25 callsubr
        69 103 37 2 75 16 vvcurveto
        104 -42 73 -89 vhcurveto
        -73 -22 -72 -39 -58 -32 rrcurveto
        return
      </CharString>
      <CharString index="39">
        rrcurveto
        0 -1 return
      </CharString>
      <CharString index="40">
        33 callsubr
        -24 -51 -31 -33 hhcurveto
        return
      </CharString>
      <CharString index="41">
        -5 2 -7 4 -5 vhcurveto
        hintmask 11011000
        7 return
      </CharString>
      <CharString index="42">
        8 31 25 13 return
      </CharString>
      <CharString index="43">
        32 callsubr
        4 vvcurveto
        9 return
      </CharString>
      <CharString index="44">
        298 -4 -21 22 -20 23 -20 719 24 -3 -20 29 -20 24 -20 return
      </CharString>
      <CharString index="45">
        hstem
        64 101 512 102 vstem
        return
      </CharString>
      <CharString index="46">
        rmoveto
        131 -122 rlineto
        -51 callsubr
        -87 105 -61 87 hvcurveto
        -12 hlineto
        -62 -87 -86 -105 -71 callgsubr
        5 -17 17 vhcurveto
        endchar
      </CharString>
      <CharString index="47">
        267 -20 43 669 28 3 -20 return
      </CharString>
      <CharString index="48">
        -53 callsubr
        2 return
      </CharString>
      <CharString index="49">
        -11 9 -4 0 vhcurveto
        return
      </CharString>
      <CharString index="50">
        vlineto
        60 0 325 10 98 vhcurveto
        19 callsubr
        vhcurveto
        -18 -7 return
      </CharString>
      <CharString index="51">
        rmoveto
        247 97 -168 -170 -195 -88 -116 -199 -60 -33 5 12 -47 hvcurveto
        -4 30 0 50 39 vvcurveto
        return
      </CharString>
      <CharString index="52">
        4 16 rrcurveto
        4 27 32 0 36 hhcurveto
        endchar
      </CharString>
      <CharString index="53">
        -215 -43 vvcurveto
        -245 vlineto
        -127 -16 -70 -87 -67 vhcurveto
        -84 -64 rlineto
        -16 5 0 11 4 vvcurveto
        44 44 rlineto
        return
      </CharString>
      <CharString index="54">
        -20 hstemhm
        111 104 446 48 hintmask 10111100
        return
      </CharString>
      <CharString index="55">
        25 22 20 23 hvcurveto
        13 12 12 10 8 return
      </CharString>
      <CharString index="56">
        -69 1 -21 489 40 return
      </CharString>
      <CharString index="57">
        -4 -57 callsubr
        return
      </CharString>
      <CharString index="58">
        -28 -76 -4 -58 hhcurveto
        -2 -2 -1 -8 -4 vvcurveto
        -10 3 -6 0 vhcurveto
        56 -3 17 -9 29 -32 76 -82 return
      </CharString>
      <CharString index="59">
        4 0 vhcurveto
        return
      </CharString>
      <CharString index="60">
        -29 callsubr
        -6 return
      </CharString>
      <CharString index="61">
        vhcurveto
        -11 4 8 -4 return
      </CharString>
      <CharString index="62">
        895 rmoveto
        -6 25 -20 20 -22 -13 callgsubr
        return
      </CharString>
      <CharString index="63">
        188 193 190 116 109 147 return
      </CharString>
      <CharString index="64">
        -10 3 -6 0 vhcurveto
        53 -4 17 -4 35 -38 rrcurveto
        return
      </CharString>
      <CharString index="65">
        -46 callgsubr
        9 hhcurveto
        return
      </CharString>
      <CharString index="66">
        27 -20 43 444 42 return
      </CharString>
      <CharString index="67">
        77 vhcurveto
        -12 hlineto
        -73 -77 -91 -86 -71 callgsubr
        3 -18 17 -2 vhcurveto
        151 96 rlineto
        return
      </CharString>
      <CharString index="68">
        rmoveto
        -51 callsubr
        -78 97 -61 87 hvcurveto
        -23 -9 -22 -18 -11 -24 rrcurveto
        endchar
      </CharString>
      <CharString index="69">
        rmoveto
        -51 callsubr
        -77 97 -62 87 hvcurveto
        -22 -9 -23 -18 -11 -24 rrcurveto
        endchar
      </CharString>
      <CharString index="70">
        -28 -66 -4 -70 hhcurveto
        -3 -5 -85 callgsubr
        return
      </CharString>
      <CharString index="71">
        4 callgsubr
        12 -9 -48 callgsubr
        return
      </CharString>
      <CharString index="72">
        40 92 325 92 return
      </CharString>
      <CharString index="73">
        -5 -57 callsubr
        return
      </CharString>
      <CharString index="74">
        24 -17 rrcurveto
        return
      </CharString>
      <CharString index="75">
        -3 -32 -1 -36 -98 -19 -68 callgsubr
        -70 callsubr
        -5 1 -6 4 -5 vhcurveto
        return
      </CharString>
      <CharString index="76">
        -45 -20 72 417 40 return
      </CharString>
      <CharString index="77">
        -5 rrcurveto
        13 21 20 15 return
      </CharString>
      <CharString index="78">
        66 rrcurveto
        6 -8 return
      </CharString>
      <CharString index="79">
        -20 -27 callgsubr
        return
      </CharString>
      <CharString index="80">
        hstemhm
        133 return
      </CharString>
      <CharString index="81">
        -24 -35 3 7 -48 hvcurveto
        -5 -6 -1 -8 -5 vvcurveto
        -4 1 -3 0 vhcurveto
        return
      </CharString>
      <CharString index="82">
        7 -4 5 vhcurveto
        hintmask 11011100
        -8 return
      </CharString>
      <CharString index="83">
        -21 263 -20 hstem
        return
      </CharString>
      <CharString index="84">
        47 89 175 84 return
      </CharString>
      <CharString index="85">
        32 80 -3 61 hhcurveto
        3 4 1 6 5 vvcurveto
        9 -4 10 0 -40 return
      </CharString>
      <CharString index="86">
        8 98 70 0 62 hhcurveto
        226 hlineto
        4 17 2 20 4 callgsubr
        return
      </CharString>
      <CharString index="87">
        vvcurveto
        9 -3 8 0 -32 -24 0 3 return
      </CharString>
      <CharString index="88">
        52 653 51 return
      </CharString>
      <CharString index="89">
        -1 5 hhcurveto
        7 5 1 3 4 hvcurveto
        4 41 7 55 5 16 return
      </CharString>
      <CharString index="90">
        56 43 -31 56 hhcurveto
        endchar
      </CharString>
      <CharString index="91">
        vvcurveto
        -114 return
      </CharString>
      <CharString index="92">
        hhcurveto
        76 0 -115 -101 -61 -2 -51 -3 -21 hvcurveto
        -4 -31 return
      </CharString>
      <CharString index="93">
        -7 54 rlinecurve
        2 13 10 0 21 hhcurveto
        0 3 7 9 vvcurveto
        return
      </CharString>
      <CharString index="94">
        13 rrcurveto
        -73 -77 -91 -85 -71 callgsubr
        3 -19 17 -1 vhcurveto
        return
      </CharString>
      <CharString index="95">
        -312 -21 330 -20 23 -20 return
      </CharString>
      <CharString index="96">
        1 2 1 hvcurveto
        23 50 155 return
      </CharString>
      <CharString index="97">
        -20 -19 callgsubr
        return
      </CharString>
      <CharString index="98">
        35 3 -20 24 -20 return
      </CharString>
      <CharString index="99">
        -3 5 callgsubr
        return
      </CharString>
      <CharString index="100">
        0 31 callsubr
        return
      </CharString>
      <CharString index="101">
        -41 hhcurveto
        -51 -21 return
      </CharString>
      <CharString index="102">
        -9 -46 callsubr
        return
      </CharString>
      <CharString index="103">
        rmoveto
        -44 68 -52 82 0 vvcurveto
        233 154 rlineto
        10 return
      </CharString>
      <CharString index="104">
        592 -21 276 -20 hstem
        109 573 rmoveto
        -1 return
      </CharString>
      <CharString index="105">
        hhcurveto
        hintmask 1101010110000000
        -19 -45 -5 callsubr
        hintmask 1101001110000000
        return
      </CharString>
      <CharString index="106">
        hvcurveto
        0 -5 -9 -11 vvcurveto
        -60 callsubr
        return
      </CharString>
      <CharString index="107">
        -32 -25 1 3 -27 hvcurveto
        -5 32 -1 57 43 vvcurveto
        return
      </CharString>
      <CharString index="108">
        vstem
        288 509 rmoveto
        -24 -224 -34 -235 return
      </CharString>
      <CharString index="109">
        120 -100 -81 86 -21 hhcurveto
        return
      </CharString>
      <CharString index="110">
        0 -3 -50 callgsubr
        0 return
      </CharString>
      <CharString index="111">
        8 16 rrcurveto
        return
      </CharString>
      <CharString index="112">
        -27 -5 rrcurveto
        return
      </CharString>
      <CharString index="113">
        -2 -1 -2 -4 vvcurveto
        -8 8 -60 0 vhcurveto
        -2 return
      </CharString>
      <CharString index="114">
        44 9 44 rrcurveto
        0 -4 10 -12 vhcurveto
        -16 -8 return
      </CharString>
      <CharString index="115">
        183 -62 -145 198 -19 hhcurveto
        endchar
      </CharString>
      <CharString index="116">
        -29 -8 callsubr
        return
      </CharString>
      <CharString index="117">
        -28 callgsubr
        86 return
      </CharString>
      <CharString index="118">
        vhcurveto
        4 36 return
      </CharString>
      <CharString index="119">
        vhcurveto
        9 -3 return
      </CharString>
</ttFont>
